<mxfile host="app.diagrams.net" agent="Mozilla/5.0 (Macintosh; Intel Mac OS X 10_15_7) AppleWebKit/537.36 (KHTML, like Gecko) Chrome/141.0.0.0 Safari/537.36" version="28.2.8">
  <diagram name="Page-1" id="0sPsKP1CgwF1eiU7WAom">
    <mxGraphModel dx="1988" dy="896" grid="1" gridSize="10" guides="1" tooltips="1" connect="1" arrows="1" fold="1" page="1" pageScale="1" pageWidth="850" pageHeight="1100" math="0" shadow="0">
      <root>
        <mxCell id="0" />
        <mxCell id="1" parent="0" />
        <mxCell id="sqtcqI0O-p82qgy-uQC5-1" value="" style="shape=image;verticalLabelPosition=bottom;labelBackgroundColor=default;verticalAlign=top;aspect=fixed;imageAspect=0;image=data:image/png,iVBORw0KGgoAAAANSUhEUgAABV4AAAJKCAYAAADUXV6IAAAAAXNSR0IArs4c6QAAAERlWElmTU0AKgAAAAgAAYdpAAQAAAABAAAAGgAAAAAAA6ABAAMAAAABAAEAAKACAAQAAAABAAAFXqADAAQAAAABAAACSgAAAADzpvsWAABAAElEQVR4AezdCXxU5dX48ZOEkASyEEIIARL2HWQJqIjiUsUNd5Faq63V1loVFbX1fbu8/VftKyBoa/taW61QcUFFxQUUFVQUFxYFwr4TQhJIQkjIvv2fc4c7mUwmIYFJmOX3fD5h7tzluc/93gnKmXPPE1JrmtAQQAABBBBAAAEEEEAAAQQQQAABBBBAAAEEvCYQ6rWe6AgBBBBAAAEEEEAAAQQQQAABBBBAAAEEEEDAEiDwygcBAQQQQAABBBBAAAEEEEAAAQQQQAABBBDwsgCBVy+D0h0CCCCAAAIIIIAAAggggAACCCCAAAIIIEDglc8AAggggAACCCCAAAIIIIAAAggggAACCCDgZQECr14GpTsEEEAAAQQQQAABBBBAAAEEEEAAAQQQQIDAK58BBBBAAAEEEEAAAQQQQAABBBBAAAEEEEDAywIEXr0MSncIIIAAAggggAACCCCAAAIIIIAAAggggACBVz4DCCCAAAIIIIAAAggggAACCCCAAAIIIICAlwUIvHoZlO4QQAABBBBAAAEEEEAAAQQQQAABBBBAAAECr3wGEEAAAQQQQAABBBBAAAEEEEAAAQQQQAABLwsQePUyKN0hgAACCCCAAAIIIIAAAggggAACCCCAAAIEXvkMIIAAAggggAACCCCAAAIIIIAAAggggAACXhYg8OplULpDAAEEEEAAAQQQQAABBBBAAAEEEEAAAQQIvPIZQAABBBBAAAEEEEAAAQQQQAABBBBAAAEEvCxA4NXLoHSHAAIIIIAAAggggAACCCCAAAIIIIAAAggQeOUzgAACCCCAAAIIIIAAAggggAACCCCAAAIIeFmAwKuXQekOAQQQQAABBBBAAAEEEEAAAQQQQAABBBAg8MpnAAEEEEAAAQQQQAABBBBAAAEEEEAAAQQQ8LIAgVcvg9IdAggggAACCCCAAAIIIIAAAggggAACCCBA4JXPAAIIIIAAAggggAACCCCAAAIIIIAAAggg4GUBAq9eBqU7BBBAAAEEEEAAAQQQQAABBBBAAAEEEECAwCufAQQQQAABBBBAAAEEEEAAAQQQQAABBBBAwMsCBF69DEp3CCCAAAIIIIAAAggggAACCCCAAAIIIIAAgVc+AwgggAACCCCAAAIIIIAAAggggAACCCCAgJcFCLx6GZTuEEAAAQQQQAABBBBAAAEEEEAAAQQQQAABAq98BhBAAAEEEEAAAQQQQAABBBBAAAEEEEAAAS8LEHj1MijdIYAAAggggAACCCCAAAIIIIAAAggggAACBF75DCCAAAIIIIAAAggggAACCCCAAAIIIIAAAl4WIPDqZVC6QwABBBBAAAEEEEAAAQQQQAABBBBAAAEECLzyGUAAAQQQQAABBBBAAAEEEEAAAQQQQAABBLwsQODVy6B0hwACCCCAAAIIIIAAAggggAACCCCAAAIIEHjlM4AAAggggAACCCCAAAIIIIAAAggggAACCHhZgMCrl0HpDgEEEEAAAQQQQAABBBBAAAEEEEAAAQQQIPDKZwABBBBAAAEEEEAAAQQQQAABBBBAAAEEEPCyAIFXL4PSHQIIIIAAAggggAACCCCAAAIIIIAAAgggQOCVzwACCCCAAAIIIIAAAggggAACCCCAAAIIIOBlAQKvXgalOwQQQAABBBBAAAEEEEAAAQQQQAABBBBAgMArnwEEEEAAAQQQQAABBBBAAAEEEEAAAQQQQMDLAgRevQxKdwgggAACCCCAAAIIIIAAAggggAACCCCAAIFXPgMIIIAAAggggAACCCCAAAIIIIAAAggggICXBQi8ehmU7hBAAAEEEEAAAQQQQAABBBBAAAEEEEAAAQKvfAYQQAABBBBAAAEEEEAAAQQQQAABBBBAAAEvCxB49TIo3SGAAAIIIIAAAggggAACCCCAAAIIIIAAAgRe+QwggAACCCCAAAIIIIAAAggggAACCCCAAAJeFiDw6mVQukMAAQQQQAABBBBAAAEEEEAAAQQQQAABBAi88hlAAAEEEEAAAQQQQAABBBBAAAEEEEAAAQS8LEDg1cugdIcAAggggAACCCCAAAIIIIAAAggggAACCBB45TOAAAIIIIAAAggggAACCCCAAAIIIIAAAgh4WYDAq5dB6Q4BBBBAAAEEEEAAAQQQQAABBBBAAAEEECDwymcAAQQQQAABBBBAAAEEEEAAAQQQQAABBBDwsgCBVy+D0h0CCCCAAAIIIIAAAggggAACCCCAAAIIIEDglc8AAggggAACCCCAAAIIIIAAAggggAACCCDgZQECr14GpTsEEEAAAQQQQAABBBBAAAEEEEAAAQQQQIDAK58BBBBAAAEEEEAAAQQQQAABBBBAAAEEEEDAywIEXr0MSncIIIAAAggggAACCCCAAAIIIIAAAggggACBVz4DCCCAAAIIIIAAAggggAACCCCAAAIIIICAlwUIvHoZlO4QQAABBBBAAAEEEEAAAQQQQAABBBBAAAECr3wGEEAAAQQQQAABBBBAAAEEEEAAAQQQQAABLwsQePUyKN0hgAACCCCAAAIIIIAAAggggAACCCCAAAIEXvkMIIAAAggggAACCCCAAAIIIIAAAggggAACXhYg8OplULpDAAEEEEAAAQQQQAABBBBAAAEEEEAAAQQIvPIZQAABBBBAAAEEEEAAAQQQQAABBBBAAAEEvCxA4NXLoHSHAAIIIIAAAggggAACCCCAAAIIIIAAAggQeOUzgAACCCCAAAIIIIAAAggggAACCCCAAAIIeFmAwKuXQekOAQQQQAABBBBAAAEEEEAAAQQQQAABBBAg8MpnAAEEEEAAAQQQQAABBBBAAAEEEEAAAQQQ8LIAgVcvg9IdAggggAACCCCAAAIIIIAAAggggAACCCDQDgIEEEAAAQQQQAABBBBAAIHgEEgZflVwXChXGVACGemLAup6uBgEEAgeATJeg+dec6UIIIAAAggggAACCCCAAAIIIIAAAggg0EYCZLy2ETSnQQABBBBAAAEEEEAAAQR8RSBt0n2+MhTGgUCjAmuWPtXoNjYggAAC/iBAxqs/3CXGiAACCCCAAAIIIIAAAggggAACCCCAAAJ+JUDg1a9uF4NFAAEEEEAAAQQQQAABBBBAAAEEEEAAAX8QIPDqD3eJMSKAAAIIIIAAAggggAACCCCAAAIIIICAXwkQePWr28VgEUAAAQQQQAABBBBAAAEEEEAAAQQQQMAfBAi8+sNdYowIIIAAAggggAACCCCAAAIIIIAAAggg4FcCBF796nYxWAQQQAABBBBAAAEEEEAAAQQQQAABBBDwBwECr/5wlxgjAggggAACCCCAAAIIIIAAAggggAACCPiVAIFXv7pdDBYBBBBAAAEEEEAAAQQQQAABBBBAAAEE/EGAwKs/3CXGiAACCCCAAAIIIIAAAggggAACCCCAAAJ+JUDg1a9uF4NFAAEEEEAAAQQQQAABBBBAAAEEEEAAAX8QIPDqD3eJMSKAAAIIIIAAAggggAACCCCAAAIIIICAXwkQePWr28VgEUAAAQQQQAABBBBAAAEEEEAAAQQQQMAfBAi8+sNdYowIIIAAAggggAACCCCAAAIIIIAAAggg4FcCBF796nYxWAQQQAABBBBAAAEEEEAAAQQQQAABBBDwBwECr/5wlxgjAggggAACCCCAAAIIIIAAAggggAACCPiVAIFXv7pdDBYBBBBAAAEEEEAAAQQQQAABBBBAAAEE/EGgnT8MkjEigAACCCCAAAIIIIAAAggggAACCJxagVdffVWysrKcg2jXrp107dpVzjrrLElJSXGu9+WF6upq+eijj2T58uWSmZkpCQkJMmzYMPnRj34k0dHRvjx0xuaHAgRe/fCmMWQEEEAAAQQQQAABBBBAAAEEEECgLQVycnLkxhtv9HjK0NBQa9uzzz4rHTt29LiPN1d+++23kpubK+ecc47ExMQ0u+v09HS57rrrZNu2bQ2OefTRR+Wdd96RUaNGNdjGCgROVIDA64nKcRwCCCCAAAIIIIAAAggggAACCCAQJAJlZWXOK73jjjukW7ducuTIEVm6dKls2rRJXnrpJSkoKJD33nvPuV9rLWjwdP/+/bJw4UK59tprm32aBQsWWEHXHj16yJQpUyQpKckav2a/ZmRkyC233CLr1q2TkJCQZvfJjgg0JUDgtSkdtiGAAAIIIIAAAggggAACCCCAAAII1BO45557rMfzdWVtba0VsJw/f768//77snr1ahk7dmy9/X3lzfjx42XWrFkybdo0ad++vTWshx9+WK6++mpZtGiRbNiwQXbt2iX9+vXzlSEzDj8XIPDq5zeQ4SOAAAIIIIAAAggggAACCCCAAAKnSkCzQ//4xz+KBl61fffddw0CrxrQ/PLLL2X9+vWidWG1puoFF1wgAwYMaDBs7Udrr955553y/fffO/u99dZbpbi4WLZs2WJl2uqBml174MABq4/JkydL7969reXG/rjssstEf9yb1nfVwKu2vXv3Enh1B+L9CQsQeD1hOg5EAAEEEEAAAQQQQAABBBBAAAEEEOjVq5cToaamxrlcWVkpv//9760sU9f1ukNERIT8+c9/lunTpzv31wWttbp161bJz8+XJ554QuzjdP/NmzfLJ5984tz/hRdeEP3RFh4eLloC4URaeXm587D4+HjnMgsInKwAgdeTFeR4BBBAAAEEEEAAAQQQQMDHBQqPVsquzCKJju8uRw87ssN8fMgMDwEE/EhAJ7uy2+DBg+1FeeSRR2TGjBnWe80qvfTSS61s1Xnz5smqVavkgQcekEGDBsnll1/uPMZemDlzplUO4Pbbb5fS0lIZMmSIaFbrpEmTrH6PHj0q2ufIkSOtQy655BL70Ba/Ll682DomLi5Ohg4d2uLjOQCBxgQIvDYmw3oEEEAAAQQQQAABBBBAwA8FDh0us4Ksu/YfNa/6UyR5BY5srprqaj+8IoaMAAK+LLBjxw5npqlOuJWWlmYNNycnR+bMmWMt/+Y3v5HHH3/ceRlaNmDixImyZs0a+d3vfucx8BoaGmpNnqXBVtd28cUXy9NPPy0aeNVJtloyuZZrP/ayZtHqJF3abrzxRisT197GKwInK0Dg9WQFOR4BBBBAAAEEEEAAAQQQOAUCNTW1knmoRHZrcHV/kSPIaoKtR0srPY5m9KDOsmZpjsdtrEQAAQRaIqD1VzU7dN++fdbj/1pSQAOlzz//vERHR1tdffbZZ1ZN1sjISNHAq2vr0KGDNcHVT37yE1m3bp2V0RoVFeW6i9x9991Whmu9lV5+U1VVZQWNdfyJiYlWmQMvn4LuglyAwGuQfwC4fAQQQAABBBBAAAEEEPBPgVc/3C2vfbS32YO/YVJvee7pZu/OjggggECjAitWrHBu08myzj33XJk9e7Yz21U3aiastv79+4unuql2Zmxtba3s3r27wSP+Y8eOtY5vyR/nn3++aMDXtWlAeM+ePdKzZ0/X1dbyPffcI3otOkHYP//5T0lISGiwDysQOBkBAq8no8exCCCAAAIIIIAAAggggMApEpg6qY+k7zwim3YVHHcEw/vFy5A+ccfdjx0QQACB5gjMnTvXCqh27dpV+vTpIxp8dW8HDx60VmlmrKemk2XZraKiwl48qdekpCTp0aNHvT7CwsKsibfqrTRvNFD8j3/8w1qtk3hdffXV7rvwHoGTFmj4m3HSXdIBAggggAACCCCAAAIIIIBAawuEhYXIg7cMlfufWC1HjjYdtJh6cd2M4609LvpHAIHAF9Bs1GHDhjV5oXaGaVZWlsf97MCsbkxNTfW4T0tXvvrqq806REsiPPTQQ9a+9913n0yfPr1Zx7ETAi0VCG3pAeyPAAIIIIAAAggggAACCCDgGwKdYyOs4Kt5SrbRNrh3nIzoH9/odjYggAACrSHQt29fq9tdu3bJhg0bGpzijTfesNZplmrnzp0bbG9qhZYP0OYavG1qf9dtCxYskF/84heiJQ50ki97AjDXfVhGwFsCBF69JUk/CCCAAAIIIIAAAggggMApENCg6oSRXRs98w2TyHZtFIcNCCDQagKTJk0SDapqu+222yQ3N9d5rnfeecf5mP+JZJtqiQNty5Ytk+rqaueP8wSNLHz44Ydy8803S01NjUydOlWee+45q75rI7uzGoGTFiDwetKEdIAAAggggAACCCCAAAIInBqBquoaef6t7bJtX6EM69upwSD6p8TImMFMFtMAhhUIINDqAtHR0fLYY49Zgc1Vq1ZZk1udfvrpMmDAALnqqquktLRURo8eLdOmTWvxWMaPH28d8/rrr1s1ZjUQO3/+/OP288gjj0hlZaW1n2a+hoeHi9aAdf2xM3WP2xk7INAMAQKvzUBiFwQQQAABBBBAAAEEEEDA1wRyC8rkv//2vWTnl8mTD4yTh382XBLjI+sN84ZJveu95w0CCCBwogIapAw5Vtekffv2zepGM12XLFkigwYNEp1ASwOwO3bskMTERLn//vvlq6++ksjI+n9v6Xm02a+eTvTb3/5W7OBrRkaGFBQUiJ0F62l/e537RF+a+er+U1VVZe/OKwInLRBialrUnnQvdIAAAggggAACCCCAAAIIINBmAt9tzZO/vLxFLj+7h1x/YS9nMGS7yXx9+Om15rHbWunTPVqefHBcvTGlDL/Kep826b5663mDgC8KrFn6lDWsjPRFvji8oBxTSUmJdd0dOnRo8fUXFxfLtm3bpFu3bpKcnNzo8Rqg1WxY9yCppwNycnIkOztbUlJSWlwn1lN/rEPA2wLtvN0h/SGAAAIIIIAAAggggAACCLSOQE1Nrbzx8V5ZsvKAPHTLMBnWr355gQGpsXLb1QPknwu3yRRqu7bOTaBXBIJY4EQCrjZXx44drdIC9vvGXjWbtrkZtVpD1q4j21h/rEfgVAoQeD2V+pwbAQQQQAABBBBAAAEEEGimwJGjlTJn/kaTzSqmtECadIqJ8HjkZRN6SJHZd/yIRI/bWYkAAggggAACbSNA4LVtnDkLAggggAACCCCAAAIIIHDCAlv2HJFZ/9ko54xKkpsn95Ww0JAm+5p6ce8mt7MRAQQQQAABBFpfgMBr6xtzBgQQQAABBBBAAAEEEEDghAXe/2K/vLZ0r9zzw0EydmiXE+6HAxFAAAEEEECgbQUIvLatN2dDAAEEEEAAAQQQQAABBJolUFJWJX99ZYvkFpTJrPvGSNfOUc06jp0QOFmBq85LkfPHdZMDh0pk5tyNJ9sdxyOAAAJBK0DgNWhvPReOAAIIIIAAAggggAACviqw58BRmTE3XUb07yQP3DxGwtuF+upQW2VcF5/VXW66pI+UVlTLnX/+WmpqWuU0dOpBINSUsbjuglSJjW4vVVXAeyBiFQIIINBsAQKvzaZiRwQQQAABBBBAAAEEEECg9QWWr86WFxbtkNuvGSATxyS1/gl98AydYtpbgb9YM7aQEK1nW+uDo2ybIXXtHCk6YdrgPrHSt0esFBZXyLZ9hfLV+lxZsTanwSBGD+4sF52ZLANTYyXOBE/Lyqsk02SuLv06S5avypba41COGdLZsteOP/fQf4MTsgIBBBBAoFEBAq+N0rABAQQQQAABBBBAAAEEEGg7gYrKanl24TbZurdQHrt7tKQkdWy7k7fxmUJNAu9tVw2QiPahsswEAzftOtLGIzix02lQc8LIRCkuq7aC4yfWS/OPSk7sII/+aqQkxEU6D+rSKVL056zTukpS5wh54+N9zm1TLkqVmy7t53yvC+Ht2svgjuandyfp1a2jvPDOznrb3d9cYEoMaKuuqSXw6o7DewQQQKCFAsH1vEoLcdgdAQQQQAABBBBAAAEEEGgLgazcEvn1U2uksqrW1HMdG9BBV/XU0gmXn9NTLjyjuwztG9cWxF45x2kD4q0xTz67p1f6O14nf/j5CGfQdc2WPPnHwq3yxid7zefEUQLgx5f1kz49op3d9O7uWM7JL5WXluySv766Wb7acMi5/YqJKSabNdz53n2hY1SYcwK377flS0FRpfsuvEcAAQQQaIEAGa8twGJXBBBAAAEEEEAAAQQQQMDbAivXH5J/vL5Vpl7cWy5vo4Cet6+B/rwvMMQEpJO7dLA6Xr05Tx7913rnSfKOlMsd1w603p8zOkl2Zx61lleuy5X0HQXy4VdZpi6uo6bAsm+z5U8ma/a0/p1F67emmqxX3cdTGz+yq7Q/Vk/409UNyxh4OoZ1CCCAAAKNCxB4bdyGLQgggAACCCCAAAIIIIBAqwlUV9fKi+/vkpXrD8offjFS+qfEtNq5fKnju6cOkh5dHQFFHddkk/l62sB4a4jLV+VYdUhdx5tiAoU3XNRLhvftJO1MUHB7htY3PSQffHnAdTcTVBQ5N62bTBiVKH1M5md0h3ApPFopWXkl8s5n+2X1xjzn/ppx+//uHGkFGRcu2ydfravLCtWdHr51uCTGR8pna7KtYzUr94eX9Ja+3R33KCwsxApm6r5V5j4+9twG0fvZVHvs7lESER4mz7293WSpxsjZZpxaszXvSJlsNqUW5r67U4pLq5xdnOtS3/dlk73q2j429VpvubyfREWEyRkjush/3nOUD/jy+4OuuzmX92WVWIFXXdHOjL2xdsFYR5mB0vJq+cYlU7ax/VmPAAIIINC0AIHXpn3YigACCCCAAAIIIIAAAgh4XUCDbTPnbZQYExycM32cCRIGzz/N0oYkSHxshNO0U0yE6I+2vQeKTeDVuclamHP/WCtT0147ckBn0R/NBtVJyOz2C5MBeslZPey31mtifJgVQNVszznzNzlrloa3C5GhfTpZ+3TvElXvGH0zpE+cNTHVngOOTFINFGsfrs31faSpVVtcWu26ucHysL6O4PLj96TV29aza0fRH81wnTZzlTNT1Q5OazDWzmi1D9RSA7syC0X7TIirs7S3u75qcHbcsATnqsyDJc5l1wWdxGuoCW5rW7nuoFRUOsoZuO7DMgIIIIBAywSC57/uLXNhbwQQQAABBBBAAAEEEECgVQS+35ovT7282ZqpforJ5AwJaTwDsVUGcIo7/bcJliYnRsmPLulrjWTT7gL5Nj3XWl637XCD0enj8ZmHSuSDlZmSnBAll07oYZldObGnLPkyU7JzS61jOh8LQGpt0s/X5sjhwgoZ0T9err0g1dp+7Q9SnYHXBic5zorvzD2b++4O0cf6+/V0ZL3qe23lJkB5vKCre/e1tbXypcl03mNKBGjd1bjo9lbwdcKorrLCjF1bXEx76zUnr1TM7g1adm6ZCbyKRLYPM5nAIVJl6gNrizSB1oROEdZ6LStwjbn+pM6O4PLXJov10OHyBn3pinPTkpzrPzWZvjQEEEAAgZMXIPB68ob0gAACCCCAAAIIIIAAAggcV0Brbr7x8V5ZsvKAPHjLMBnez5FdeNwDA2yHFd8dlAiTIWoHXtea+qVvL89o9Co37josj/xrg5SZx9+1HTUZoDdc1NsKvl4wrpu8vGS3tX6eeVT/pcW7ZG9WsfVe//huS770TOogpw/rIt2P1Ut1bmzBQq4JVuoYNUCqgVctK9DUmJvqWj8HTy/Y4iypsHl3oTx212jrkP49o52B1/hjk2AVl9eVH3DtV8sB2K1DZDurrIK+v/7CXnL9D3rZm5yv2SaA++RLm5zv3RfON5bacgvKGq0B634M7xFAAAEEmhYg8Nq0D1sRQAABBBBAAAEEEEAAgZMW0FqjGvSqMI+Iz5meVu9R+5PuPMA7ePyFdGfQVS9VM1+nmOCiZgp371pXJsD9EXqt4xoVGSa5h8ssofbhoaLr9DF9b7e4mHAZ2Cu2QbeadbtjX1G99Tr+5avqMko37iyQsopqK0M1PtaR5aoHhIWZorWmNZYPHR0VZm3X63GtL1tu+vLUupls4YdvHSEz5tb31H0HmLHbgelP1+R4zLD11CfrEEAAAQSaFiDw2rQPWxFAAAEEEEAAAQQQQACBkxLYurdQZs1LN5MpJcnNk/tKmHl0ntZ8gZKy+oHE/CMVVtar1sfVTE/XdtbIRJk0vrsMSImVjlH1t7nu5+3lH5hs0Vsm92/Q7fod+fKH/1tXb32x2/XoxiNHKyTSlAPQycPsdrSk0rq+jlHh9qp6r3bGqwaTXeuxvv7RXnnLTBimfXUxJQfOGN5FrjMZsGo1elBnufmyvvKvt7bX6+t81zIDq+uCwvV24g0CCCCAQIsF2u6/RC0eGgcggAACCCCAAAIIIIAAAv4t8P4XmfLa0j1y99RBZoKjLv59MT40eg26urcbJvVyli/QbdXmkf6i4gqrPEBTdXS9UWL3UEGF9Yi++5gKiyvdV3l8r2N1b0UlVdLVzOcV29HzP9sTj9Vt1QCsexZvlSmFUFVdLftzSszPPtm5v0j+eMco6xTjTXDaNfAaFhYi54xx1HfdZfbTY2gIIIAAAt4R8Pw3uHf6phcEEEAAAQQQQAABBBBAICgFSsqq5OlXt8jB/DKZed8Y5+RGQYlxnIs+XuDTPT+4gykfoHVSddKtIlPCQZtOLjXlwt7WckFRuTV5mU7UpZNSXX9hqvz4sn7WNvsP18mqoj1klLqf0z7O+eq2g06IZU+K5dznJBcKTBastoS4SEkyZQJ0ki27qdnAFMckX4dMTdbjte+3HrayYrXcgnvCddqQzmIHspetyjpeV2xHAAEEEGiBQN1zDC04iF0RQAABBBBAAAEEEEAAAQQ8C+zNOioPPLlaos2j7o9PI+jqWalubfJxJr366RX1g6bnmsfiNeiqLTvPEXRM7dbRqt+q65atyhENNNrB1cT4SF1dr2mWqNbb1dY/1RHAtHeYclEviTWTaHlqdp9aLqJr54b9ejrmRNet25rvPHTimETnsi6MPy3ROcav1h1ybutrJufSDFb3lprcUTToqq24tH7phvPHJVvrtU7s52biMxoCCCCAgPcEyHj1niU9IYAAAggggAACCCCAQJALfLomW/799g65/ZoBMvHY49tBTuLx8ssrakSDn1ERYTLK1B1NG2qeqTctzzyyv+fA0XrHTJ6YInEx7eWjbw5I59gIufXKAdZ2zXr9zGSaaityeaT/9OEJJviaJVoj9YaLesvF43tY+7j/kZVbKr1MwHZ4v3hTAzVVNu46IueZoO4lZ3neX48/crTc2c21F6TKJ99mSffEDvKZmZDK2+2L7w+aa+1vTSL2w4v7muupkvU7CqRv92j5xXUDnadbfqwmq9a0nTN9nBwyk4kt+XK/rN1y2DLuZzJjf2pqC9ttw47D9qJVB3fskATr/Xfb8kUngaMhgAACCHhPgMCr9yzpCQEEEEAAAQQQQAABBIJUQCc3enbhVtm6p1Aeu2u0pJiAHq1pga17j8iogZ2tYOrvbx9p7Tx/8c4GgVfdcM7oJOvHtUcNOB446KhHeuhwuewxmca9k6OlZ9eO8rffnOG6q8dlDU7+8rpB1rabL6+fVevxALNyi7m/dtMArf5oAPnLdQelqqphnVZ73xN51UnE3jSTZOnEWJphe8exsbr29Z/3dki2CSBrqz2WjqsZvjrR1y2TXfd0LGtQ9sX3dzo3nD26qzNTePkqJtVywrCAAAIIeEmAUgNegqQbBBBAAAEEEEAAAQQQCE6BrNwS+c1f1kilCb7Oun8sQddmfgyeN5nBmYfqT+RUZoKY2mpqHGUAdmQUyhsf77Xqk9rdaqDzreX75G8LttirrNcZc9Nl8+6Ceus00Pi6OV6bTmBlByf1/QdfHpAFZuIzDZrbTevDPvvmNlm9Oc9aVVVdt01XaGB94Sd7rRqz9jEVldXOsgb2Ok+v+ii/Nvc+HeuObTtW/sDa0fzx4vu7RIOrB/Pr6rtqpq8Gmf/v9a0mMJth7yolZdUy+8WNst2Y6T6urayiWhZ/sd8qgeFaauD8sUnWblqT+Nv0XNdDWEYAAQQQ8IJAiPkPT/2/kb3QKV0ggAACCCCAAAIIIIAAAsEg8NWGQ/KP17fJlItSZfI5KT5/ySnDr7LGmDbpPp8Za0Kn9hLTsb0UFJZLQZHjUXedPEon0SozJQk0YKklCbp1ibLqsmqWa1P/io2NDhfN+tQgqpYu0KbHa+DVNchqA4SadKQeJktWg5WZxzJotYZsVESoFcz0dK6I9qHSzUx4pX1qyQI7qGr36ek1vF2oyS4Nsfp0397O1GXVPjV46ul8ur99XVkmWK37NdXULqFTpFXXNf9IuRwudDi4HqMTdj372zOtVVrG4e8Ltrpu9onlNUufssaRkb7IJ8bDIBBAAIGWClBqoKVi7I8AAggggAACCCCAAAJBL6CBtvmLd4nW4fzdz0fIgJTYoDc5UQANjtoBUrsPDT66ZmZqluvuzPq1X+193V+1Tql7rVI9vrGmybUZ2cX1NmsQ1vX89TaaN1qjdm9W/WPc93F/X2myWSur3Nc63leZz1OV26RX7nt6ui73fez3Gpgtcbsme5v9et6xbFd9b9eJtbfxigACCCDgHQECr95xpBcEEEAAAQQQQAABBBAIEoG8I2Uya94ma2KiJx8YJ9Ed+GdVkNz6gLrM4f07WdejZQw27TwSUNfGxSCAAAK+IsD/IfjKnWAcCCCAAAIIIIAAAggg4PMC68zM70++tFkum9DDlBfoZc047/ODZoAIeBB4xpTISOocKQcO1dWP9bAbqxBAAAEETkKAwOtJ4HEoAggggAACCCCAAAIIBIeATo2hkzwtNhMyPXjzMLGzBYPj6rnKQBTQWrn6Q0MAAQQQaD0BAq+tZ0vPCCCAAAIIIIAAAgggEAACRcWVMmf+JimvrJE509MkPjYiAK6KS0AAAQTqBOyJ9+rWsISAQ4DJ7U7uk0Dg9eT8OBoBBBBAAAEEEEAAAQQCWGDr3kJ54j8bZcLIRLl5cj8JM7Pd0xBAAAEEEEAAgeYIEHhtjhL7IIAAAggggAACCCCAQNAJvP9Fpry2dI/cNXWQnD6sS9BdPxeMAALBJ5A26b7gu2iu2KPAmqVPeVzPypYJEHhtmRd7I4AAAggggAACCCCAQIALlJRVyd8XbJHsvFKZce8Y6ZYQFeBXzOUhgAACCCCAQGsIhLZGp/SJAAIIIIAAAggggAACCPijwN6so/Lgk2skKrKdPD4tjaCrP95ExowAAggggICPCJDx6iM3gmEggAACCCCAAAIIIIDAqRVYvjpbXli0Q352dX85L63bqR0MZ0cAAQQQQAABvxcg8Or3t5ALQAABBBBAAAEEEEAAgZMRqKiskeff3i7pOwvksbtGS0q3jifTHccigAACCCCAAAKWAIFXPggIIIAAAggggAACCCAQtAJWHde56dIjsYM8cf9YiYoIC1oLLhwBBBBAAAEEvCtA4NW7nvSGAAIIIIAAAggggAACfiLw9YZD8szr22TKhakyeWKKn4z65IbZLjxKomIST64Tjq4n8KdfjZSkzlHy8TcH5PWP9tXbxhsEEDg5gbiY8BZ3UFZeLeUVNdZxMR3bSWhoSL0+ampqpai4qt46T2/0OD2+OU370361RbQPlchjX+KVlFZLZZVjLO79NHc/9+N4718CzfsE+dc1MVoEEEAAAQQQQAABBBBAoFGB6upaeWnxLlnx/UH53e0jZEBqbKP7+vOGQ4fLZFdmkezaf9S86k+RjDz/DsclaXygfizCLy41ukM7ue+modLBBDWOllbJ3Hd3yoGDJQ3GftNlfWX0oHjZuOuIVbe3wQ5eXNGrW7TERbc3E7F1OOleu3aOlMsm9JDBfWKlb49YKSyukG37CuWr9bmyYm1Og/5HD+4sF52ZLAPNZ1jHUFZeJZmHSmTp11myfFW21DriQA2OYwUC/iAwsHeszDSTHLa0rVx/UGbO3Sjxse3lhT9O8Hh4qQnO6hMPn6/Jlve/yBQtOePerj6vp9wyub/7ao/v//PeDnlzWYa17a4bBsnEMY464d9uzJU/P7+hwTGhZqr7mfeNlV7HStu8+uEeefXD3Q32Y4X/CxB49f97yBUggAACCCCAAAIIIIBAMwXyjpTJE//ZZEoKtJM5D4yVmA4tz6Zq5qnabDfNstJg224Nru43gVbr9agJTFZ6HENh7l6J7dLL4zZfX9k/JUbGDklwDjMhLkIemLPa+d5eGJAaI/1TYqWqumEwxd7H116TTbmLR032bEJcpHNoXTpFiv6cdVpXk1UbIW98XJdRO+WiVLnp0n7OfXUhvF17GdzR/PTuZAV0XnhnZ73twfBm8+4jMqRPXDBcasBfYzu3TNXmXnC7MBPVNC0srPFvl7SsTJ/u0eanv1xqvux44MnVDbJgmzrefSyu+765PEMmjEqSMDP+04d1kVHmS6Dvtx6ud4h+wWIHXYtKKmXxl/vrbedN4AgQeA2ce8mVIIAAAggggAACCCCAQBMC67fny5z5m+XSs3rIDZN6SUhI4/8ob6Ibn9ukWVKvfbS32ePK2vWN3wZe3S+yX88YOTctST5b0zAb1H1fX3//h5+PcAZd12zJk1UmU06Drledm2ICqqHy48v6yZrN+VaAXa+ltwkaacvJLzVlDrIk70i5jDNBnvEjHKUkrjDlMxYu2yeFRz0H4K2DA+SPWpPaq5mFr5vfg0OHy2XenzxnOQbI5Tb7MjJNNnhn8+WEv9auzsgplpeW7GpwvVec01NiTYa3ts9Mxup+t6x3ze53b5rR+uLinaKx3E4xEXLagHjRvz+0dTWlQu6eOlj+99/p7oc532/Ze0TWbMpzvndfWL0p37lqj/ny6/0V++VK87ur7barB8i9s1Y5SxHERofLjZf0de7/70U7guL31HnBQbZA4DXIbjiXiwACCCCAAAIIIIBAsAloUGbhJ/usx0kfuHmojOgfH1AEUyf1kfSdR2TTroLjXldh3n45WnDguPv50w4/NmUFvlx3UKqq/Pe5+iF94yS5i6NUwerNefLov9Y7b4EGVO+4dqD1/pzRSc7A68p1uZK+o0A+/CrLGdBZ9m22aM3Z0/p3tupapprHmHWfQG2a7a33XgOu+7KLrcuMj40I1Mtt8XVpHet3Ptsv1/8gVS4xGZYawPenpnVT9d66t9MGxsuIY4HX90yZgO17C913afD+UEGZvGssXNstk/vKtRc4sv81M1Vrrtq1YV330+VvjaVdSsB9m6f3L3+w22S9JlpfpqQkdZTLz+nhPP9PJveTjlGOcNw684WglgWhBa4AgdfAvbdcGQIIIIAAAggggAACQS+gj3A+OX+TlJbXyOzpadI5AIMy+ojrg7cMlfufWC1HjlY0ec+zd3/d5HZ/2phfWG7dz8T4SLlyYs8WBUVOH54gE02mbJ/kGEnoFCEHTT3cfdmapZYpm01dWE9tkKk3edV5KVY9VS1VoRlwi7+oH8hxP27imCQ5Z0xXU681WiLbt7POsdEEyV/7aE+9mpLnmv3s9rJbht/Hpl7rLZf3s7IWzxjRRf7znqN8wJemRrGnti+rxAq86rZ2TTxq7elYf1mnJSQ+XZ1jvlDZK1m5pfWGfewp83rrgvWNBqb174TnTUblW59myNSLe8uF45KbfAQ/mKzmL95tAqI9JSI8zHoCQr+o2L6vYbbsiZjoBF/Pvb1DfvOT4dbhPzRfkGlmflJClFwwzlH/VbNw/++1bSfSPcf4kQCBVz+6WQwVAQQQQAABBBBAAAEEmi+gkxLNmrfR1MdMNBOk9AvoYIMGlDX4+odnvm90QqXBveNkzdKmA4XN1z31e843E6TddcNgq47i9Rf2lo/M4/bNman8zikD5eLxPepdQKrJSNOfs0Z0lRff3ylvmRqNrk0Dng/ePKxexmDa4AQZM6hzoyUr7v3RYDl/bLJrN6b2aCfr5/ThXeThv66RkrJqa3uPro5s12IzYZjW6nVtOiP6rsxCGdY33mTPNZ3NqY+UjxtWVwNXHzUPpKaBqo++OSBvmRIKuQXlHi/NfQZ7jzsFycpqE3i1W77JnH7mta3ypsn+v/GS3jLRZE8Hu5UGpvV3TgOv2qK9XPP7q3WHRMuG6N8VmuF68+V9zZcwMc6/M179cJfkmAm+aIEtQOA1sO8vV4cAAggggAACCCCAQFAKLP4yUxaYWaJ/dcNAOWO4o+ZloENoCYUJI7vKF41kQmpd25f+GTgKGTkl8tHXB+QSU7O3Q2Q70Yyyf721vckLPGtUV2fQVWc1f2v5XlMbtcJMRhUrF53R3QpEaS3VrzbkSvaxTErNKP7FtQOcQVedMV2zSs80wVi7zqr7SfU8dtB1/8FiefmDPVJaVmlqPqbKaBOs1cy6a8wjzi+Z4LG2uBhHvUoNwpjKGA1adm6ZCbyKyZoNk3btQpxlFSJNoFUzdnW9o89UMwlXlHW8Pmau9U4DoZWUVckH5nd6kXlU/HhZ3a6THAXCtZ/MNWhg0b3pZ+yplzbLwo/3yo2X9rW+mHLfJ1jea/Zpp2MlC/SaNfO9sTZiQGc5YkofeGrqrNmsnrz/uXC7PP3reGkfHmr9HWMfv/vAUXnbZCHTAl+AwGvg32OuEAEEEEAAAQQQQACBoBHQYNrfFmyRrEMlMuPeMdLN/MM6GJo+ej3PzGCvWb7D+naSjW71XvunxMgYk3UVaO0VM7HYuWndrMfwNQD7nnn0P+tQ4xlkN5pHrbVpgOS3f18ru/Y7sks/Mdmyh0zQ5UdmwhsN3OnkPXYQ9wyTnZoQF2kdt2Jttsw2E7Rpe+PjPfLrnw63Zi23Vrj8MXVSb+udZtP919NrnZm4G7YXyIuPnmON9zxT6sAOvMabyXa0FZd7Duzo59puGmS2J8y6/sJepn5nL3uT8zXbBNeefGmT870/L4RHxVgTE+n9aU47lF8mD8xZZQXRw0JDrYxovac6w7xmeOqPliPQ9/a6uu3193du132tPsRMzuRYDjWd2H3UHe/S/7FzOvYJdZzXrLOPd6w3/R0bh92Hjtkep5aKsLc359rd96mu+9i4bxL94mLm3HQzwVS03GTqJAdTU9eBvWLlF9cNtHz12vULkgNNZIjrFyb601jbZEqUeMpe1XWvfbTbmhzPPlb//tH/TtXU2Gt4DWQBAq+BfHe5NgQQQAABBBBAAAEEgkhAJ9d5/IV0GWomKppxb5ozQzHQCXLNpDEz522SOBO8e/KBcVJjUianz15tBRLta7/hWCDQfh8or0eKKk1t1z1y06WOUhI6aY1+Bjw1nThHJ7nRtmpTrjPoau/73uc6CVFvKzOtR5Lj0X/d1tNl+W2XyXmqqmutc734yNnOiXJ0fw2g9TxWOmBPVpF06RRpfnSLo2XkHDV1YuPMugirBqv2E3asMKmZcN1ji45yPAqtZQeqzf52K6/wHFnTLxwevnWEzDCBNa016c+tsrRI5kwfe2yCvP2iBk01rfl755TBoo/Za4BLX6vNFxP13psudFvd9mP76Trd1xhbx9nHmwhZRaU4+jC/X/b2GrPe0b9LX9YxZl/Th7N/a52jX53szz7enMo5Lv0c2Pvbr/a4NQvaxGOPBWEdAV87IKuvrgFaZ1DZfA41m/t4baf58uFP/1wvg8ZNkf3bvjje7n67vUdiB3npsXPMY/5iffERogvH2mFTL/rpV7d4zDa39zneq97XxtpSU6dZM+ntttf8t2pnhndqydp98uq7AgRefffeMDIEEEAAAQQQQAABBBBopsDy1dnygplA5tar+ptHvB0TlzTzUL/e7butefKXl7fI5Wf3EM1+tIMJv/7JMHnYZFpqgKdP92iPWZl+feEug1/06X6r3IBmpZ45IlF0EixPzTX7eUdGw1nQtd7qwcOlJmjaUTode/Rf+9FAnt3c669qgEyzjV1bV/Oov2YzatO6rBoM99T0XnXs0E40eHzUTAKnmawdoxyZr+772xmvOiu91jm1m874rvVO25n1GsjV7NzrTAas9qXZeTebTEY7c9c+xh9fYzqGy0+v7GcmN+tpsgf3ylJTYkI/256a1rnVDO9Aa3XBWkeA1hGcrQv81gWWHcFc3X/Rp/tkxXeeJ2Fz9dHJ4rLyD0h5ieeJ5Vz39edlrbPq3rSMxbRZ3zqz0t232++1tvASU+7CU1PrgybTurH2o0v61NukfycPMV8QNjaRX72deeP3Ag0/dX5/SVwAAggggAACCCCAAAIIBIuAZr89Z+p6bthRII/eNdqqcxkM165BlzdMjcYlKw/IQ7cMk2H9XFIqDcCA1Fi57eoB8s+F22SKqe0ayE0DkTo7+b03DrEuU7NeKzxkRWo9VLtVVHoO2mnA0moum6MiHcepuf4cr2lmrWvbY2o5emp5JsvOLhlQVFIlXc1TzLEdPf8TPfFY3VYNwLpnfGqmZJV5pny/eXR8f84+2bm/SP54xyjrlONHJgZE4NX2izeTyN1hHg+/5vwUWbB0jyxbld0gS1EzQAOxWaUITBZrS1pMR0ft4MaO0cmkrpzYUy43pTUGj3uisd0CYr0Gpj82wVOttar1sDUTXZv+zuvki39fsLXJ69TyNXZpkiZ3dNuoXwRdPL6721qRX14/SO5/4lvzd0qDTawIMAHPf6sH2EVyOQgggAACCCCAAAIIIBB4AlrHUmsUJptHSGebR5E10y0Y2pGjlTJn/kaT8ScmmzLNZGd6nun+sgk9pMjsO95kgQZ6+9RkPF91boo12dVQU+PWU9OSDHZL7tKw9q8G7OzZzQuO1j2iXVBonjE3Tbd3iY+QXLcJq9xDYVpj1G7vr9jfrMCnfT7N2tUJf1xrReoT0QOPZXAecrkG+xzur99vPWxlxWqAKUBjkCZIHSX3/HCIXGsmKHvlg931JpTTACXNIdDYFwWa0X3NeSkyydRFDpa/N/W/F8+8vs350TjLfCnx4M3DrN9rnVjv87U5ojWYvdn0s3jXDYOdTyK8+3mGVYO7b88Y6WUm2LvCBL01Y58W2AL1v4oL7Gvl6hBAAAEEEEAAAQQQQCBABL5JPyS/+ctauWBcNyvjM1iCB1v2HJHpZuKgPt1j5P/dObLRoKt9m6eayaTs8gP2ukB81fKKL7yzo8lLyzf1Lu1s0bNHdRXXDFg9cOKYrs5arRmmBqPdXCd1mjCyq73aer3y3J4S6zIruq7UCbX0R9uEUYnNqjW8bmu+tb/+MXFM/UD5+NMSnef4at0h5359zaRInoKMqckdraw+3bG41L/ruzovtpGFHqaW7oMm4/upB8fJuGFdrL10ciqaQ0BrxLo2LZuhGcP/+v14uer81KAJuroa2Msrze/SYpfSAZop7+127QUpzqcw8o6UyUtLdstzb293nuaHF/eV+Nims5KdO7PgtwL8jeS3t46BI4AAAggggAACCCAQfAJaS+/F93aa8gI75Le3j5DJE1OCBuH9L/bL//47Xe68fqBV79KuIxo0AMe50HXbDsuaLXmN7qXB2U/XZFvb9RHrR381ypqILTkxSiaZR4HvnDLI2qY1W99bUVfL8esNueZxdkeJgZsu7SvnpiWJTr51+zUD5GdXDfB4vs+OnUezkf/njtOkdw9HkDTa1HQ9Y0QXeeDmoeaz29N57BffH3SeQ4Mxl07obp3jnNFdnePSnbWWsTatVTln+jj5x3+fabI+HZm+mil7lgko/+62EdY++seGHYedy4G80NvUzPytuW6dVO+0AZ4zngP5+hu7Nn28XpsGqKeZUhz6ebnUZMJrrWCamHIVu8Wun9w/JVbGDkvwGos+iTHloj7O/v5l/pulE91t2nVEVq531N3VLwxvu6a/cx8WAlOAUgOBeV+5KgQQQAABBBBAAAEEAk4g39TEnDVvk8nSCrVmOdcJd4Kh6eQvf31li+ij8rPuG2M9Zh0M130i1zj3nZ0yamBn5+RW7n28+uFuq/SCBl410PLnu8e472Imb9pT71F/fexfH0M+N62blUl6/01DGxzjvuIVc54JJggaZ7Jhh/eLl6c8TLDlmo2o2bhvmkmydGIsDajfcZ0jCOza73/e2yHZuaXWKjsQrBmMt0zub35c93Qsa6bui+/vbLghgNcM6hUr+kNzCKSYLwgeMhPtabmRQK19ezL3uqi4ypow69oLUq1ubry4j6ze2PiXNy05169uGCjtjwW49Quhr9fXZavr31PjhnaxAuBnj0ySpQMPyPpt3i1z0JKxsm/rChB4bV1fekcAAQQQQAABBBBAAAEvCGjm3pz5m80kJckydVJwPD6vbDox0wxTx3ZE/04mS3JM0Geq6URSdnMNXNrrtETAfBNs/PHl/awAZk5eXb1V3SevoELumfmtlUWqAVqtg6pNa2EeyC0xgcpd8o3JcHVvfzGB77KKalMGoJvz8Wx9dPjtTzNkSJ84Oeu0rmJnF+qxGtDR8/zcZMWePryLs3asbtOs7a17j8hH3ziyV3WdNj13cWmlXGLqbmoNU206rn05xbL4i0xZ+tUBa53+UVJWLbNf3ChXmjqd/XrE1Auq6TiXfZslry7dE/ClBpwgLHgUuMbUwKU1LaB1VzX7XIOk/Uzt1bShnWXNprrSH/bR545NFv2io7G2bV+RLDeTvWm74PRuMsJ84aJNJ/979o262rK67qCpA63n1RrF2u64dpBMm/Wt9XeDtYI/AkqAwGtA3U4uBgEEEEAAAQQQQACBwBLQzL43P9kn75pJiqb/eIh5jNhM/R4kTR8rf2HRDuuR9oljkoLkqpu+zPQdBfLD//rceiy/vKJ+/Ur7yLeWZ8iizzKsYGRVVV2g1t5+uLBC/vz8BlP7VqSbmWRLH/fNPFgijfWnx2kAVCfm+YcJoKQkdZRyE0yxJ8DSCbSiIrZYwVD7HPpaaCY2m/3iJus8GrCJjQ639tHJt+xas6776/KbyzKsH91Xj9GZ1DXI6qmt+O6g6E+HyDBJMDO0axA5/0i56PXREECgeQL6+7J8VZb5Uq+HdYBmvXoKvOpkWPrTWEvsnGcFXvV392dX1pUPeO2j3Vag1f241z/aa9Uo13IkWgrimvNT5I2P97nvxvsAECDwGgA3kUtAAAEEEEAAAQQQQCAQBYpKKuVJk+VaWl4ls6enic74HgytorJanl24zWRFFspjd4+2An3BcN3NvUatk3i8VmNiso3N6G4fq2Vbsw45Ht231x3vVY/Z5zLxlu6v52pqEis9RjPc9Ke5TYO2+tOcpoHZErcxNec49kHAXwXKTVa33Spclu119qt+waEZ5joJnesx9nb7Vb/wuPCM7laWvJYg6RIfIbmHy02Wu+cvd+zjXF/LKxwT6mkNaC1lom3/wWLRL4I8Na0tO99MtnX3DYOtzZrpTuDVk5T/rwsx3yA3/ArQ/6+LK0AAAQQQQAABBBBAAAE/Fti+r1BmztsoOqO7zjbtafZ2P768RoeeZR53n/FCuqQmR1uPw2s2pjdbyvCrrO7SJt3nzW7pC4FWEViz9Cmr34z0Ra3SP53WCfB3Q50FSw4Bfv+880kg49U7jvSCAAIIIIAAAggggAACXhJY8mWmvPrhHhN4HChnmklhgqWtNJOv/OP1rTL14t5y+dl1M94Hy/VznQgggAACCASaAIHXQLujXA8CCCCAAAIIIIAAAn4qoI9e/n3BFsk0dS0fnzZakrt08NMradmw9VFYnVhp5fqD8odfjJT+KTEt64C9EUAAAQQQQMAnBQi8+uRtYVAIIIAAAggggAACCASXgM5G//jcdBncO1ZmTEtzzjYf6Ap5R8qskgoxpibgnOnjTG1A/okW6Pec60MAAQQQCB4B/qsePPeaK0UAAQQQQAABBBBAwCcFPluTLc+/vUNuvaq/nD+2m0+OsTUG9f3WfHnq5c1y2YQeMuWiXhISEtIap6FPBBBAAAEEEDhFAgReTxE8p0UAAQQQQAABBBBAINgFdMZpDbiu254vj/xqlPQyE0oFQ6upqTWzV++VJSsPyIO3DJPh/ToFw2VzjQgggAACCASdAIHXoLvlXDACCCCAAAIIIIAAAqdeIDuvVGbNS5ekhCiZ6FBtNwAAQABJREFUff9Y6RAZHP80KTxaKU++tEkqTNB5zvQ0iY+NOPU3gxEggAACCCCAQKsIBMf/3bQKHZ0igAACCCCAAAIIIIDAiQh8uzHXTKK1Va7/QapccW7KiXThl8ds3VtoBZvPHpUkN0/uK2GhlBbwyxvJoBEIYIE1S58K4Kvj0hBoewECr21vzhkRQAABBBBAAAEEEAhKgWrziP3Li3fJZ2tz5L9vGyGDesUGjcP7X2TKa0v3yN1TB8m4YV2C5rp95UK1fG7fnjFSWyuya3+RrwzruOOIaB8qqd06SllFjegEdDQEEEAAAf8SIPDqX/eL0SKAAAIIIIAAAggg4JcChwvL5Yn/bJL24aHy5APjJKZjuF9eR0sHXVJWJU+/ukUO5pfJzPvGSFLnqJZ2wf5eEDjPTNp2741DrJ5+/shKOXS43Au9tn4XY4d2kYdMHeBaEzG+47Gvrc9R65+VMwSjQEb6omC8bK4ZgVYXIPDa6sScAAEEEEAAAQQQQACB4BZI31Egs+dvkovHJ8vUSb0lRNMPg6DtzToqj89Nl+F9O8n0aWMkvF1oEFy1b17ilcdKWuTklzYadB3cJ07OGN5F+vSIlj7doyWifZgcOVohe7OKRctjfL4mRyoqa6wLvOjMZJk8MUV0orT/vLdTvtuS3+DC7/nhYBmQGitFJRXy279979w+YkAnueiMZBnSp5N0imkvGpzPyCmWD81kayu+O+jcTxc27Sqwgq76O3P+uG6y4MM99bbzBgEEEEDAtwUIvPr2/WF0CCCAAAIIIIAAAgj4rYBm6b25bJ+8+/l+uf+mITJyYGe/vZaWDvzTNdny77d3yO3XDJCJY5Jaejj7e1FAA6oaSNX2hVtgU9fp4/w/mdxPLp3Qo8GXApEmQ1mzlE835SGmXtRb7p31rQmUVktpebX0MiUAtP3y+oFy1+PfSFWVqWNwrI0bniA/OD3Zercr0xGs1TdTLkqVmy7td2wvx0tcdHvRn+H94qWfKYcw992dzu2HCytk0+4CGdY3Xi40/Wm5Ci2XQEMAAQQQ8A8BAq/+cZ8YJQIIIIAAAggggAACfiVwtKRKnnp5k+jr7OlpkhAX6VfjP9HBakbkswu3ytY9hfLYXaMl5Vhw7kT747iTFzh7VFdnJyu+r59RGmqSkP/37jFW/VfdSTNY120/LDsyiqSouEK6JUTJmaclSufYCPMZjpAOke2swKsGcK+Y2NPUKY6zArNXmYzahZ/ss84TFhYiP7uyv/Ocz5sAvN369nTUNS4urTLZrTlSUFQpZ4wwWbbHAsOamfvBVwckO7fUPsTKgtXAa2J8pGi27PptBc5tLCCAAAII+LYAgVffvj+MDgEEEEAAAQTaWCBl+FVtfEZOh8DJC/habb7tGYUya95G89h2ovz0in6igahgaFm5JTJz7kZJSeogs+4fK1ERYcFw2T5/jeNPc0xmlnmwRPZkHq033itMuQCddEtbQVG5VRJjw/b6gc1/vbVdfmBKA5w/Nkl0gji7/fPN7fLEfWlWluz1F/aWT77NsgKpk8/pIcldOli7fbEuRzburOtvzeY82Z9TIm8t22sFcHWn1z/eY76cGCu9k6MlNDTEKk/gGnhdue6Q/PyagRJmtmnWK4FX+w7wigACCPi+AIFX379HjBABBBBAAAEEEEAAAb8RWLIyU179YI/8cspAGT8i0W/GfbID/WrDIfnH69usR8knn5Nyst1xvJcEunft4My2/sIt2zUuJlx+eHEf60ya6frHZ9fLngP1A7O6UR/t//jrLOvHdVg7TVbsxybYetEZ3a0g+82X9zNlAnbIDRc5+iyrqJa5i+rKBuix2o97q66ulW825FqBV90W3aH+P9MLj1ZatV5H9I+XYf06uR/OewQQQAABHxao/ze6Dw+UoSGAAAIIIIAAAm0pkDbpvrY8HedC4IQE1ix96oSOa42DtOblM69tMZMElcjj00Y7M/5a41y+1KcGzeYv3iUa1Pvdz0fIgBTHo+S+NMZgHkv/Y9msarDfTGDl2gb3jnNmJS9fne0x6Oq6v6flF9/fJRNGdrVKEFxgJr/qbUoGdIxy/DN74Sd7JLeg3NNhDdbFRYc71x0trnQu2wv7zARfGnjVkgft2oXUqydr78MrAggggIDvCTCtpu/dE0aEAAIIIIAAAggggIBfCeiM7A89uVrCw0Nlxr1pQRN0zTtSJr/9+3eyL7tYnnxgHEFXH/zUaiDUbrlH6gdBU7s5ygHodq23eiJNs1Ff+XC3dWhISIg1OZa+yc4rlbeWZzSry3amFMeZps6r3bbuLbQXna/6WdOm59DJvmgIIIAAAv4hQMarf9wnRokAAggggAACCCCAgE8KfL42R54zNTB/Ymq52rO4++RAvTyoddvy5cmXNstlE3qY8gK9rICYl09Bd14Q6GTKCdgtzy37NDWpo71JtP6r3XQCq/t+NMR+63wtq6iR3/xljTVhnHOlWXh/RaZcfnZPayIue/2/F21vdlbqtT9IlU4xEdah6TsPy8F8R5DV7ktfcwsqnG+TEiLrjde5gQUEEEAAAZ8TIPDqc7eEASGAAAIIIIAAAggg4PsClVU1orO1r9ueL4/8apT0MhMDBUOrNQU/3/h4ryz+8oA8ePMwGd6fmpu+fN+jO9QFXvPdMl47uGyrMiUj7BbTsb2zLqy9zn7tFNO+QeDV3ub6GhXRvH9q90uJEZ2YS1tVdY38c+F2a9n9j9xjGa+6PimBjFd3H94jgAACvirQvP8a+OroGRcCCCCAAAIIIIAAAgi0uUBOfqnMnLtRunaOlNn3j7XqW7b5IE7BCYtM7c058zdJeWWNzJmeJvGm3ibNtwUi2juq61WYLwpcg6s66pzcUufgkxOj5HChI6v0+y15MvvFjfpcv7V9wshEUwqg8YnirphYP9tVD9IM8K/NhGvlJku2sdalU4T87rYR0r6dY4wvL9llla3wtH9JWbVztU4ERkMAAQQQ8A8Barz6x31ilAgggAACCCCAAAII+ITAqo258uun1sq5aUnym58OD5qgq9bdnD5ntcns7Whl+BJ09YmP43EHUWYmfdOmwc2oiLB6+2ttYrsN61uXuaxBzhXfHZQVpoyG/qTvLLB3a/AaH9tepk7qba0vKauStVvzrGWdBGvKRY711gq3P6I7tJPf/2KkM3j/4VeZ8uayxmvCdnKZfCuyff3rcOuatwgggAACPiRA4NWHbgZDQQABBBBAAAEEEEDAVwWqTZbdi+/tkmcXbpP/+tlwufLcFF8dqtfH9f4XmfLn5zfIz68dID+9sr+EhToyIb1+Ijr0ukBxaZWzzwSTYeradh+oC7xec77WWa0rS+C6X1PLP5nc1/nlw+sf7ZG/L9hiMqIdwd6rzO+Ip7IAGgD+nztGSq9ujhqzqzfnyj/e2NbUaaRzXN3YXa+pyYPYiAACCCBwygUIvJ7yW8AAEEAAAQQQQAABBBDwbYHDheXyh2e+l537i8wj9uNkcO843x6wl0anGYyz5qXLsm8PyIx7x8jpw+pmnvfSKeimlQXs8gF6Gn2037Vt2X1E1u/It1Z1iGwnD94yzGSgtnfdpcnlwX3i5LyxydY+Wn7j3c/3S56ZBGvRp47M1XCTZXvb1f3r9aHrfnv7CBmQEmut32Am05rxwkYxpYObbK5jP1xU3uS+bEQAAQQQ8B0Barz6zr1gJAgggAACCCCAAAII+JyAPmY9+8VNMunMZOuR6tAgyfbcm3VUZpg6tkP7xsnj09JEA2Y0/xPYc+Coc9AJnSKdy/bCs29sl788NE7ahYXK8H7x8vSvT5d3V+yXXZlFUlxSJb27R8slZ3W3d3e+avnXX1430Pl+3rs7nTVk31y2z/p96RQTYQXrRw+Ol++2HLb2nXbjYOs89oEffZUlIwfF22+t12ozyZa9v70hwSXjda9Lpq69nVcEEEAAAd8UIPDqm/eFUSGAAAIIIIAAAgggcEoFak0KngaQNIvvvh8NkVGDOp/S8bTlyZevzpYXFu2Qn5lsxfPSurXlqTmXlwV2ZtYFXgekxMgn32TVO0PmwRJ57Pn1cvfUwZIQFynRHcLlxov71NvH9Y1dM3bS+O5WUFa3bdpdICvXHXLupvvMX7Jb7r5hsLXu9qsHyt0zvrGyWse5ZU1P//FQ53H2gk4E9tM/fCGuE2oN6uXIMi8qrpDcAjJebSteEUAAAV8X4GtbX79DjA8BBBBAAAEEEEAAgTYWOGoy/R4zNU2/NRNpzZ6eFjRB14rKGnnm9a3yxsd75bG7RhN0bePPXWuc7oAJrB46XGZ1fdZpiaKZqu5Ns0vvmfGtvGcyXfeYTOcqk3Hq2rSm6oq12fLff1/rDHqmDUmwdqmurpXn397huru1rAFeO9u2R9cO0rVzlLW+oKiiwb7uKzSp3HWcyYkdnEHe77Y6SiO4H8N7BBBAAAHfFCDj1TfvC6NCAAEEEEAAAQQQQOCUCOzIKJKZpq7pGSYz7+Fbh1uPYJ+SgbTxSbPzSk1pgXTpYYJcT9w/VnQCJFpgCKxcf0h0oqvY6PYyvH8n2bC9oMGFaXbpc29tt9ZrOY3kxChpb8pLFJVUSu7hhhmmj7+wwfqMlJtgfVVVwwKtWrP1/tmrzMRbYVYJgvIKRzD3l4993eDcx1tx9qi62sIr1+ceb3e2I4AAAgj4kACBVx+6GQwFAQQQQAABBBBAAIFTKfDBVwfkFfOI9B3XDxTNDgyW9vWGQybTdZtMuTBVJk9MCZbLDprr/HxtjhV41Qs+e1RXj4FXV4yamlrJzClxXdVgucbEUYtLqxusd12hwdfj7eO6f2PLE0YlWZs08/a7LXmN7cZ6BBBAAAEfFCDw6oM3hSEhgAACCCCAAAIIINCWAqWmJqU+Yr/PPGb9+LTRktylQ1ue/pSdSx8Tf2nxLlnx/UH5nc40n+qYaf6UDYgTt4rATpPFvXHXYRnWN17Gj0iUZxduEw2c+kPTMgW9k6OtoS5ZmSl25qw/jJ0xIoAAAgiIUOOVTwECCCCAAAIIIIAAAkEssD+nWB56arUpKRAiM+9LC5qga96RMvnd/31nanoWy5wHxhJ0DfDfgTc+3mcmt6qVmI7h0jkuwm+utld3R9C1rKJa3jc1aGkIIIAAAv4lQMarf90vRosAAggggAACCCCAgNcE9BFsrWt5yxX95MLTk73Wr693tH57vsyZv1kuPauH3DCpl5nIyMOMS75+EYyvRQLfbcmX63/9meidrjKZzv7SVpps7CnpuVJtUnT9JUvXX2wZJwIIINAWAgRe20KZcyCAAAIIIIAAAggg0IYC73y6Ty49u6eEm8mBPLXKqhprJvZ12/LlT3eOcs6Y7mnfQFqnGY8LP9kn73+RKQ/cPFRG9I8PpMvjWo4joKUl/LHp7ysNAQQQQMA/BQi8+ud9Y9QIIIAAAggggAACCHgUyM4rlbnv7ZT9B0vkVzcMbrDPwfxSmTlvo3TpFCmzp481s64Hxz8JdHb6J+dvktLyGnPdadI51n8eN29wE1mBAAIIIIAAAn4hEBz/l+UXt4JBIoAAAggggAACCCBw8gJvfLzXeiR56ddZMrRfJzkvrZuz09Wbc+XpV7bKdRekyJXnpTrXB/rCtn2FMssEm886LVFumdxPwkw9WxoCCCCAAAIIINDaAgReW1uY/hFAAAEEEEAAAQQQaCOBQ4fLZNmqbOfZnnl9m/TtESM6M/orS3bL8jXZ8vCtw2VInzjnPoG+sPjLTFnw4R6T/TtQzhieGOiXy/UhgAACCCCAgA8JEHj1oZvBUBBAAAEEEEAAAQQQOBkBrV9aU1NXx7LczIQ+Y266xMdEmCxPkTnTx0lcdPjJnMJvji0tr5a/LdgiWYdKZMa9Y6RbQpTfjJ2BIoAAAggggEBgCBB4DYz7yFUggAACCCCAAAIIBLlA3pEy+fibAw0UMk2t1xDzZP1fHzpdQkOD4xH7fdnF8vgL6TK0b5wJuqY1OslYAyxWIIAAAggggAACXhTwPM2pF09AVwgggAACCCCAAAIIIND6Am8vy5CqRmZt359TIktWNgzKtv6o2v4My1dny+/+/p1MuaiX3D11MEHXtr8FnBEBBBBAAAEEjgmQ8cpHAQEEEEAAAQQQQAABPxcoKKqQD79uOrD670XbZUBqjAxMjfXzq/U8/MqqGnnure2yYUeBPHrXaEnt1tHzjqxFAAEEEEAAAQTaSICM1zaC5jQIIIAAAggggAACCLSWwKJPM6SisqbJ7qtNNuyseRulqKSyyf38cWN2Xqn85i9r5GhplcyePpagqz/eRMaMAAIIIIBAAAoQeA3Am8olIYAAAggggAACCASPQFh4hCz+MrNZF3zocJn85eXNzdrXX3b6Jv2QCbqulQvGdZOHbhkmURFmFjEaAggggAACCCDgAwKUGvCBm8AQEEAAAQQQQAABBBA4UYGk1DFSXlHt8fB2YSHSK7mj9OkRI317mp8e0dK7e7THff1tpWbwvrxkl3z+3UH57e0jAraEgr/dF8aLAAIIIIAAAnUCBF7rLFhCAAEEEEAAAQQQQMCvBELD2kvXXqOtMUdFtDMB1mgruGoHWVOSOkqYCb4GWssvLDdlEzaZ7NZQmWNKC8R0DA+0S+R6EEAAAQQQQCAABAi8BsBN5BIQQAABBBBAAAEEglOgfVSM7Nm4VJYueES6JURJSEjgBVnd7+yGHYdlzvzNcvH4ZJk6qXdQXLO7Ae8RQAABBBBAwD8ECLz6x31ilAgggAACCCCAAAIINBAoO5on+pPcpUODbYG2ora2Vt78ZJ+8u2K/TP/xEDltQOdAu0SuBwEEEEAAAQQCTIDAa4DdUC4HAQQQQAABBBBAAIFAEygqqZQnTZZraXmVzJ6eJglxkYF2iVwPAggggAACCASgAIHXALypXBICCCCAAAIIIIAAAoEisH1focyct1HGn5YoP5ncLyBr1gbKveI6EEAAAQQQQKC+AIHX+h68QwABBBBAAAEEEEAAAR8RWPJlprz64R65c8pAOXNEoo+MimEggAACCCCAAALNEyDw2jwn9kIAAQQQQAABBBBAAIE2Eigtr5a/L9gimYdK5PFpo4Oihm0b0XIaBBBAAAEEEGhDgdA2PBenQgABBBBAAAEEEEAAAQSaFMjILpYHn1wtEe1DZca0NIKuTWqxEQEEEEAAAQR8WYCMV1++O4wNAQQQQAABBBBAAIEgEvhsTbY8//YOufWq/nL+2G5BdOVcKgIIIIAAAggEogCB10C8q1wTAggggAACCCCAAAJ+JFBZVWMFXNdtz5dHfjVKeiVH+9HoGSoCCCCAAAIIIOBZgMCrZxfWIoBAGwqkDL+qDc/GqRDwjkBG+iLvdEQvCCCAQJALZOeVyqx56ZKUECWz7x8rHSL5J0qQfyS4fAQQQAABBAJGgP+rCZhbyYUggAACCCCAAAIIIOBfAt9uzDWTaG2V63+QKlecm+Jfg2e0CCCAAAIIIIDAcQQIvB4HiM0IINB2AmmT7mu7k3EmBE5QYM3Sp07wSA5DAAEEELAFqmtq5eXFu+SztTny37eNkEG9Yu1NvCKAAAIIIIAAAgEjQOA1YG4lF4IAAggggAACCCCAgO8LHC4slyf+s0nah4fKkw+Mk5iO4b4/aEaIAAIIIIAAAgicgACB1xNA4xAEEEAAAQQQQAABBBBouUD6jgKZPX+TXDw+WaZO6i0hISEt74QjEEAAAQQQQAABPxEg8OonN4phIoAAAggggAACCCDgrwK1tbXy5rJ98u7n++X+m4bIyIGd/fVSGDcCCCCAAAIIINBsAQKvzaZiRwQQQAABBBBAAAEEEGipwNGSKnnq5U2ir7Onp0lCXGRLu2B/BBBAAAEEEEDALwUIvPrlbWPQCCCAAAIIIIAAAgj4vsD2jEKZNW+jnDE8UX56RT8JC6O0gO/fNUaIAAIIIIAAAt4SIPDqLUn6QQABBBBAAAEEEEAAAafAkpWZ8uoHe+SXUwbK+BGJzvUsIIAAAggggAACwSJA4DVY7jTXiQACCCCAAAIIIIBAGwiUllfLM69tkYycEnl82mhJ7tKhDc7KKRBAAAEEEEAAAd8TCPW9ITEiBBBAAAEEEEAAAQQQ8EeBjJxieejJ1RIeHioz7k0j6OqPN5ExI4AAAggggIDXBMh49RolHSGAAAIIIIAAAgggELwCn6/Nkefe2i4/MbVcf3B6cvBCcOUIIIAAAggggMAxAQKvfBQQQAABBBBAAAEEEEDghAUqq2rk+bd3yLrt+fLIr0ZJr+ToE+6LAxFAAAEEEEAAgUASIPAaSHeTa0EAAQQQQAABBBBAoA0FcvJLZebcjdK1c6TMvn+sdIjknxdtyM+pEEAAAQQQQMDHBfg/Ix+/QQwPAQQQQAABBBBAAAFfFFi1MVf+tmCrXPeDVLny3BRfHCJjakJgzdKnmtjKJgQQQAABBBDwhgCBV28o0gcCCCCAAAIIIIAAAkEiUF1TKy8v3i2frc2W//rZcBncOy5IrpzLRAABBBBAAAEEWiZA4LVlXuyNAAIIIIAAAggggEDQChwuLJcnXtwk4WGhMmf6OImNDg9aC3+98Iz0Rf46dMaNAAIIIICA3wkQePW7W8aAEUAAAQQQQAABBBBoe4H0nQUy2wRdJ52ZLFMn9ZbQ0JC2HwRnRAABBBBAAAEE/EiAwKsf3SyGigACCCCAAAIIIIBAWwvU1tbKm8v2ybuf75f7fjRERg3q3NZD4HwIIIAAAggggIBfChB49cvbxqARQAABBBBAAAEEEGh9gaMlVfLUy5ukqKRSZk9Pk4S4yNY/KWdAAAEEEEAAAQQCRIDAa4DcSC4DAQQQQAABBBBAAAFvCuzIKJKZ89LljGFd5OFbh0s7U9eVhgACCCCAAAIIINB8AQKvzbdiTwQQQAABBBBAAAEEgkLgg68OyCtLdssd1w+Us05LDIpr5iIRQAABBBBAAAFvCxB49bYo/SGAAAIIIIAAAggg4KcCpeXV8szrW2Vf1lF5fNpoSe7SwU+vhGEjgAACCCCAAAKnXoDnhU79PWAECCCAAAIIIIAAAgiccoH9OcXy0FOrTUmBEJl5XxpB11N+RxgAAggggAACCPi7ABmv/n4HGT8CCCCAAAIIIIAAAicp8PnaHHnure1yyxX95MLTk0+yNw5HAAEEEEAAAQQQUAECr3wOEEAAAQQQQAABBBAIUIF3Pt0nl57dU8LbeX7QrbKqRp5/e4es25Yvf7pzlPTuHh2gElwWAggggAACCCDQ9gKe/w+s7cfBGRFAAAEEEEAAAQQQQMCLAtl5pTL3vZ3yrze3eez1YH6p/NfTa6WgqEJmTx9L0NWjEisRQAABBBBAAIETFyDj9cTtOBIBBBBAAAEEEEAAAZ8VeOPjvVJTI7L06ywZ2q+TnJfWzTnW1Ztz5elXtsp1F6TIleelOtezgAACCCCAAAIIIOA9AQKv3rOkJwQQQAABBBBAAAEEfELg0OEyWbYq2zmWZ17fJn17xEiPrh3klSW7ZfmabHn41uEypE+ccx8WEEAAAQQQQAABBLwrQODVu570hgACCCCAAAIIIIDAKRdY+Mk+k+1a6xxHeUW1zJibLvExERIWJjJn+jiJiw53bmcBAQQQQAABBBBAwPsCBF69b0qPCCCAAAIIIIAAAgicMoG8I2Xy8TcHGpw/82CJhISI/PWh0yU01CzQEEAAAQQQQAABBFpVgMm1WpWXzhFAAAEEEEAAAQQQaFuBt5dlSFV1Xbar69n355TIkpUNg7Ku+7CMAAIIIIAAAggg4B0BMl6949gqveze/f/ZOw/4qKrsj5/03nsPSSCU0Kt0kKKCoChg23V1LeuuLlhW/6ur7iqWta+wq2tdG/aCYqMpRXrvICmQBmmkENLhf8+duTNvJpPJpJBMMr/z+Uzee/fde99938ncZH7v3HMy6euvvxbLxERWBGFOwkXB29ubUlNTaezYsWKZmFgn1kVs165dtHHjRtq+fTtFRETQiBEjaNKkSRQUFNRF7gDDBAEQAAEQAAEQAAH7J1BaUUs/brYurL617FfqGe9HveL97f+GMEIQAAEQAAEQAAEQ6MIEILza8Zv35JNP0htvvGFxhDExMfLcJZdcYvF8exaWlJTQpk2bKDo6mgYPHtziru+991564YUXGrVLTk6m1atXU0JCQqNzKAABEAABEAABEAABEGg5gWU/Z1Ntne6hfVOtG4Q37LPvHKAX7h1Gft6I89oUJ5SDAAiAAAiAAAiAQFsJINRAWwlewPb19fWyd/Zw/fvf/04PPvggzZs3j7y8vCg3N5dmzpxJmzdvvoAj0HX95ZdfymvdeOONLb7WI488YhBdb7jhBnrnnXfoqaeeosDAQEpPT5derw0NDS3uFw1AAARAAARAAARAAARMCVScraPvfsk1LWziqPB0Nf1r6aEmzqIYBEAABEAABEAABECgPQjA47U9KF7gPvr370+PPvqo4So7d+6kiRMnUkVFBS1atIiWL19uOGdPOzU1NbR48WI5pLvvvtsgwHLBsGHDaOrUqcThFNasWSP37WnsGAsIgAAIgAAIgAAIdDUCXwtv15payw+0XV2cKCHKh3rE+FFSrHjF+FJitG9Xu0WMFwRAAARAAARAAAS6FAEIr13q7dINdsiQITR79mx6//33iWOnmltlZSWtXLmS9uzZQ1lZWcRL+lm8ZQ9Z87iwfP7DDz8k7nPMmDH0r3/9i44cOUIpKSm0cOFCeu+992j9+vXyEgUFBbRkyRK5Hx4eLr1vza+tPeb4tKWlpfKa7LGrtSlTplC/fv3owIED9NFHH0F41cLBPgiAAAiAAAiAAAi0kEBlVT19u0Hn7erl4SoEVl8priqRNS7CR/xP5tTCXlEdBEAABEAABEAABECgLQQgvLaFXie2jY2NlVdXibfUUFiIveaaa+jo0aOqyLAdOXIkLV26lJKSkgxlHKqAQxhMmzZNbtmbVtnkyZPpzjvvVId06tQpuuuuu+RxZGRks8IrJ9NiGzp0KPn7N07ewEIvC6+HDmGZmwSFHyAAAiAAAiAAAiDQSgLFZTX0p/mpUmyNDPGSSVlb2RWagQAIgAAIgAAIgAAItBMBCK/tBLKju9mxY4e8ZO/evQ2X5iRYLJaylykn32KP1bi4ONq2bRu9/PLLtGXLFinKbt261dBG7axYsULusucri7As4A4cOJCeffZZYgGV47yGhYXRfffdJ+sp4Ve1t7RlD1m2nj17WjotPXH5RHFxscXzKAQBEAABEAABEAABELCNQHykD/ELBgIgAAIgAAIgAAIgYD8EILzaz3th00jYw/X555+XoQS4AYcPUMZJq1h0DQ4OJhZXo6Oj5an58+fTiBEjiLcswi5btkyGKlDt1HbcuHGyXw8PD1UkhdY333xTCq/s5Xr//fcbzjW3wx6ybJa8Xbncz8+PNxBeJQX8AAEQAAEQAAEQAAEQAAEQAAEQAAEQAAEQ6E4EnLvTzXTXe+EYq7NmzZLerOzJqsTP0aNHS69Wdd/ffvut3L311lsNoqs6N3fuXIOH6aZNm1SxYevj40MffPABaUVXw8lW7pw5c0a2NI8rq7pzdtb9+jU0WE4CoephCwIgAAL+vm709IIh9OJ9w2lAr0AAAQEQAIFOJzB7Yhy99JfhdP/v+nX6WDAAEAABEAABEAABEAAB+yQA4dU+3xeTUbHn6DfffEM//fQTnTx5kkJDQ2nRokW0evVqQ7Is9oTNyMiQ7YYPH27Sng+cnJxo8ODBslzV01aKiIiQYQm0Zc3t//zzz/L6LKBqX7fffrtsGhQUJLdlZWUWu1LxaQMDIaJYBIRCuyPw37+NoncfG0MzxsXY3di6+4DGD4mg3gkB1ENk4HZzxZ+u7v5+4/5sIzB9dLSck3hu0j/LtK0harWZgLOzE101OZ4So3wpPMizzf2hAxAAARAAARAAARAAge5JAKEGusD7On78eHryySfJ3d1deq1yKAFzKy8vp5qaGlkcEBBgfloec3u22tpauW3rDy8vr0aetdwnC8PaLYc/sGQsIrOFh4dbOo0yELA7AhHBXnJMgX7GcBx2N8gOGtCk4ZE0tG+wFEP9fNwoK+8M/Xq8nD5bfZxKK+pMRuHj5UqXjommkWmhFB3mQ25uznSyqIoOZ5XRhz9k0uny5uekycMiZZ8VlbW0+8hpk/5xAAKOSiDQz538fcVLAOAHrETnHRUFhQd70mVjYqh3D3+RXMqfysVccfREOW3aW0Trd+pCH1mCE+TvTjfPSqae4sFOdU0DLXxum6VqjcqG9AmW7PnEOiv9N2qIAhAAARAAARAAARAAAYciAOG1C7zdLEyOGTPG6kjZa5TDBVRWVlJ+fr7FuoWFhbI8Pj7e4vmWFo4cOZKys7ObbMbJuNh2795tsc6+fftkuS2Juix2gEIQaGcCg3sH05iBYVRZ3UBvLzvWzr1fmO7Yy+33s3uSh7szrdl2kg5mWPYwb8+r33h5Ml05yXQeSRWiBb+G9A2hR17ZTUWndQ+CfL1dackDI8hcrFZJYMYMDKc/P7uFikubFl/jRLKYpFhdTOj1uwqoocFxxaX2fB/Rl/0T6IzPd3tQ6ei5NCrMmxb9cSCFBBg9T0MDPYlfoweEU0SwB3226kSjW5syKopuujyF+OFQS22yePjE1nDuPITXlsJDfRAAARAAARAAARBwIAJYr9mN3uykpCR5N1999VWjuyooKKB169bJ8r59+zY6b61AxWLlPlpiU6ZMkdVZnN27d69JU/aCXblypSy76qqrTM7hAAQ6i8CAnkE0ZWQ0zRwb21lDaPF1edn9jHGxctx9kyx7u7e4UysNJgyNMIiuZWdqpYfrko8PU3pOhWwVHepNt83pZeghOMDDILoezCylj1dk0Q8bc6m+4Zysw4LHDZfp5i5DI7OdieKayn7arvOUV8fYgkB3JtDRn+/2YtnRc+kjt/Y3iK47DhfTq58fkXNTXb1unrnhsmTqEeNruD0fLxda9KdBdOe83q0SXbn9sL661T27j5Y08vI3XAg7IAACIAACIAACIAACDk8Awms3+hX47W9/K+9m2bJl9NZbbxnurKKigm688UYZioC9Z2+44QbDOVt2VCgAjjWrBFQV1sBa+6lTp1JISIiscvPNNxOPg62qqopuu+024uRbfn5+dOWVV8py/AABELB/AheP1Ht5Ca/Tp97eR+9/m0GrtuTTQ//eRQUlVfIGBqcGCzHDRe4Xl9bQz9vz6eFXdtGDi3fJ0AKvfnaU/rX0kOFmUxObFox59fTEYTrhNbfwLP16QjePGBpjBwRAwKEJ9BEPnKLEAx+27YeK6fHX9tIPv+TJuemtr40rF8YNNj7ASYz2o7RkXRx6Fk4PZ1kOidQU2IuEp767Ptb0z9ubDmPQVHuUgwAIgAAIgAAIgAAIOA6Blq+tchw2Xe5O77zzTnr99dfp6NGj9Pvf/54effRR4mX8+/fvlyKnq6srvfjii+Tra/T6sOUmhwwZQh4eHlK4HTp0KKWmptLZs2cNybya6sPNzY2eeeYZuvXWW2nHjh3ECbz69etHWVlZVFRUJOI8utGbb75JHCsWBgKdSYA9Ra+5JJGSxJdxNhcXJ3pMLFtlqxcC4xNv7DNZ3u4ikqrMFAm2pl0UI+MKlpTX0CGxxP+TlcfpVLFOfJSNxQ9eAnupSIAzoFcQhYllr66uTnIZ/u4jJfTRikyqqKxXVWXSqH/cMVB+of98zQnatEcXHkRV+L+b0ihMJHFZu+Mkfb02h+6cn0ox4TrBgevMFJ6vfB22n7adEi/r3qGcsGrWhFg6nl9Jn646TvOmJlD/lCDy8nChTBGz9ftfcmmjZgwcC7G/Xqxgr7LDmeXyWvyDYyOu3JJH11+aLO9jSO8Q4rAAlVX19NLSw4Z6aueXPQV07290mcD9vN1UcaNtWkqgwZONBVwYCDgKgZZ+vjkkB3+G05ICxTzjTL9mc3zTQilCaplx+IIJQyNpzKAwmazOV3z+ys/UUX7xWTmvbD9QbKjOHrctmZNaOpcaLqTZeeLOQeTh5kJvfPWr8FL1o7FinByztbisWs6z//smXc4rqskEMY8pW/p9htqV21Wb8+m3M5LlnDayfyi9uzxdlpeIuNI7jxTTik35tFkw+tO8VOqdGGjS1tqBijldJea9LftM52lr7XAOBEAABEAABEAABEDA8QhAeLXj91wlw1Lb5obq6elJ27dvp4ULF9Inn3xCOTk58sWC67Bhw2jx4sU0atQok25Y/GSzdo2oqCh6+eWXacGCBVRdXU0HDhxo1I9Jp5oD9nTlcT3++ON05MgROT6+5vDhw+mRRx6hmTNnampjFwQ6hwCLlwNSTJPWaY89RfzUyqoGw+DmiEzWWuPl9fwaImLEPvjv3ZQvPDPZQgM9aPH9w8nVxXRxAV9PXlOIpAue3UbnRIxANjchyvbtofvyHx3a+IFEnx4BFCAS6XAiK7ahfUIoyN+Y6IvjqKpYqsfzKoXwKqs1+SMqzItS4vzla1T/MJMltyzA8uvFDw4KoVfn0RUlxqRL4EO071jjBFeHNEIshxiwZpyQS1l5pWkyLlXO20n6pFrnz58X42hZuBNtP9gHga5GoKWf7xfuHkbO4qGQsoE9g4lf7A2qjVnNoUAuGR2jqsltWJCLfKjD894L7x80xCxt6ZzU0rnUZBD6g35JuodHT9811OR0bLgP8Ys9XP/8jHHe5Guy8UOezFzd3KgacqiBjNxy4j5DNHMSz9GP/dc0BJJq09yWk3j1FeI220bxAKm27lxzTXAeBEAABEAABEAABEDAgQlAeLXjN/+VV16hf/7zn+Tvz/mKbTNeus9epG+88QYdP36cysvLqXfv3k0KqxxftaysTIqj1q7AoQE4lEF6err0VE1JSbFW3eTcddddR/zi62RkZMjxwMvVBBEOOpnALuF9+r9vjhEvRU3WJ3HiY7Ya8aVaK7qqobIQuGJzHuUVVtHFI6KIk0WxCDp/arzBw5PFRRZdy0Us1BViOf7hLPFZc3eh+dMSKS7CR76G9wsRHlNFqtsWbd8SCcBYPL3uEl2MVI6hunW/rq89RxsLo9Y651irJ4W3LnupRoZ4ShZcf/70RIPwyhnUleUXmXr2crnW21crrKo22q122e8RwcWSccKwi0RiHLZDmWUilEG1pWooA4FuSaCln28WXTkcB8dQjgrxokvHxMgHJbPGx0rv9ZP6z6x6KMJL7NftPEWnhfcnP2RRD5TmXBxvEF5bCrY1c6m1a/A8+8veAsoSgurl4+PkgycWX8cMCqf1YuxsAfp5iecfUb2RnSyqFsIrybmXVxzU11uo1KhV0wUc51rZz2L1AQwEQAAEQAAEQAAEQAAErBGA8GqNTief46RWgYG2L33TDpe90hITE7VFTe7bKuyy5yqHCmitBQQE0ODBg1vbHO1A4IIRKDpdQ1/9lC2/1LPw2iDCC/BxU8ZZrJ95Z79BMOUv30vuH0F+Pu40elAEvSJimNbUnpNL+P/+391SNORjZXlCHHnhnuHyMEYIp601FklZnFTC604R39DauK1d55hYlvzoq7sNInOgPqwAe/Jy6AFeUhvga/RSPVttDJGg+uU6yrxFm6bM19tVCNQJhtOrt1oWL0akhclrc8U1zYRNMHSGHRDoJgRa+vk+kHGaHn99nwz7wQjOCA/QeVMTpfg6eXgkLf0+U5J5RyzV/+C7DDk/KVS7DpdQbIQ3jegXKr33VXlLty2dS631zysBFovEfSpkCnvUP/En3f8QKbG+BuE1SD8vVdY0npO4f5N5ydNVhlWwdt3mzk0SLNmKSqtp/7HS5qrjPAiAAAiAAAiAAAiAgIMTgPDq4L8AuH0QAIGWE/hReJRpvVTLKupoo4gTOF3EfOWEK6EiDmvuqbMyhMDuI6aepyw6llbUGi7q42UUMw2F7bTTNznAJHyA6vaAEAvOVhtFUi7/x2t7DKIrH3OcRxXPNVB48lYJsdhFEzLBiYxLmrk+m9bbjD2Fm7I/iniKLFKzrdt5kg6kWxYvJg3XeZbViuXCvKQXBgIg0DSBp9/ebxBduRZ7vs6dkiCF1+hw4wOe3AJdKBTVE8dx9fJ0EbGndR7l7m7OMk4zL9Nvbwvwc6NeCY1X8bDX7TGzxHk8fiW68jh4nqiubZCeqxxvWpmalxrPSLoavvpEf3w//FCtLdZTjJ0fRrH9LEKwaOe8tvSLtiAAAiAAAiAAAiAAAt2XAITX7vve4s5AAAQuEIFKM9GSL5MlElQp8xZeVcpCgzxozqR4GtY3RCaJ4sRdHWV/v32QIfO29pp/XbJTJqnRlpkLsWUiPIIyV/2YOYaiMm+9mKGOeau9NxW3Vnue96+/LIlG68MHFAqh5/UvfzWvIo8DhUDD8SnZth0obCQUyxP4AQIgYCBg/hkuKauVXq+cvE47J3GD0QPDRHLAaOopYjxzmJGOsouFt+hvZ6Y0utzeYyX0yH/2mJRbmmd5XvIM9pLJw1TlM2fr5P019RBLebyywNzWeKyTtGEGtlv21FfjwhYEQAAEQAAEQAAEQAAEmEDH/bcN3iAAAiDQjQn4CU9Wc+PkWk/dOUQmrVHneIl+jfDa0ibFUue0WxEtpM2WfbLSJDyA6rDeBk+2BgvObuWVRjHWX++xqvrkbZjw9FWmFW5VGQs97IHHxiIue9lWVBrFXFWPt+NFpnIXfaKgn7brYjlqz2MfBECgeQIsuprbvGkJhvAkfI5Dp1SIzzYn7lPJ88zb8HF7zEmFpbVyib55/9YS7Gnr8ljNreJsPYWLZzT+Po3nYK4bJoRaNhZg2+LFyw+Wxol5iS0jp4JyxKoGGAiAAAiAAAiAAAiAAAg0R8Dyf6nNtcJ5EAABEOjOBJoRPS2d9vYwTqfsgcU2ZWS0QYz8cVMuffhDpggzoDv3+bMTTTxEub522aqvhRAElq7L7ZSZCyP3vrBdnWqXbfkZ3di5szQRxmC1SBimtVTNEuKi0hrtKSlY/OGqXrKMQwc88dZeq8LF5OFRsi4nJtt5qMSkLxyAgCMSMP98mzMwnx+8RfgA9jznpFsV+s8uJ5eaOyVRNi2tqBGJAA8RJ+LjuefqKfF0w2XJJt22dU4yj0jCCbFUUiyTC7XhoFTvnR8S4EkRIqmYNskfM+sV5yd7LxQxWdtiQ/sEkxKy12wznfva0i/aggAIgAAIgAAIgAAIdG8Czt379nB3IAACIGA7ASUysKdleLDRe9O8hykjI2UiGlXOYsbYweHykD2yeAk9W5JIAKPs9S9+NYiuIYHsWabOGLfskcWiJFtKvE4sUGfnimRU/sIjzZpF6WMPWqvTlnPpOWeoQi8qD+sTIpYoGxNoiVyAcuky989xGHeKZD3KhvULoYXX9pECEMdY5MRkB9PL1OlG2/goH0qM1rFbJxKINRW2oFFDFIBANybQ3Of7d5ebiqYTxLJ4Fl3ZThbr5qT4SB8Zv5XL1mw7RRyDWs17Wo91Ps/W2jlJ9dncXKq7Stt+7jlinGvGDwkz6eyiAWGGeXPTnkKTcy09mKR/GMRzGM9LMBAAARAAARAAARAAARCwhYDRRcuW2qgDAiAAAt2YQNkZo5fmnMnxtHprPkWHedNakURFa4F+HjK79nsiM3ieSFRzpagbGqgTajfsOkX19brlsBWVRg/RWRNiRbKbPCmoLtCLkNo+1X5+URUlCHEkLTmIrro4ng5klNFEIaBcMjpGVTHZ1tSek+KIl4cLDUoNpqF9dXFRi8WS3qy8MyZ123rAAignueIkYpwc66FbBtC7y9OpSsS8nT89kRKjdGLpln2FhiQ/LKDef2Oawbt3w24dSxZjtXZCxMgtKNGJQxOHRhpO/YQ4igYW2HE8Ai35fM8cH0cBfu60ckseBYuEeDfN6imB8ed2rfA0ZdPOSSPSQoT4mk/soT9vaqL8XMtKZj9aOidxc1vnUrNLtepww+4Cca8pMkzCNdOTxP3U016RQDBJzD236b3suWPzuSRZeMKqB2DhIcYHbeqh1znxDIxDCrBxHFx+2MS262gJab3/ZSF+gAAIgAAIgAAIgAAIgEATBCC8NgEGxSAAAo5H4HBWueGmWejkF3t8/SLERiWmqgocD/HOeb3Vodxy3c9WnzCUbT1QRBeP0C2Z54QylpLKGCrrd77/JYf+cFWqPPrNDFMPNvO66vjI8TIa1CtYii0P3zJQFr//XXq7C6/c8Rdrsg2Jwvr2CKSn7xqqhiG3eUVn6d1v0w1lA3sFmST4miBEVX6Z22erj9P732ZIIWTiMF0cxZyCSkrP1gkf5vVxDAKOQqAln+9xgyOIX1pjwZEfELEVnq4RiQDPyIckseE+tOSBkdqqFvdbMye1ZC61eNEWFHISsS/WnBAPqhJkXOjb9fOntot3lx+jk+KhljL2/H3+7mHq0GT73EJdOXu23vSPX6TIyisaODkX20/bTprUxwEIgAAIgAAIgAAIgAAIWCOAUAPW6OAcCICAQxE4IoTXz4UAqF3aXlvXYFiKy1/E2d4TwqK5NymLGX9dvJM4oZWyLfuK6J1vjknxVpVxcpf1O0/S4axSWWSeLOaHX/Lo4xVZJtm3ORbjf784StsPFcs29WaZr9786hjlFpomeqkWInBz1qDvh+9LLQ1WbdQ5Pq7X3zfvc/zEvy7eRfvST1ONYKOMveZYaH5QMGBvW2WWkmypc9qtSqQ1oGeQFJD53M/wdtUiwr6DErD2+T7HbpnCjmWX02erjpvMG/wg6MufTtCSjw+bkPvn//bToUzd/KNOcHiUT0V7Np6TzmsmhNbMSc3Npeq6lrZqnjWf57iumovMEwS+Jx7asLhaUGIUV3ke53n5P58ekQ+MtNeqqTtnMs9rzxn2NeFgJukfBnFyxK37iwxVsAMCIAACIAACIAACIAACzRFwEv9cN04R21wrnAcBEACBdiQQlzZb9jZ02sJ27LX1XXm4O1OkSNLCAgQvs1VCgLubM7mKzNZnxdJ6Nk7k4icyaecL0bOyyihCml+Zs2FzXQ/RnoVZFg849qKXh7Psy9IszDFTY4RHGosHuXpvtebacOxYDgFQWl5jiCdrPhbzY07AUydCI1jK9s3nmAEvd7ZkPMbYCB95P8qjzlK9lpQtuK43TRoWJYWfWxdtoiLhoWdvtmPFS3JI2fuX2dvQMJ52ImBvcxLflqXPNy+V589ptfiM8jzFIUciQ71krGj+TFqaWxQif183mfyPH+yohyXcnj/ztUKYNLfWzElNzaXmfWuP2bPUTcTNVvOs9hzPv9wnn2vq3tR98bxsqQ9tf7bs89z934dGyaocxuHfHx+xpVmH1sGc1KG4cTEQAAEQAAEQAAEQaBEBhBpoES5UBgEQcAQCLDQeFzFHzY3FiFpj2Fbp/XlK54RqXtXkmAURc2GSBVVrYi07smm9Z7nD5tqweKIEFJMBWDmwJkxYO6cbDxHHZm0vY0FlVH9dkrL9GaV2Kbq2172iHxBoKQFLn28WH7XzCHu5ZubaFtuZ45Saxyrl9k1Za+akpubSpq7B5fwQqK7ecg1+aFVv5SEXt7J0X5Z7s61UhT7h2uZxYm3rAbVAAARAAARAAARAAAQcmQBCDTjyu497BwEQAAE7ItAz3l967PGQEEfRjt4YDAUEHJhAWkqgvHsOY3AwvcyBSeDWQQAEQAAEQAAEQAAEWkPA4T1e4/rrlji3Bh7aOC6B7H1YYuy47z7u/EIROJxZRo+8uksuIT6QbhqD8kJdsyP6rayqp037CmmKPtFaR1wT12hMgIWzDOENOjItVCRx0wTwbFwVJSBgIPDKp0cpItiT8gqN8WMNJ7EDAiAAAiAAAiAAAiAAAs0QcHjhtRk+OA0CIAACINBBBHgZ8d6j3Utw/WZdNn29NoeCA9whvHbQ71FTlymvrKen395PidG+dM30RAiwTYFCuQkBDhNjHirGpAIOQAAEQAAEQAAEQAAEQMAKAQivejhDpy60ggmnQEBHYMfKl4ACBEAABKwSYA9XJbhyFnQ2Fl5h9kEgK+8MBFj7eCswChAAARAAARAAARAAARDo9gQgvHb7txg3CAIgAAIg0BEELAmuHXFdXKN1BCDAto4bWoEACIAACIAACIAACIAACNhOAMKr7axQEwRAAARAAAQaEYDg2ghJlyqwJMB2qRvAYEEABEAABEAABEAABEAABOyWAIRXu31rMDAQAAEQAAF7JgDB1Z7fnZaPTSvABoQlU1lhess7QQsQAAEQAAEQAAEQAAEQAAEQ0BCA8KqBgV0QAAEQAAEQsIWAm5cfLXxuGxWerralOuWcOktX3POTTXVRqXMJsACbMvhyKs49QOfPEzk5de54cHUQAAEQAAEQAAEQAAEQAIGuSwDCa9d97zByEAABEACBTiJQV1VBL903XJ9EK5vOVjdYHUlshDcteWCk1To4eWEJHMuuoPte3N7sRRKjfGjV9x9RWUE6hcT0a7Y+KoAACIAACIAACIAACIAACIBAUwQgvDZFBuUgAAIgAAIgYIWAj5crXTO9B10+Pk4vwOYIAbbeSgucsmcCLLjOv6QHjUoLpfh3nrDnoWJsIAACIAACIAACIAACIAACXYQAhNcu8kZhmCAAAiAAAvZJAAKsfb4vto5KK7g6Ia6ArdhQDwRAAARAAARAAARAAARAwAYCEF5tgGSPVUICPYi/7NtivAS2SMQhdHV1ougwb5MmdfXnRYzCKqoXW0sWKq7j3cx18grOUn3DeXJzdaaoMC/ZTWFJNVXVNF56GyOW27o4O1FFZR2dLq+1dEmUgQAItJHA8LQQ+v3snlRXf44eXLJTfN7ghdlGpDY1hwBrEya7qZQY7UvzpydKD1cIrhf+bXnsjwMpItiLVm3Jo09XnrjwF8QVQAAEQAAEQAAEQAAEQMAOCNim3NnBQDEEUwKP3jaQ4iN9TAubOCooqaLbFm2miUMj6c75vRvVOi+yhxw/WUkf/ZhJm/cWmZxf9KfBFBmiE1NNTmgOXvzgIK3dcYoG9Q6ih24eIM+s23WSXnjvkKYW0aDUIPr77YNk2Zb9hfTUW/tNzuMABLoqAV9vV1p4fV/y9nChM1X19L9v0okfSJjb9Zcl0WDxOTiQUUZvLztmfrrdjoP9PQyfW093lzYLr5OGR9LQvsHUOyGA/HzciJMP/Xq8nD5bfZxKK+pMxs3i46VjommkWK4dHeZDbm7OdLKoig5nldGHP2Q6xAMXSwKsCSQcdCoBRxBc7W1O4jc8IdKXAnzdxdxk+gC4Nb8M4cGedNmYGOrdw5+SYvypvLKWjp4op03if5j1O0812WWQvzvdPCuZeoq5rFo8HOYEeTAQAAEQAAEQAAEQAAEQuJAEILxeSLoXsO+Gc5Y9VC1dsl5ft6kVlOzpkxjlS//3u/700tKD9PN245cW4ZzarJ3T97/9QLH44lNGveIDaPzgSPpuQx4dziyT7V1cnOjWK3vJ/fqGc/TBd5nN9tsdKlQKEW7TvkKaMiKqO9xOi+7hx015QuyPIA8h/HV3S4nzo2F9Qgy3GRLgQfe+0DiJT894P0qJ8xce4ucMde1958bLk+nKSfEmw0wVogW/hvQNoUde2S086mvkeRZ7ljwwggL9PEzq80Mifo0ZGE5/fnYLFZc6hre7VoDleQDWuQT8fVzpgZvSHMLDtTvPSVFi5c4i4T0bEuBp+IUKDfQkfo0eEC68aj3os1WNPWqnjIqimy5PsXm1kKFz7IAACIAACIAACIAACIBAGwhAeG0DvM5s+n8v7yB34UmmrH/PYLr/t7rsy0s+PkzsUaqstq6xyPOXl7ZTrvDI65MkRNIhETRhSKSsfssVPU2EV9XHnl9L6Ll3D6hDk+2Zs7plzMJxlv7z6VF6/u5hMpzAbXN6SvGJy2eNj6WYcJ2Xy+erT9AJ4WHbnY0F16/XZr1NevYAAEAASURBVMuEO8FChHNE4fW9bzNo6feZdMXEOLpsbIxDCLDqdzo51o8mCNGZPcG7svE9KNG17EwtrdySL71XLxWeZnyP0aHedNucXvTkm/vkbfLvuhJdD2aW0r5fS4WHmxtNGRlFri7OUvC4QXj9/mvp4a6MpcVjZwHWEeeAFoO6wA3CxTJ3fjmidZc5id+7R27tbxBddxwupm0HiqToOntCnAx5dMNlybTjUAll5p6Rb7WPlwv99eb+lJYc5IhvPe4ZBEAABEAABEAABECgkwlAeO3kN6C1l6+pPUf8UlYuRBFlFWdrm11azG059uuOgyW0U3xB6dsjkMKCPMnX241CxZZjwmqN69sSJzJLfNH5dn0OzRJfgJJi/KTgsv1gMc2b1kN2x2Lvp6uytF13q32t4Mp82YIDutUttuhmWKx7Z3k6ffVztsMJsCww/rKnoMn4yS0C2UmVLx6peyDTIGI4P/X2PuHBXi5HsmF3Ab38l+FSxBqcGiwEVReqrGoQnqw14sFNPq3edlKKrmrYB9JL6d7f6B4MpSY68AdCAcEWBDqBQHeYk/hhcZR44MO2/VAxLXp9r4FkcVkN3S4eBLGNGxxhEF4To/0MouvuoyXk6e5MvRMDDe2wAwIgAAIgAAIgAAIgAAIXkgCE1wtJt4v0zR6pWflnpPDKQ/YTy4WLTrd+8EtFHMcxg8KkR8pvhPg0akAYeYnYlxxL9t+fHO7SQlRTVCwJrk3VdcRyRxJgS8priGOs8oMM9vT+Yk22TW85L9O/+uIEEXvQT8ZC5HAiJ05V0sH0MrFs9rhMlGXeEYfwmDc1UcZPjhfxE4tKq2nPkRLiMTRlgX5uNH9aIvUSoQI42R6/Nxm5FeKBSS6xQKqMYyH213uIsVeZEl35PMdGXCkS5Fx/abL0MBvSO4TW7yoQ4mu9CFfS2JuVBWglvPqJhzswEACBjiPQ2jmJRzhCJOobLzzfe0T5ESf1LBAPZU+c5AesuXRIxKq2ZKmJ/jRbrHToFe8v/va70uHjZSL0UI6lqoYyXnkzbki4eGDrK4RRV3mNA2Lu+2RlFmlX7UwQ9ZQt/T5D7crtqs359NsZyfL/jZH9Q+ld8dCPrUQk8tx5pJhWbMoXcewL6U/zUiG8SjL4AQIgAAIgAAIgAAIg0BEEILx2BGU7v4abqzP1S9J5f7DnLCfOMbc+4ovUH67WeZJoz9WLrOmcSKheeMQpY1Hmja+O0QM3ppG/SKQxVIgybCs259HBJr6oqbZdbQvBtWXvmCMIsO9/lyG+2PeW4TaunpIol+c35y2eLGLEPnhzmmH5rKLaX3x+WPzkBxkcS7WkzOjZzp/bf9wxUHqrq/pxET7Er6asl/gcPySW3HKCG2VeHl4yEdeotDB69fOjQpzIk6eiQr1IZXrfd6zxk5hDeu9XrswhBqwZJ+RSVl5pmoxLlWMLAiBwYQi0Zk7ikdwxtxdNvyjGZFDxYn7h1+j+4fTet+n05U+mD5ZY8LxPeLfz/KSM/wcYIjzj1XyiytV2wXW9adIw0zjofcQqHH6NEEn6OLSSWkGiQhbx314VSkD1Uyf+H8nILRf/zwSJudQ4J+UXnqXH/mv0jFX1sQUBEAABEAABEAABEACBjiAA4bUjKNvhNdiDJV9kGk9N8KcR/ULI21P3q7BReIOwB6y5+fm40yWjTb+AqTofC48Uc2Fp055C2pd+2uAxx1+S3hECbXcxCK5teyfNBVhnZ1c6d04XK7htPXd+6+xTZ2mleMjAnxf+XF0jwmy8/uWvTQ6Mk979+do+BtGVl8JuFJ8f9hLnWKqRIV4UG+4jvEuTaPFHRm/SySMiDaIre7SxN1dooLuI2RxpEv9ZXZivw4Iwi67sfc7hH3YJLzAWajkmIl/vdyKR1kbhncpxmwP9jOIszxXmdqrYWKYVVs3r8TEv+1V2JMuyl5w6jy0IgED7EmjpnMRXHz0o3CC6VomHqV/+dJyKxYOf3uLhzdSR0eQsMm/yvLFpX5GM+8xt2AOfY7sr0XXj3gI6kX+WRgkxNjHal6s0Mr6OEl1zCipp6Q9ZVFVdJ8IVxROHMeGkfFdOThAJOXXerQH6eYnnH0v/q5wsqhbCKwmvWRdydXXqlitsGkFEAQiAAAiAAAiAAAiAgF0TgPBq12/PhRscL2k2t1Vi6bBammd+7mx1Pe08XGJeLL7UNBB/KbNk7hqPFyILaq6lRl2gzN3TjxY+t40KzeLgNjX0HCHEXXHPT02dduhyJcD2HnUNHd32ebdh8eGPmSK5VqQUM1mAXS6W2eYXGoVK7Y1eNDBchBbQealy5vtn/rffICj8vOMkvXTvcAoSoQsmDYuU8XLLz+g8RmeMi5XdcPzVv7+6x5Cwbu3OU/TQ7wdI4UF7nZH9wwzX+WTlcfpQhARh23u0VAjELjJsAAvF7GG2ZutJmRRLtefPv7lpP/feQrRtyjiEwvypxvlmtegbBgIg0LEEWjIn8ciunZ4oB3hOhDx56N87KSNHtxJmtUiwx3/7rrskSQqtl4t5SD1YGinmjpAAT9lu/c6T9Pz7h+T+Z6uy6P7fpYmHvKHyWPuDw56w8cPMvy7eaXiIy4n53ls0Ts6hE8WDYiW8BolkfbJ+TeM5ictN5iUxn6n5UjbCDxAAARAAARAAARAAARDoBAIQXjsBuj1c8rTwkOPwAByHUpmX+JKilvOpMrXdL2I/PvfuAXXY7JazmKeKGJLKfLzchHdMEr32RdOef6quvW9rqyvopfuG0zfrsunrtdlNMlP3ERvhTUseGKkOHWZ7/UMbxJdpnUjY1E2z9+UVIhbgwoVLuo3HK99rWUWdiO2aJcVM9gK7cWYyPf32fosYUmL9DOUfr8gyiK6qHxYqr56SID3MosO8pJDA3qsxIj4r2y7hIXviZKXc5x8sWLCoetOsFEMZ7/TQeJwdETEXe4hYispKxXiVsYctm4uLcamwE4kLmpnW26ymzpjoz6wa/VHEU2SPebZ1QozRxpE1r4tjEACBC0OgJXOSh0g+pUKWbDtYZBBd1ciWr8sR8agTpWd9jPj7poz/1in7am2O2pX/a/D8997jY0UiPuO/nTw3xobr2mTlVwiPfU/xMjSj7FNnRJzYAFHmQa6iLv/PoualxjOSrp2vSPTHxmEH+KEUDARAAARAAARAAARAAAQ6m4DxP+DOHgmu36EEHtV7yEUIkeXP16bKmGhjhOfdliFFQhw51aaxBIjkPTfNSpZ9sEdjbsFZ6itiyLLn30rhLWMel61NF+ukxvzl8ZrpPejy8XF6ATZHCLCWPXA6aYidflkWB5syJbheNjaGPMSS0D93kzAD2vtd9nOO/J1nD7BRwtuUE85YMhZT2eobztFxC/GVMzVlKjYrxy90EUt92dKzK+RW+6O6trEXelSo8SHLI7cO1FY32efkemzsgabMWy9mqGPesmiijL3iLNn14mHL6AHh8hR7ySnPOEt1UQYCIHBhCdg6J6mHLzyaY9nljQbFD2gLTlfJECjakCTaB7nmf+d5juA5TmvhwV6GeYzjsr4ovPstGceG9RHzEovHZ87WyRAu/DDXkimPVw53oE3KZakuykAABEAABEAABEAABECgIwgYXZo64mq4ht0R4Dhpz717kGrqdELN9Zf1kJ51bRnoLVekCK8W3Zeit5Ydo5dFXEr+wsUx4ThZR3cyJcC+/vBFQohNNMTK7U732J73wsIhe3++9rdRIm5fvBRd27N/e+qLv/S//51uOT+Pi+/bknnql+mzN5fWi1TV5diryjg2K5uHpsxczFB1zbcscCvLyj8jk+hxIj3ti0XevcdKZbXySmMiL3+9x6pqz1utyMIPWMxt2kXRNFd46rKxiPuP1/YYlhGb18UxCIDAhSfQ0jmJR1RbZ/mhiooLr40i5CVClrCxyNrUwxhZQf+DPWu1pp2LtPs7DhcbQgZUiPjTbP4+lv0GwoSYy8YCLHu9wkAABEAABEAABEAABECgswlY/s+1s0eF63cogdPltcJrk5cOJlCE+NLCSXtWbc5v1RgG9w4WiXQiZVtOrrV2h8579tv1OTR7YrxcNjhlVFSr+2/VoDqgkRJg4QFrGba5h6vlWt2v9OftJ2n2hDiZWIa9vi1ZYUm1LOZkMOwtzl5dWuMYqcrK9PFdyyqMQmdEsNGTVdWz5G2srsN1Hv7PrmZFUG1sxLTkAOLYjlrjxHzKikpr1K7cjhsSQX+4SveQpVaIH0+8tZc41jEMBECgcwnYMicVlermJB5pVKhOyNSOmh+ierjpRNZSzUOX0nLd3MXnQ4M8qOi06bxg9JHX9aadk/h/BFs84tX1eCUBr9jRJvnjea9XnC50S6HmHrRjxz4IgAAIgAAIgAAIgAAIdDQBU3eDjr46rmc3BDhWqVqWx15q/MVJa+zdlpYSaPEV5K+L38jeK3dcrRNb2Avv1U+PGrrg2JUVeg869vzza8JbxdCgi+4oARYesLo30JE8XC39yrKD6ttfH7N0ylB2qsSYdGuqiI2sNWcxQ08dFS2L2IMsr1AnXp4RXl9qSe1wkbDG3c04lfuL5DMs9ppbvvBuV8aJv5qzdJFMp0Is62Ub1idEeLEbPWZ5XOzRysZhDbSJ94b1C6GF1/aRcwjHWHzmnf10ML1M1sUPEACBziVgy5xUUlZr8BYdOyiclFe+Gvn4IeGGWK3ZmvjS2oSTHLpIa7MmxJK/WPGgNfaEVyFNxgwKIw4P0JztOWJM8jl+SJhJ9YsGhBmusWlPock5HIAACIAACIAACIAACIBAZxEwulJ11ghwXbsgwN5tq7bk0WVjY6XX66ThkSYebpyYZ9EfB1sc6zIh2r4tQgpcd0kP4phtbF/+lC1ju6oGHBPu/e8zhTArEu14u9FvZiTTfz45ok53u60SYNkDljPVO6L9ZkYScTZq7RJ3R+Sw5+hp4qWyQ3uHWLz99bsKZbxgV5HM6lqRKZxDDmw7UEy8bJcT0qkkWmu25Zt4qW7aW0CTh0cRi9t/ubEfffRjllx++wfxGWPPdXPbsq9IhDtIkSItvzf8cGSjECdYxOWkOKP6h8pYzJxEj8tY6N24p4CmXxQjk2M9dMsAend5OlWJz/L86YmUGKVLzrVF/H5Xi2W9bIlinrj/xjRD/NcNu3Ue7yzGau1EfiUV6D19teXYBwEQuPAEmpuTWJz9ecdJmjoymnzF3+tFfxxEHDbotPC0758SRL8X4YTYeA5Zvj7XMODNYo753eXJxDFZr780iUpF/WM5FXSpiO8+c1ysoZ52Z624Dv/fEejnQY/ePoDe+OoYsZjLIVb6JQcSC79HjpcTJ/Ri27C7QCYO5GtcMz1JzlUcHiVJzD236b3sud5PYrWB1pKFJ6xaCRAeYlwlkBKv85A9J6ISZIixwkAABEAABEAABEAABECgvQlAeG1vop3UnzaZTnWN5bhm1bW6co4TaSkL+Vc/Z9N08QWJk/aw5wgvLa7St7F2Wyy6cMbhaUKgYWMPvk9XZsl97Y8Vm/NohviCFR/pQ5OGRdKbX/1KNTb0r+2jq+2zADtlhKkXY1e7h9aOd7reI7K17btTu/99nU6DegUbEslo742Xyn4tMoDPETFv+bP3u8tT5Etbhz3Jlv6QqS2SbcYIUYKX/A7vGypfJhXMDjgcwGers8QDkiTZ5g9XpYpwAKlmtUjGZ2bhle2LNdk0rG8I8bLevj0C6em7hprUzys6S+9+m24oG9griNw1XmvsWWvJu/az1cfp/W8zDO2wAwIg0LEErM1JPJKPfsyki0RSQBZeU+L86ck7hzQa4Cfi77x2qT/vc3JO/syzF/7d1/dt1Ma84ENxHZ7H+AFSWnIQvWQhwVaDEHiVsTfuF2tO0FUiNBLPl7dbmMPeXX6MThYZPfz5f47n7x6mujDZPrdQV87e+Tf94xdDLFmTSjgAARAAARAAARAAARAAgTYQgPDaBnj21PTYiQq64p6frA5pvfhCxK+mjD3QrrrvZ5PTC57ZanJs7eDav66zdprOi+9Of25Bf1Y7w0kQsCMC7KWqTCsSqDL24HpfCJQ3CE9vFgtOFRtjKHId9iTNKagUXmI9pMip2vEy3O0Hi+i1L46KJbk6r1J1jpPPPPzKblpwTR+KCfeWxeyBtj+9VMRszqaHbxkoyxqE56qyT1YcF57oVfTbmUmNvGJLK2rol92FpF0uzELKXxfvoruu7S3iM/sb4jpyZvGDmWXCa/2w8GozxqS1lGRLXVu7ZQaOZPw+sue7oz6EsZf3ukA8FMzIPUMj00KlV6a9jOtCjKOtc1JxaS3dJf5e3zE3VT40UuFMZMgT8cDlPfHghL3oze1fHx6W4UfGD4mUXqt8vrismvjBbp8eATR6QDhp56SKynp5nVuv7EkjxPuiYsdyOxZDjxwvo5VbTL1X+dqVVXV0iXhQrFbZ8LhOnKqk7zbk0opNedzcYPygmc+bh1AyVOAdx5qSTG4dByAAAiAAAiAAAiAAAheWgJPwfjR+K7+w17LL3uP6z5bjGjp1oV2OD4OyLwI7Vr4kB5S9b5l9DayLjyYuTf85nNZ1P4ccB1F6k1vx4ubYqPzlv76+6WmXY6lGhnqLsAJ1Ni/H55jJLEDkCOFBeZE3Nx5eyhspEufwSDhZFyfZs2Y89tgIHxkKIa/AsRNl7Vihnwf2W58HWHBlEZw9moMD3GnJAyOtIca5C0zgWHYF3ffidhkS4xoRLsOaAIs5yfhm8BJ9nit4zsgVn301xxhrNN7jNnFivmDRU3nF8hzCfXDoIUv/eXIbjifPcaq5DiffqhPJ+awZ1+U2+SL+NbdxVLN1TnJUPrhvEAABEAABEAABEOhMAvB47Uz6uDYIgEC3IaDinFq7IY4jyJ5X1ow9W9OFQNQSY6+xikrTNs2Nh5NzZQrvP1uNx86xWWHNE9AKrmerdWEbWHiF2QcB9hZ/+u39Ngmw9jHi1o2iuTmAe7VlTmKRNL/QuHTfltFwmxOaxFvqWuae+9q+uA2vvGlJ/GeOT88vGAiAAAiAAAiAAAiAAAjYKwEIr/b6zmBcIAACIAACXYqAJcG1S92Agw3WUQRYB3tbcbsgAAIgAAIgAAIgAAIgYFcEILza1duBwYAACIAACHQ1AhBcu9o7ZjpeSwKsaQ0cgQAIgAAIgAAIgAAIgAAIgEDrCEB4bR03tAIBEAABEHBwAhBcu9cvgFaADQhLprLC9O51g7gbEAABEAABEAABEAABEACBDicA4bXDkeOCIAACIAACXZ2Am5cfLXxuGxWerrbpVnJOnaUr7vnJprqo1LkEWIBNGXw5FecekEmgOOkTDARAAARAAARAAARAAARAAARaQwDCa2uooQ0IgAAIgIBDE6irqqCX7htO36zLpq/XZjebUT02wpuWPDDSoZl19s0fE0nr7ntxe7PDSIzyoVXff0RlBekUEtOv2fqoAAIgAAIgAAIgAAIgAAIgAAJNEYDw2hQZlIMACIAACICAFQI+Xq50zfQedPn4OL0AmyME2HorLXDKngmw4Dr/kh40Ki2U4t95wp6HirGBAAiAAAiAAAiAAAiAAAh0EQIQXvVv1I6VL3WRtwzDBAEQAAEQsCcCEGDt6d1o+Vi0gqsT4gq0HCBagAAIgAAIgAAIgAAIgAAINEkAwmuTaHACBEAABEAABGwnAAHWdlb2UDMx2pfmT0+UHq4QXO3hHcEYQAAEQAAEQAAEQAAEQKD7EXB44TV737Lu967ijkAABEAABDqNgCUBttMGgws3IgDBtRESFIAACIAACIAACIAACIAACFwgAg4vvF4grugWBEAABEDAwQloBdhN+wodnEbn376/jys9cFMaPFw7/63ACEAABEAABEAABEAABEDAYQhAeHWYtxo3CgIg0N4EOBxkUqwfnT9PlJFT0d7dd8v+PNydKT7Sh6prz1H2ycpueY/mN8UC7JQRUebFOO5gAuHBXsSv7m7BAe4UGuRJBcVVVFpR191vt13uLzLUi/x83Cj3VKVIkNfQLn2iExAAARAAARAAARAAARBgAhBe8XsAAiAAAq0kMHFYJC24to9sfevjG6nwdE0re7L/Zo/9cSBFCNFq1ZY8+nTliVYPeFjfUPrLb/sJsfo83f7EZiooqW51X2gIAiBgSoAfBj155xCKDNF9Vpd8fMS0Qjc6Gp4WQr+f3ZPq6s/Rg0t2UkVlfavv7uFbBlBMuLec37ozs1YDQkMQAAEQAAEQAAEQAIFWE4Dw2mp0aAgCIODoBGZNiJMITpVUmYiu00dH04QhEfJccVkNvbXsGJ0ur7WKa2jfYJo9MY5cnZ2ppu4cLf7oEJWUWW9jtcN2PpkQ6UsBvu5C0PFuU88HM0ql6MrJjCYNj6SPf8xqU39oDAIgYCQwvF+IFF255EBGmeEEe13ffUMf8vZwpfpz52j9zgJauTnfcN7SjrubM902pydFh+k+81v2F9Gyn7MtVe2UsmB/D8O9erq7tEl43Z9+WgqvYwZF0BtfHaPqGni9dsqbiouCAAiAAAiAAAiAQDckAOG1G76puCUQAIELT6B3jwDqIbKis23YVWBywclCUExNCDCU1dQ2kDUvKjdXZ1pwTR/yF8Kmsh4xvkJ4LVGH3WbLAvTBzFLqlxQkl99/siJLhmroNjeIGwGBTiQwY1ysvDp7gW7RxBXuGe9Hw/qEGkaWJj5/e46etupxfumYGJoyMtrQxkOIm/YkvBoG1g4768UcPv2iGPLycKHRA8NozdaT7dArugABEAABEAABEAABEAABImdAAAEQAAEQaDmBsYPCDY3W7zYVXg0n9DvjhPert6eLebHheOzgcBPR1XCim+6wyMEWJuJQ9u8Z2E3vErcFAh1LwN/XjfonB8mL7jxcbDVWqbOzE00dZRRVzUfKIQsuGxtjXtxtjw+kl4p4uLpQMVNHIh5zt32jcWMgAAIgAAIgAAIg0AkEILx2AnRcEgRAoOsTuGiAznsst+AsZeWesXpDHm4uNEHEg23KZjiQwMEMNu4ppIZzIiOZMCSdkhjwAwTaTGBkWiixoMqmHm5Y63TqyEhDffN6Q/oEy5jO5uXd9ZgTJG7YXShvr0+PQIoW8V5hIAACIAACIAACIAACINAeBBBqoD0oog8QAAGHIsBfykMCPOU9b7Di7XpCZMiOFAmpOFbi9Iui6fsNuY04pYglwClx/rKc4wym6T3WzCtGiTiLl4rYsQN6BVFYoCe5ujpRkUjmtftICX20IrNRfMMn7hxELPi+8dWv1CPGj8YOCqOkGH8qLqumQyL24/++SafKqsbJaFIT/WWs2V7x/mLZrSsdPl5G323IMR+OyfEIkeRm/NAI6hHlRyGBHlRwuppOnDxD367PldcyqSwOys/UEcd67Z8SRP2S4fFqzgfHINAaAgNSdJ+lWhFmYNuBoia7SM+poORYPwr08yCOCbtlX+O6l43VhSyoErFO8wvPUpKob24iHDVNGBpJY8TcwmFXfL3d5Gc7v/gsfb02h7YfKDZpMl54/s+aEEvH8yvp01XHad7UBDkH8PL+zLwz9P0vufKhjEkjceDi4iTqJtKg1CCKF7Gmi0qraY+Y90rKm05m6OvtSldfnEA9E/yI41Pzgx6ejw+ml9Fn4tocisHcNu4poJn6UA19RSiZPPFQDQYCIAACIAACIAACIAACbSUA4bWtBNEeBEDA4QikaESIHPFlvimrPFtHG7PLaeKwKEqM8qVeQtQ8mlVuUv0yEUeRjYUBTnZjSXgNFWLm4vuHk6uL6SIFzsLNLxZjFzy7jc7pvUi5P46hyvb0XUPlVv2IDfchfvVJCqA/P2PaZmT/ULrvN/2IY84qG9o7hIakBhMnw7Jkd8ztJWMjas/FR/gQv0b3D6f3vk2nL39qnJDnhBBfWHjlBDksItfX6zxgtf1gHwRAwHYCKeJhCVuhePBRU9tYWFQ9rdySJ4TXVHl4yeiYRsJrRIiX/MxzhbU7TlJMhGXvz9vm9CJur7WwIBcZQmRASjC98P5BWrfzlOF0VJiXfMjED5pG9Q8jTviljOcCfr34wUFxTWMbnov+ccdA6iu8UJXFibmFX01ZcpwfPXhzmuHhmKrXX8TQ5lAMLBQ/8sruRskLszVzeaRgAAMBEAABEAABEAABEACB9iBg/HbdHr2hDxAAARBwAAKJ+qRafKtFZU17XfH5FVuMmcOnm8VU9PNxpbGDI7gabT9YRIXCk8uS+fm4SdG1/Ewtfbb6OC16cy89994BUkIBixDsudaUnRfraDfsOUXvf5dOZaIPNhZfx2ji1LJXGWcwV6Lrxr0F9NGPWZQlPNGaEl1Hi/ackIaNPeOW/pBBiz8+TCzssPGy5xsuS6bI0MYiBnvesnHfEcIrGAYCINB6Ah7uzqTEQvXZaqq3POHBuk9417MNEg9twoN13vuqPnvWq8/8Dxt1n2V1TrsNDvCQh7uPltDLHx2if7y2h75Yc8JQZc7F8YZ98x0WXU8WV0nP1/W7jELr/OmJJlUnj4g0iK7s4cpz0ioxv9TWWRaW+fnQn6/tYxBdeWz/+fQIvf31MXk97pznvusvTTK5Dh9UVNYb+o0IMWXSqDIKQAAEQAAEQAAEQAAEQMBGAkZ3AxsboBoIgAAIODqBQD83A4LiUuvCKy9tzSs6S9Gh3kJkDac3xdL/s9UNsj0ncXHXe5fyMtumjJfm/v2/u+lQZpmJJxsLKC/cM1w2ixHeZJaMvWBZDP1pmy5L96HMcnriT4Nl1ZRYX1qv90jj+JAqfML6nSfp+fcPyTqfrcqi+3+XRiP6GTOiq+tcqxdJ+BoP/XsnZeToYt2uFmIze91dd0mSXCZ8uVi++/qXv6pmcltUqhOA+YBFDo6VCwMBEGgdgQDhzanEUg5B0pyt3JQvvT+5DSfZ+uC7DNmEH7xM0SeXOiLCjPCDl6bsHRGuhNvx/KRs1+ESihUesjxf8JzXlB0TKwEefXW3CHeimwsD/XXeqNyGQw/wgxy2Gfql/w0N5+nvr+4RIUx011or5q2Hfj+APN1NkxZeNDBchBbQecNu2ldIz/xvP3H8VrafhffuS/cOpyDhZT9JxNx+Z3m6DI2gO6v7yaJ1lBiDpYdF2nrYBwEQAAEQAAEQAAEQAAFbCcDj1VZSqAcCIAACegIcy1BZSTMer1xv1Wad15g2yRZ7Zqlluuz5tfuIzgNN9avdsrDJ57XLhzmGYWmFUbz08TKOSdv2h425BtGVyzl7d3WtTtQIEmKHMhZLlH0l4jMqqxeCx9Nv728UD5Y97NRy323CW1eJrqrd8nU5Bu8xS0uVi/Qer1yflzbDQAAEWk+A5wNlxWXGeUGVmW837S00fKa1SbbGDQmXsVq5vjVvVz7PD0u0oiuLtv6+biL2tM6bnWNbKw96rq819o5VoiuXa+PBBgphlI3nyBgR25ptl/BcVaIrH+/7tZQ+/CGTd01MGwbm4xVZBtGVK5VV1NHqrboHUOyNH23hYZVawaC8h006xwEIgAAIgAAIgAAIgAAItIKA8T/1VjRGExAAARBwRAIsOrJxEhsWJpuzNcLb9PpLk6X3p0qyxVnDw/VL7H8U4mhzFhrkQXMmxdOwviHSM5VDA9hilXrvWm1dDjfgKa7tqve25XNhQcaltZm5pl5uLPzWN5gu7dUKE+y9Zm7s1Vtwukou6w30Mwq8qp7y+uVj7h8GAiDQegLuIpGesqrqOrXb5JaTS3H8Vk6ipU2yNUOfVOuMiE+9YVdBk+3VidEDw2iaSBzYU8Rt1cZsVeeb2mo//1xHhUDhfVf93BYiQhm4CIGULT27Qm61P9QDJG2ZElN5vjpuwVuXk3gpYy9hczurTzjYYDbfmdfDMQiAAAiAAAiAAAiAAAjYSgDCq62kUA8EQAAE9ASq9ctgOUyAdllsU4BKhafV9kNFNDItzJBkS2UNZwFk1VZjHFhLfXByrafuHGIijp6trhcesA1y2aylNtbKOJGXuXl56oQbFkFtEUI9xXJgZbV1jfvjc96e+j8xFk4HCs84ZebLhVU5tiAAArYR0IqQlgRFS72sFCFB1DzE3vfsvZ+sTxy4Wjws4rnJms2bliDDiag6PK9UVNaSNuyBOtfc1pLO6aGZY8wf/DTVn5qX+IGYCjGgrcvztTKOfW1uAfqHRJ4e+PfYnA2OQQAEQAAEQAAEQAAEWkcA/1m2jhtagQAIODCBSr1XFCMIEaJozqnm45OyyMHCK9tNlydT78QAub9JJLHipC7WbMrIaIPo+uOmXLnElsVcts+fnSg9aa21t+VcabmuP16Cy9615nEizf1rizSJwKIsJM/ifji0AlupPqGXdhwqMQ+XaXlq62AfBEDANgLKU5Nr8+fXFmPP9oycCkoSYisn2fJ0TzE0+3GTLjyKocBsx9XVieZOSZSlpRU19NLSQ7Tn6Gkpdl49JV4m1TNr0uLDMk0olQizBGDcGYciMLfCEl2YA36YEyBicXN4Aa1pQzKUnTE9x/VC9QnDKqsan9P2g30QAAEQAAEQAAEQAAEQsJUAYrzaSgr1QAAEQEBP4HS5MYYie6PaYjsPFRNn5Wbr0yPQkAinuTiKXD9JJMFS9voXv4rYrjpRICSQE+qoM23bcjIsZWNEghqtzZoQK2I3mi7LLRFxJJVH3NhB4aQ8zVS78SJWpFp6nK1PiKPO8VbL7bQQbmAgAAKtJ8BL9ZUHZ0igMWxIcz3+qI8/zUm2eF5i23fsNOU1k+wuXiSwUvFb12w7JWNQKwdSbdiS5q5v7fyZs/WGJFvDRbIujhmrjGPJzp4Qpw4N21MlVYZ9Tl6oNWfRnBOJsbFXPycn1BrPpZx4i03Nsdrz2AcBEAABEAABEAABEACB1hAw/hfbmtZoAwIgAAIOSECb6dtWkeOcWLWrErsoZCdOVdLBjDJ12OS2otLofcUiqLcICzCgVyA9s2AosWdpe9jmfUUG4eb6S5NowtAI4qRYt1zZk26e3bPRJVhk4SzhbJxsbNEfB1HfpACKEglrOObjHXNT5TleIrx8feMYthy/UdnxPGNWdFWGLQiAgO0EOPFeXpFOdAyz8WEQ975+5ymqqdMl21NX+/6Xxp9XdU5ttXPSiLQQ4uR8gcLD9LY5PWn6RTGqWpu3vCKAjcMX/OXGfpQc50eDewfRswuHUlSoMSGgutD6XYWGeNTXXpJEV0yKo5hwb0qJ96NHbhtoSNa1Zlt+o5UGHItaxZTNyG0cU1ZdA1sQAAEQAAEQAAEQAAEQaAkBhBpoCS3UBQEQAAFBIF2TfKqnEAJWizACttgqUe/qi+ON3q42CBzc79YDRXTxCJ331m9nphC/2ttOFVfROiHCTBgaKT3L7r6+b7OX+OjHTLqof5gUXlNEcp0nRRxac/tkZRZx3+aWmqALtcAxIYtK4fFqzgfHINBSAhkiyV1MmDcFC6/NIH930nrmN9UXJ7nauKeAJg3TzS8cNoAfwjRnhadrKCv/jIxZHRvuQ0seGNlck1ad/3ptDo0RHvUctmR431D5stYRzzXcZs7keCmi/u7yFOKX1ti7f+kPmdoiud9TiLPKOAQDDARAAARAAARAAARAAATagwA8XtuDIvoAARBwKAK8DFctzR89IKzRcn+VCIYTvGiNRYE9v56WRZwc6+ftOo9RVUdbv0HTdosQQt755phh2S3X52X+63eepMNZpbK5ecIs1V6NRV2Dt+o69WbJc/714WHiGLJV+uRhXLe4rJreXPYrbdR7nmmvU1xaS3c9s1UKw7V1xkQ8vIw3p6CSnnp7H32y4jh3Y2JRQhxKjNaFT9h1pMTkHA5AAARaR2CXiLHKxmEDRg/UxZNWPanPPB/X15vOSxzPVYUp+GFjfqPkeqp+nVkGrH/+bz8dytTNP+o6PC9+ukr3mee5QvXL5xv07XluUmEJVDt1jo+1Y+XVBQ+/sptyNaEPeE7bfbSEHn9jj2pO2nnp3eXp9PJHh+TcZaggdjiW9Frhpb/wua0ikZgxXIyqwyFTlO0+anpfqhxbEAABEAABEAABEAABEGgpASfxT7Hpf+At7QH1QQAEQKCNBOLSZssehk5b2MaeOq75TbNTDDEGH35lF+371fhFnZf/e3k4SwGTQwxojeMIcqgAXhqsFRhUHRUrtVojfqpzLi5OFBHiJby/nInjpnJ7dS32XNPO5hx/0U0kwOFyc3MV/Xi4O8tz2jaqHo8xLsJHLEE+Z/BW5fiInBHc/DraNpEiyRbXYZGE768pmzs1nq6/NFmeflqIN5v3FjZV1S7Ld6x4SY4re/8yuxwfBtV2Al1xTuLEUe/8Y6xMtndQCKIPLt5lAoLnFv6Xz9Jnk+On8rxgab5Qn31+IGM+n/EFON4qx3Vlb1l+GMPG8wCLodoHMlzOc1+dEH5VfGguU8bnuI2l8XEdPx9XCg/2EskMKw11rN0Tt/HxcqFIEZKAQyMU6BNvcbm58Xz57uNj5biPi7l1gXig1JUMc1JXercwVhAAARAAARAAAUcjgFADjvaO435BAATahQAvy1fJXdhTSiu8ssdnZVVjwZMvzEJnU+f4vCXBlcvZ2FPMPOlNU9diYaOuXtfO/CcLtvVNjI/r8hhPmCXEYsHF2ri5TX5h45AC5tfm4zGDImQxe6DtOlxsqQrKQAAEWkiAk1HtOlpMw/qEUp/EAAoOcDfx7LQ2t7BAWmsMJW1y5eY+++Vn6ohfWtN6zWvLLQm76ry1c1ynorJevExDAFi7J27Dc1Z6tmkbLje3IX2CpejK5bySAAYCIAACIAACIAACIAAC7UUAoQbaiyT6AQEQcCgC/GX+QIZuaS/HOWWvMFjzBDjRTWKULszA9xtzDZ5rzbdEDRAAgeYIfPVTtqwiww2IMCgw2wiM1YdmqK5toB825tnWCLVAAARAAARAAARAAARAwAYCkApsgIQqIAACIGCJwGerTsilu34+bsK7zMNSFZSZEUjQx3ZlgePb9TlmZ3EIAiDQFgL7j5XSkeNlsgsVR7kt/TlK28QYXWItjnfLnsMwEAABEAABEAABEAABEGgvAgg10F4k0Q8IgIDDEdh1uISuvn8tiZCoFuO1OhwQG2544+4Cmru/SMRyPGcxXqQNXaAKCICAFQIP/GsnccxW8/iqVpo4/KkFz24lF7FswVLsWYeHAwAgAAIgAAIgAAIgAAJtIgDhtU340BgEQMDRCXDcVVjLCEDcaBkv1AaBlhKA6NoyYhzH9hz/gIEACIAACIAACIAACIBAOxNAqIF2BoruQAAEQAAEQAAEQAAEQAAEQAAEQAAEQAAEQAAEQADCK34HQAAEQAAEQAAEQAAEQAAEQAAEQAAEQAAEQAAEQKCdCUB4bWeg6A4EQAAEQAAEQAAEQAAEQAAEQAAEQAAEQAAEQAAEILzidwAEQAAEQAAEQAAEQAAEQAAEQAAEQAAEQAAEQAAE2pkAhNd2BoruQAAEQAAEQAAEQAAEQAAEQAAEQAAEQAAEQAAEQADCK34HQAAEQAAEQAAEQAAEQAAEQAAEQAAEQAAEQAAEQKCdCUB4bWeg6A4EQAAEQAAEQAAEQAAEQAAEQAAEQAAEQAAEQAAEILzidwAEQAAEQAAEQAAEQAAEQAAEQAAEQAAEQAAEQAAE2pkAhNd2BoruQAAEQAAEQAAEQAAEQAAEQAAEQAAEQAAEQAAEQADCK34HQAAEQAAEQAAEQAAEQAAEQAAEQAAEQAAEQAAEQKCdCUB4bWeg6A4EQAAEQAAEQAAEQAAEQAAEQAAEQAAEQAAEQAAEILzidwAEQAAEQAAEQAAEQAAEQAAEQAAEQAAEQAAEQAAE2pkAhNd2BoruQAAEQAAEQAAEQAAEQAAEQAAEQAAEQAAEQAAEQADCK34HQAAEQAAEQAAEQAAEQAAEQAAEQAAEQAAEQAAEQKCdCUB4bWeg6A4EQAAEQAAEQAAEQAAEQAAEQAAEQAAEQAAEQAAEILzidwAEQAAEQAAEQAAEQAAEQAAEQAAEQAAEQAAEQAAE2pkAhNd2BoruQAAEQAAEQAAEQAAEQAAEQAAEQAAEQAAEQAAEQADCK34HQAAEQAAEQAAEQAAEQAAEQAAEQAAEQAAEQAAEQKCdCbi2c3/oDgRAAARAAARAAARAAARAoAMJeHoH0gffZdC5c0Tnzp8XW92r4bw4lvvnRLnaF+f0+7fO6UUBvm4dOFJcCgRAAARAAARAAAQciwCEV8d6v3G3IAACIAACIAACIAAC3YxA9dlSOpZdQbuOlNh8Z4NTgyG62kwLFUEABEAABEAABECgdQQQaqB13NAKBEAABEAABEAABEAABOyGwD039KWQQA+bxzN3aqLNdVERBEAABEAABEAABECgdQTg8do6bmgFAiAAAiAAAiAAAiAAAnZDwM/Hje6/MY0eXLKTGjjGgBXrlxRIfZMCrNTAqe5MIC5tdne+PdxbNyWQvX9ZN70z3BYIgEB3JwCP1+7+DuP+QAAEQAAEQAAEQAAEHIJAaoI/3Tw7pdl7nTctodk6qAACIAACIAACIAACINB2AvB4bTtD9AACIAACIAACIAACIAACdkFgxthYOpRRRht2F1gcj4e7C7m7uVg8h0LHIjB02kLHumHcbZcksGPFS11y3Bg0CIAACCgC8HhVJLAFARAAARAAARAAARAAgW5A4E/ze1NsuLfFO7l4RBS9tPQQPfTvXbTv2GmLdVAIAiAAAiAAAiAAAiDQPgTg8do+HNELCIAACIAACIAACIAACNgFAS8PF3rgpjS678UdVFPbYBhTj2hfum1OT2o4l0Lrdp6i/352lLw9XWj+9B40tE+IoR52QAAEQAAEQAAEQAAE2ocAPF7bhyN6AQEQAAEQAAEQAAEQAAG7IRAX4UN/mpdqMp65+tiuLs5ONGlYJL18/wiaNTGe3lueTnc/v4027Suk8+etJ+Yy6RAHIAACIAACIAACIAACVgnA49UqHpwEARAAARAAARAAARAAga5JYPyQCDqUWUbf/5JLsRHedFH/MJMbcRYC7NhB4fK1ZX8hfbryOH3wXQbNm5pIY0Q5C7QwEAABEAABEAABEACB1hOA8Np6dmgJAiAAAiAAAiAAAiAAAnZN4ObZKXQsu5xmjoslJ6emhdSRaWHEr52Hi6UAu/T7TJo7NYEmDI0gVxcskrPrNxmDAwEQAAEQAAEQsFsCEF7t9q3BwEAABEAABEAABEAABECgbQTcXJ3p/0S810A/D5s6GtI7hPh1MKOMPvoxU7yy6MrJ8TR1ZBRxXzAQAAEQAAEQAAEQAAHbCUB4tZ0VaoIACIAACIAACIAACIBAlyMQEuDZ4jH3TQqgx+4YREdPlNMnK7KkF+yVk+Jo2kXR5Onu0uL+0AAEQAAEQAAEQAAEHJEAhFdHfNdxzyAAAiAAAiAAAiAAAiBgA4Fe8f70t1sGUGbeGfpYeL9+vvoEzRofS5eOjSFvT3yVsAEhqoAACIAACIAACDgwAfy35MBvPm4dBOyNwI4VL9nbkDAeEAABEAABEAABQaBHtK8MWZBzqpI+EUm4bn9iM102JoZmChHWz9sNjEAABEAABEAABEAABCwQQKAmC1BQBAIgAAIgAAIgAAIgAAIg0JhAbIQP3XNDX3p24VAqKq2mO57cQu8tT6fSitrGlVECAiAAAiAAAiAAAg5OAB6vDv4LgNsHAXsgkL1/mT0MA2MAARAAARAAARCwkUBkiBfddU0fuuZ0NX2x5gTd+fRWmjQsgq6YHEetiSlr42VRDQRAAARAAARAAAS6FAF4vHaptwuDBQEQAAEQAAEQAAEQAAH7IRAW5Em3X9WLFj8wnJycnWjBM9vplU+P0KmSKvsZJEYCAiAAAiAAAiAAAp1EAMJrJ4HHZUEABEAABEAABEAABECguxAI8vegm2en0CsPjpQxX+97cQe9/OEhyi04211uEfcBAiAAAiAAAiAAAi0mAOG1xcjQAARAAARAAARAAARAAARAwBIBPx83umFGEr364CiKCPaiB5fsouffO0DH889Yqo4yEAABEAABEAABEOjWBBDjtVu/vbg5EAABEAABEAABEAABEOh4Aj5erjR/eiLNmhhHP/ySQ4++uodSE/xp7tRESonz6/gB4YogAAIgAAIgAAIg0AkEILx2AnRcEgRAAARAAARAAARAAAQcgYCXhwtdOTmBZoyLoxWbcumpt/dRQqSPFGD79AhwBAS4RxAAARAAARAAAQcmAOHVgd983DoIgAAIgAAIgAAIgAAIdAQBdzdnmjk+jqaPjqE1207Six8clKEI5k1LoP4pQR0xBFwDBEAABEAABEAABDqcAITXDkeOC4IACIAACIAACIAACICAYxJwc3Wm6RdF05SRUbRu5yl69bOj5OPlRvOFADu0T4hjQsFdgwAIgAAIgAAIdFsCEF677VuLGwMBEAABEAABEAABEAAB+yTg4uxEk4ZF0oQhEbRxbyG9tzydPvgug+ZOS6RRaaHk5ORknwPHqEAABEAABEAABECgBQQgvLYAFqqCAAiAAAiAAAiAAAiAAAi0HwFnIcCOHRROYwaG0dYDRfTpyuO0lAXYqYk0RpSzQAsDARAAARAAARAAga5KAMJrV33nMG4QAAEQAAEQAAEQAAEQ6CYE2MN1ZFqYfO08XCwF2A9/yKSrpyTQhKER5Ori3E3uFLcBAiAAAiAAAiDgSAQgvDrSu417BQEQAAEQAAEQAAEQAAE7JzCkdwjx60B6KX28Ios++jGL5lwcT1NGRBHHiIWBAAiAAAiAAAiAQFchAOG1q7xTGCcIgAAIgAAIgAAIgAAIOBCBfsmB9Ngdg+joiXL6RAiwn6w4TldOiqNpIjmXp7uLA5HArYIACIAACIAACHRVAhBeu+o7h3GDAAiAAAiAAAiAAAiAgAMQ6BXvT3+7ZQBl5p2hj4X36+erT9Cs8bF06dgY8vbE1xkH+BXALYIACIAACIBAlyWAtTpd9q3DwEEABEAABEAABEAABEDAcQj0iPal/7spjRb9aRAdP1lJtz+xmTgO7Jmz9Y4DAXcKAiAAAiAAAiDQpQhAeO1SbxcGCwIgAAIgAAIgAAIgAAKOTSAuwofuuaEvPbNgCBWVVtMfntxM7y1Pp9KKWscGg7sHARAAARAAARCwOwIQXu3uLcGAQAAEQAAEQAAEQAAEQAAEmiMQFepNd13Th168dxidrWmgO5/eSm9++SsVl1U31xTnQQAEQAAEQAAEQKBDCEB47RDMuAgIgAAIgAAIgAAIgAAIgMCFIBAW5Em3X9WLFj8wnJycnWjBM9vplU+P0KmSqgtxOfQJAiAAAiAAAiAAAjYTQDR6m1GhIgiAAAiAAAiAAAiAAAiAgL0SCPL3oJtnp9DVFyfQ12uz6d4XdtCIfiF0lTiOCfe212FjXCAAAiDQ7QhkZmbS119/TefOnZP35uTkRN7e3pSamkpjx44lFxcXu7/nuro6+v7772ndunWUn59PQUFB1KdPH/rNb35D/v7+dj9+DNB+CEB4tZ/3AiMBARAAARAAARAAARAAARBoIwF/Xze6YUYSXTk5npavy6EHl+yiAT0D6eopCZQQ5dvG3tEcBEAABECgOQJPPvkkvfHGGxarxcTEyHOXXHKJxfPtWbh161YqKiqicePGkZ+fn81d79u3j6644grKyMho1Oaxxx6jH374gQYPHtzoHApAwBIBCK+WqKAMBEAABEAABEAABEAABECgSxPw8XKl+dMTadbEOPrhlxx69NU9lJrgT3OnJlJKnO1fwLs0BAweBEAABDqBQH19vbwqe7hee+21VFtbS8eOHaNvvvmGcnNzaebMmbRhwwYaNWrUBR3dVVddRTk5OfT555/TnDlzbL4W12fRdeDAgdLDNTo6mtauXUuvv/46FRQU0C233EI7duywuT9UdGwCEF4d+/3H3YMACIAACIAACIAACHRhAp7egRQc1YfeW55B586fF8s6da+G86TfPyfK1b44p9+/dU4vChCeoY5gXh4uwvs1gWaMi6UVm/Loqbf3UUKkjxRg+/QIcAQEuEcQAAEQ6BQC/fv3p0cffdRw7Z07d9LEiROpoqKCFi1aRMuXLzecs6cdHqMSjdW4WEDmEAn/+c9/iO+D76ElXrSqH2wdjwCEV8d7z3HHIAACIAACIAACIAAC3YRA9dlS8gmIpM/XHLf5jganBjuM6KqF4u7mQjPHx9H00TG0ZttJevGDgxQR7EXzpiVQ/5QgbVXsgwAIgAAIXAACQ4YModmzZ9P7779Pu3btanQFXuL/yy+/0N69e8nV1ZX69etHkydPpp49ezaqy32w9+wdd9xBu3fvln1ypZtuuokqKyvp8OHDVFZWJtuxwJuXlyf32ds2MTFR7jf1g4VXS8Yeuiy8spWWlkJ4tQQJZY0IQHhthAQFIAACIAACIAACIAACINB1CGTu+54mX7mAiktrbBo0L7V3ZHNzdabpF0XTlBFRtG7XKXr1s6Pk4+VG84UAO7RPiCOjwb2DAAiAwAUnEBsbK6+hEm/xASeyevjhh+nZZ581JORSA/Hw8CCOGXvPPfeoIrllj9kjR45QSUkJPffcc4Z2XP/QoUO0evVqQ/23336b+MXm5uZGt99+u+FcS3Y2btwoq/v4+BDHqoWBgC0EILzaQgl1QAAEQAAEQAAEQAAEQMBOCdTXVdP9N6aJJFI7qYFjDFixfkmB1DcJy+sZkYuLE00aFkkThkTQxr2F9O7ydPrguwyaOy2RRqWFEmfhhoEACIAACLQvARUbtXfv3oaOH3/8cfrnP/8pj6+77jq69NJLpbfqO++8Q9u2baN7771XLv2fMWOGoY3aeeaZZ8jd3V3GXa2qqqI+ffrIGLLTpk0j7vfMmTPEfXK8VrbWJPWqqamhJUuW0GuvvSb7WLBgATk7O8t9/ACB5ghAeG2OEM6DAAiAAAiAAAiAAAiAgJ0T4KRRN89Oode/+NXqSHlZPcyUgLOzE40dFE5jBobR1gNF9OnK47RUCLDzhAA7emA4uYjzMBAAARAAgbYRYA/X559/nlauXCk74iX/bKdOnaIXXnhB7j/wwAP09NNPy33+wWEDxo8fLxNZ/e1vfyNLwisLoJwMS/WnGk+fPp0WL14shVdOstWS5Frcx6pVq+jOO+8kFl05QZdKGPbQQw/RY489pi6DLQg0SwDCa7OIUAEEQAAEQAAEQAAEQAAE7J/AjLGxdCijjDbsLrA4WA93F+I4pzDLBNjDdWRamHztPFwsBNgTtPT7TLp6SgJNHBopPWQtt0QpCPx/e3cCH1V1Nn78gUA2spOFACFAwr4vIgKCoIBWRUXcWpe21q0udem/1bdv37bv69LaunS3tVbrruC+oKCgoqwCsu+EACFAAoQlIYQE/uc5kzuZmcxkmQTMJL/z+SRz59577j33e5Mozzz3OQgggIA/gXnz5smUKVNs8FMf/9+9e7fdbdSoUXL33Xfb5c8//9zWZI2MjBQNvHq26Ohoueuuu+SGG26QFStWiGa0RkVFee5ig6O+QVevHYJ8ozVctZSBb9Paslrr9VSc0/dcvG8eAuRGN4/7yFUggAACCCCAAAIIICC3X9VbOqdG+5U419Q0ffLldfKLvy6XVZsP+N2HlS6Bob3byyN3DrGeny/dI7c+vFBmzs+T4+UnIEIAAQQQqKOAZrO+9957MnfuXBt0TU5OFq3NqvVXw8JcHwRu3rzZHi07O1sSE6tPdDhs2DC7/eTJk5KTk1PtzMOHD6+2rrYV48ePt6UCNFvW+dLJvDSz1WnTpk2z2a46UdfGjRvlqaeesnVdc3Nz7QRhOgkYDYG6CJDxWhcl9kEAAQQQQAABBBBAIAQEoiLC5Oc/6C8/fWKpHCurcI+4W8cYuXlqD6k4kS1fLNsj/zATSkVHhslVk7sxoZRbqfpC/6wE6X/bYNmQe0hen7XNfOXKZeMzZJKZnCvSZBDTEGiuApeckyHjz+gQzeGeAABAAElEQVQguwpK5NHn1jTXy+S6TrGAlgnQibG0BmtWVpYkJSVVO+Peva6nNOLj/dcf18mynFZWVuYsNug1LS2t2uRYGgjWibc8m45bv3r06GG/zjnnHBk8eLCUlpba8gijR4/23J1lBPwKEHj1y8JKBBBAAAEEEEAAAQRCUyAjrZ3cfmUvefzFte4LuKKytqvWK/WcUOoFM6HUi5X1TJlQys1VbUFr6P7ypoGyNe+wDb6+8el2mTKus1wwupMJYPNPqmpgjbBi8qiO8r3zu8lR8wHCbSbj2JSHpJ0mAa17fPmELhIXE27qWgJ/mtib5WlSU0397FqCk507d7bXnp+f79fACczqxi5duvjdp74rX3311fp2sfv36tVLhgwZIgsWLPCbfRvUQenU7AX4v4Rmf4u5QAQQQAABBBBAAIGWJjB2aJqsyzkoM7/Kk85p0XLWgBQvAmdCKZ1UatHqAjuh1EsagJ3YVUabdUwo5cXlftO9U6zcbzKKd+wptma3PrTQBl8vHpshMdH808oN1QgLCbHhNvAXZ46l9XdFTjbCUUPzEKlJkfIdE+Tv3S1OuneKk0PFZbJx+yFZsLJQ5pkM9pqaZrbfd30/SU6INMHrk/Lxgjz56KtdNXWRoX2SrL3upBnyNAROpUD37t3t4bdu3SqrVq2SAQMGeJ1uxowZ9r1mqfrLmPXa2eeNlhHQ5hm89dmlXm91gjCnTm1jBYHrNQB2DkkB/u8gJG8bg0YAAQQQQAABBBBAoGaBH16SLZt3HJKLzu5cGbjyv7/3hFK5dkKpKyZmyrhhadImjCkh/KlpVvG91/aV/MISmfFJrq0BO3lkukw5p4vEx3g/quqvP+vE1FUUufGSHhIR3lrmLNkta83EcKHQhvROktGDUqS4tEKefcdVm/JUjjs9JVoe/PEgaR8f6T6NBlH1a9TAVElLijA/g9vd23wXbDkRU7PYaVnmw4Pa2gRTYkBbhQnUEnitTYvtDRWYNGmSaFBV68HeeOON8uGHH4rWgtX27rvv2tqqunzvvffqS72aZtxu375d5syZIzfddJO7r1Nf1r3CZ0FLJEyYMEFuueUWSU9Pt1uPHTsmDzzwgDvTVcsO0BCoiwD/J1UXJfZBAAEEEEAAAQQQQCDEBNq2aW2zM8cMSavTyF0TSg2Vu67pIzqh1G0PL5IPTcYsE0oF5ktPjpY7r+4jT9w33Abibn9kkTzz1ibZd7A0cCe2WAH9+bzQfChw3pkdpW93/7UdmyLVwB6JdswXjXE9Hn2qx/g/Nw1wB12Xrt8nT72xQWZ8muv+vbz2O1nSrVOM32Fotnt9x9kuKkyG93UFvb7ZuF+KDh/3e2xWItBYAjExMfLQQw/ZDwiXLFkiWnpgxIgRtqbqJZdcIkePHrWP99911131PuVZZ51l+0yfPl26desmGoh98cUXaz3Oli1b5De/+Y0dS+/evWXkyJHSsWNHeeKJJ2xfPe4dd9xR63HYAQEVIPDKzwECCCCAAAIIIIAAAs1UQLPk6ls2QINg/2smlPp/N/STZev2yc0PLpR3P98hpR6TdTVTrqAvKyUxUm6d1lP+/PMzpJWpj/mTR7+Wp8wEZnv2Hw36mHREoI/5XdTgvravze/i//1zpS0T8OIHW+Xf71Zl254d4MOVmy/vYWaObyVHj1VNtFeb6lmDUiXcBMW1ffY1ZQZq82K7fwGdkEqb8+p/r6q1muk6c+ZM0RqqOoGWBmA3b94sKSkpcs8999iaqpGRVVnf2tOZCMt5rTpa1dIvfvELcYKvO3bskKKiIht8rdrD/9Lzzz9vM141M3bDhg2yaNEi2b9/vy118Otf/1pmz54tbdrwALl/Pdb6CvCT4ivCewQQQAABBBBAAAEEEJCeXeLkv380UHJ2HZHXPt4mdkKpsWZCqTFMKBXoxyMxLkK0xMO0czNtsPq+x5fKiH7tZdp5mdLRPDJOcwnccVUv6ZRa5aHlMAb2TLQb5y7ZI3NN6QHPltGhnak/nCn9uyeYYEdr2WRKaCxYWVCtVqmWLxg3rIOpU5wi3TrGmLq7beXQkeOSv6/E3I+d8vWafe7Dasbtb24bZIOMb8zZLgtWFLi36YLW8tWA+udLd9u++oHE1ed3le4dXY/qa0Dzf00JAG3lFSfloX+tkgrzWlN76I7BEtE2TP719iaTpRorY8w4tWarZkivM6UWnntvixQfLXcfYpyp1ey0l2dudRbt6ycL8+X6C7MkKiJMzhyQLM+bifI82yhTDmFgtmsG+emzc+Tyc7tKu6ja//k/YbirzIAGaxet8jbxPD7LCNQk8Pe//11+97vfSVycVmmuW5s8ebKsX79eiouLZePGjdKhQwf3Y/7+jrB06VKbDRsfHzhjXksYzJ8/35Yx0NqsGRkZdaoTe+6554p+lZSU2FIFR44ckczMTBsI9jcW1iFQk0Dtf3lr6s02BBBAAAEEEEAAAQQQaNYCGsDSINROM6HU67Nz5RYzoZRO9HORCcLGmsAWrbpAnKnzeu2F3eUyMzP8+1/slPv/tEwGmcCiBmAz0/0/Fl79KM13zbA+7UWD1E5LiI0Q/dKWu6vYBF6dLa7Xx+8ZbmrC6gRbrjaoR5Lol2aDetZZvXlqTzl/VCdnN/uakhhmA6gahHz8xbXumqVt27SSvt0S7D4dk6O8+uibPt3iTb3ecNlmPnjQpoFiJ5BpV5hvnu8jTa3a4qM1Z5b26+4KLv/2zmHOIexr59R2ol+a4XrXo0vsJFi6wQlOazA2J881DqejlgDZmndI9Jjt46ssdbvWzdUPALTlFZTIOyborIHX2ppO4tXXBLe1zV+xV8qOn6itC9sR8Cugk1olJLh+lvzuUMPKdu3a2dICNexiN2k2bV0zajUAq1/1bdHR0aKlBmgINESAwGtD9OiLAAIIIIAAAggggEALEehcOaHU7n1HZfrsbbYGrE4odfG4DBM0cz1W2kIo6nyZmmF41eSuZtKtDJn55U751VMrpFdmnFw5qatkda59kqM6nyjEdvy3mZQqPSVKvnt+dzvytTlFsnh1oV1esfFAtavRoKsGED+anyfp7aPkAhP4b9WqlUwxwf+Zpg7x7kJXSYekygCk1ibVSaEOHCqTAdmJMtUEwLVNPbeLO/Ba7SS1rFi+Yb/JSN0s+li/c+/0vbZjJkBZW9DV9/AnT56Ur1bulW0moHrx2Awb5NXg6+jBqTLPjF1bfOXv1R7zO2d2r9Z2F5aawKtIZHiYyQRuJeXlrp2mndfVTr6lHZ5+c2OtmbjOgXVCPad9ZjJ9aQgggAACDRcg8NpwQ46AAAIIIIAAAs1QYOmsJ5vhVXFJCDRcoIMJfOmEUlcfKJU3zSPad/x2sYwfniaXTshwTwLU8LM0ryPo4+BTTfkBzRKetWCXPPTMKulqMl+vMI/Pa2ZlS2vzlu+1WZlO4FVrCb89d0dAhjVbD8j/Pb1KSitrlR4xGaBXTuxqg68TzuggL8/MsX3/Yx7Vf+nDrZKbX+w+1vL1+0UnmRrRL1k6VtZLdW+sx0LhgWN2jJoFq4FXLStQ05hrOvSJEyflz6+td5dUWJdzSB66fYjtkt05xh14TTSZ09qKj1WVH7ArKr951m6Njmxjyyqkmd/PS02gX9ui1QXyzYbqgezK7tVexhtLbYVFpbJ6c1G17axAAAEEEKi/AIHX+pvRAwEEEEAAAQQQQACBFi+g9S9vubynrb35lgma6YRSWltTswrTkqo/ut3iwQxAuKnveZHJbpxsHoefY+qYPvHSWmt15aRMm5mJkX+B3z672h101T008/UKU7ZBs147plb9rOXtLfE6gNZxjYoMk0LzIYG28LatRdfpY/qN3eJj20pPk83s2zTrdvP2w16rdfyedWzXbCmyk9dp5mpiXFX2eFhYa9uvqsiC12EkJirMrtDrcerL3jQ1216jlgl45m1XRq53L//vepixO4Hpz5bu8Zth678naxFAAAEEahIg8FqTDtsQQAABBBBAoMUJ7Fj9Tou7Zi4YgYYIOBNKaSDsnc92yE+fWCpn9G1vakpmumtUNuT4zbGvBv8mn9VRzhuRLl8s3yN/n75RYtu1sVmcWv+U5i1QUupdO3X/wTLRrFetMayZnp5NJ5WaZGx7ZMTVaTIpz74NWT7XZItef1F2tUOs3Lxf/udvK7zWF/tcj248eKRMIs0HFjp5mNOOlBy319cuyn8tZSfjVX+eNNA6rG+SDO+TbLu/MSdX9u53BZyd49X0Ot6zzMDXlBmoyYptCCCAQH0EvP8rVZ+e7IsAAggggAACCCCAAAIIVArEtvOeUOq//rJcBvZIYEKpGn5CwsJamTINHURnr//KTGakM9Pr7PXTJnaVkf2TbUZnDd1b9CZ/E7tp5rBTvkBxKswj/YeLy2z9VM2ODdRq2BSoS7X1BUVl9hF93w2Hio/7rvL7Xsfq2w6XlEtqkkicCcr7aymVmeUagNWs10kjO7p3G9o7SfplVZWx0HrD2rSGbFpypKwwJQje+HS7Xac/h2ebn0FtW3ceNhPpeWcO2w18QwABBBAISsD/X/CgDkUnBBBAAAEEEEAAAQQQaOkCnhNKffRV1YRSV5hgYnZGy51QqqafC508SidtGmOCYovXFJrJy3LlFVO3VGvAjh6UKrq9ObfaAp++Vx9tygdonVR1OXzEFdjUyaWuMJNKaSs6fEyefHmd6ERdOinVtPO6yLXfybLbnG+ek1XF+Mko9T2n08/96rODTojlTIrl3qeBC0UmC1Zb+/hI0dqtOsmW09SsZ+XvU4GpyaotwpQqcFqvzKqgq7NOXzVDeGB2khwxQV2nDeuTZLOH9f2cJfnOal4RQAABBBpBgMBrIyByCAQQQAABBBBAAAEEEPAW0AmlLpuQKReenWEmlMqTR55dJZkd2plgYtcWOaGUt47/d5qVeWb/FPu1bP0+G4B9+aMcmWbKNpwzrINoZmJtTR8516zZ70/Jrm3XJrM9vZZJr75/cZb8y6Ne6TjzWLwTjN69zxV07GJ+tvSRe21zluzxmlRK6xH7Ns0SLTNZouGmT3YX7w8ENOAdZybR8tecgG2YCfqmJkXW63F+f8erad2KDftlWG9X6YmxQ1PMz4MrQ1X7nDUwxT3GBSsK7GE++HKnbMw95PeQOhmZtvzCEtHJzTbtqNpv/BnpdpvWif3CbKMhgAACCDSeAIHXxrPkSAgggAACCCCAAAIIIOAjoBMaMaGUD0od3g41ATf9Wm0mXnp91jZ59eNtduIyrQvrBBj9HWb2onx529Ta1QzJC0Z38rdLk1h3rOyEaPBTA/SDeyXZ+qQ6sH3mkf1tu454jVF/fuJjw2X2ol2SFBchP5jSw27XrNfPTaaptsMej/SP6N/eZm5qjVQNOE4+y79DfuFR+2FA/6xEU5O4i6zZetAEuNPkfDP5WaB28Mgx96apE7rIp4vzpWNKtHxuJqRq7PblN3vNtWbbkhNXT+5us1RXbi6S7h1j5GYzsZ3T5lbWZF2yep/ol7924ZjOtubtatP/ZZNN7TTNUB9eWVd4+cb9cqgyg9jZzisCCCCAQMMECLw2zI/eCCCAAAIIIIAAAgggUAcB94RSZ5oJpUyw7KkZG00gqK1cZepyMqFUYMD+WQnS/7bBssFkMmoA9vVZuXLZ+Aw7gVSkx6PleoTyihPylplUSdu/3t5kSzv06BJn3zfFbxtyD8rgnkk2mPrLHw2yQ3zxwy3VAq+6QUsx6Jdn04Djrr2ueqQFB47Jtvwj0jU9RjqntpO//PxMz139Ls80pTBuvbyX3Xbdhd6lCPx2MCvXb6vKFNUArX5pAFlr9JaXV6/TGug4dVmvk4i9OWe7nahOM2xvqRyrZ9/n398su00AOdg2ZkiqO5A/dwmTagXrSD8EEEAgkEDVlImB9mA9AggggAACCCCAAAIIINBIAhpA0gml/vyzETJlXGd5wUwode9jS2TBqgJTj7NxA1eNNOQmcZhemXHyy5sGmq8BstZkZt7y4EIzOVKulJRW1eqc+/UeM8GTKyNTHxt/9D9r5LDJ+myq7RlTPiCvwHsip1ITxNR24sQJ+7rZPBI/45Nc0RIKTtNA51tzt8tfXlvvrLKvv3tutazLKfJaV3CgVKab/tp0AivPn7GPvtolr5lgtuextT7sP97cKF+vc2WOajDbs20wgVd112xbp5Udr7C1ZJ33gV71nmjzPaZrXeU2U/7As73wwVYz6dpmU9KgKriq59Yg89+mbzCB2R2euwdcrqi8Dt9zjx/uCmbrz9Hi1YUB+7MBAQQQQCA4gVbmPzxV/8UI7hj0QgABBBBAAAEEEEAAAQSCEtB/jjgTSh0rq7A1YHXmdQ3Q0gIL7NhdbAOK35g6oFpSQB8l/9kfl8pujwmYtLfObq8BW60fqy2j/yX2ddiku+1rU/jWPiFcYtuFS9GhY2ZiLFegWIerk2iVmpIEGrDUkgQdkqNsXVbNcq3pX7FxMW1F67pqEFVLF2jT/hp49QyyOtfe2qQjdTJZshrQzKvMoNUaslERrU1g239QNSK8tXQw5Rz0mFqywAmqOsf096pZ323NJGB6TN/WxtTv1WMGOp/u71xXvglW+zuG7zE93/s7vpaj+McvRtrdtIzDX1/b4NmlSSwvnfWkHceO1e80ifEwCAQQQKC+AgRe6yvG/ggggAACCCCAAAIIIHBKBJwJpYoOl5mZ6DNFJ1FqE8ZDejVh62RJmhH65TcFooFrf+2ayd3kqsld7aamGHj1N2bWnXoB/ZnQnw1t//XXZbJ2y8FTf9J6noHAaz3B2B0BBJqcAP8X0+RuCQNCAAEEEEAAAQQQQKBlCuhkUo/cOVTuuKq3nazotocXycz5eXLc5/Hrlqnj/6rTk6OtV0pChP8dzNpXZ+XICjNxEg0BT4H+2Qn2rZYxaIpBV8+xsowAAgiEqgCTa4XqnWPcCCCAAAIIIIAAAgg0U4F+ZkKp/62cUGr67JonlGqmBPW6rPkrC2Rn5SPy/jrqY/mPvbBWHr9vuL/NrGuhAn+fvlHSkiJlV0FV/dgWSsFlI4AAAqdMgMDrKaPlwAgggAACCCCAAAIIINAQAZ1Q6r9/NFBydh2R1z7eZiY12i5TxnaWC8Z0MvU/+aeMYztjdq6zGPD1UPFxM9nWWpFW5qHHk94TOAXsxIZmLaC1cvWLhkBDBJzyJQ05Bn2btgA1lht2fyg10DA/eiOAAAIIIIAAAggggMApFujWMUbu/0F/efD2wZJrJpW65aGF8spHOXKkpPwUn7npH37JmkIbmK7LSDfmHpTOPc+uy67sgwACCCCAAAKNIMDHxI2AyCEQQAABBBBAAAEEEEDg1AtkpLWTe6/ta2aRd00odevDC2XyyHS5eFyGJMSGn/oBNMEzvG5KMdSnpXQZJIcP7KxPF/ZFAAEEahUYNunuWvdhh9AScCa3C61RN73REnhteveEESGAAAIIIIAAAggggEANAjqh1J1X95GrD5TKm3O2yx2/XSzjh6fJpRMypH18ZA09m9emEydOyn3X9ZOw1q2ktXmWsXUrfW3tsdzKbDPVBex6XW4lPBbcvH4GuBoEEEAAgaYtQOC1ad8fRocAAggggAACCCCAAAIBBFISI+WWy3vKlRMz5a25O+Qnj34towenyNRzu5hJg6IC9Go+q1ubQGqH9s3/OpvPHeNKEEAAAQRamgA1XlvaHed6EUAAAQQQQAABBBBoZgKJcRHyw0uy5W8PnCmx0W3lvseXyp9eWSd5TBzUzO40l4MAAggggEBoCRB4Da37xWgRQAABBBBAAAEEEEAggEBcTFu59sLu8o9fjLQZr//1l+Xy2AtrJDf/SIAerEYAAQQQQAABBE6dAKUGTp0tR0YAAQQQQAABBBBAAIFvQaBdVBu5anJXmXJOhnz01U751VMrpFdmnFwxsatkZ8R+CyPilM1Z4H9/PMgG+j9ZtEumz97enC+Va0MAAQQQqKcAgdd6grE7AggggAACCCCAAAIIhIZAVESYXDYhUy48u7PMWrBLHnl2lWR2aGcDsH26xYfGRTBKL4GY6DZy9/f6SrS5t0eOlstz722RXX5KSnzvO91lSK9EWbP1oDz7zmavYzT2m8wOMRIfE27q7UY3+NCpSZHyndGdpHe3OOneKU4OFZfJxu2HZMHKQpm3bE+Nx4+ODJP7ru8nyQmRohOvfbwgz3zwsKvGPmxEIJQF4mPb1nv4pccq5FjZCdsvtl0bMxlhK69j6O/O4eJyr3X+3mg/7V+XpsfT42qLCG8tkebvl7aSoxVyvNw1FrvC41td9/PowmITFajbT0kTHTzDQgABBBBAAAEEEEAAAQRqEwhvGyYXjc2QyaM6yZwlu+WJl9baDMUrJ2XKgOzE2rqzvQkJaMby8D7t3SNqHx9havp+7X7vLPToEmuym+OkvMJ/UMPZrym9pqdEy4Mme7Z9fKR7WBpE1a9RA1PNz2yEzPgkcEbtVZO7ybDeVTZZncjudkOy0OwEenaNk0fvGlbv65q/cq88+twaSYwLl2d/Pdpv/6MmOLt731H5Yulu+eDLPCk7Xv3vyKXndJbrL8r229935fPvb5Y35+ywq2+/speMHdrBLi9eUygPP7PKd3cTDBZ59O7h9oNC3fjqx9vMV061/VgRGgLUeA2N+8QoEUAAAQQQQAABBBBAoIECbdu0lslndZS/PzBSJozoIE/N2Cg/++MyWbpuXwOPTPdvSyCrc6yMG5b2bZ2+Uc/7PzcNcAddl67fJ0+9sUFmfJrrzoi79jtZ0q1TjN9zdk6LlovGdPa7jZUINEeBNj6ZqnW9xjZhrjBYWJh3pqtnf31aolvHGLnh4mz5y89H+M1sram/57F02XPfN+fukIrK7NcR/ZJlsMnM922a9a5PZ2g7XHJcPjQlc2ihK0DGa+jeO0aOAAIIIIAAAggggAACQQjoP4LHD+8g44amyfyVBfL8+1vkpQ+3yhWTusrI/snSqlXgf5AHcTq6nGKBa01Zga9W7JXyctejvKf4dKfk8H26x0t6sqtUwdfmg4AHn17pPs++g8fklqk97fuzh6RJTl71yeJuvryHDe5opp4GjVpyW72lSPpnJbRkghZx7Tv2FMtLM7dWu9aLTWmZOFP6Q9vnJmN1p08pkq15h6v10YzWFz7cIhrLTYiNkIE9EkU/1NGWmhQld1zVWx759+pq/ZwV63MPytK1gT/A+3rtfmdX2WZ+fz+Yt1OmjMuw6268tIf85PdL3KUIdJLIa87v7t7/36ZUyqEjx93vWQg9AQKvoXfPGDECCCCAAAIIIIAAAgg0goDW6BszOFVGD0oRfeRz+uxcedkEYK80AdhRg1IlLMiMqkYYGoeog8D+Q8ckKS5CUhIjZcrYzu5HeevQVUb0by9jTaZst/RYaZ8QIXsPlMr23RoQyZN1pi6sv9bLPNp8iZmwrWeXOBPcbCMabPnwy5oz0caa4P7ZQ1NNvdYYiQxvY8+xZstBeX32Nq/Hl/VDAKe97BNM+mRhvlx/YZYNqJ45INl+UODsq6+jzM/vwOwku2r67By5/NyuohPMtaR28uRJWbCqwP4OHzhUJs/9xv8j5C3JpCHXWlhUagKQ4eJkhzbkWKeqr9ZN1b/Zvm1gz0QZUBl4fd+UCdiUe8h3l2rvC8z1vve59+/y9Rd1l6mmRrg2zUzVmqtObVjfAyw2P3tOKQHfbf7ev/xRjowenGIz3DPS2pk65J3c57/hoiz37++KTftlrimPQwttgZb11zi07xWjRwABBBBAAAEEEEAAgVMgoBmuZ/ZPsV/LzCPeOjP9yzNzZNp5mXLOsA5ej4megtNzyCAFXjRB8tuv7G0D5NPO6yqzF+XXaVKc267oaUpOdPI6axcT/NCvUQNS5YUPtshb5nFgz6YBz59e10+0XIXTtJ7q0F5JATOkf/Ld3iazOt3Z3b726ZYg+jXCZFbf/6elUlJaYdd3SnVluxabCcN8M1p18p2teYekX/dEE6iJ8DqeBoN+eEm2XZdXUCLvmOCRBl5bStNHtuct3yMzTADOyWxM8jFqKRaNeZ0LVhTIeyYr85rzu5l6pGkt8kOoFz/MsRMzRpga4frfiC7m0f9N26tnywbjrhN8/evtzfLzG/rb7ldP6mayc/dIWvsomXCGq/6rZuH+7fWNwRyePk1MoOq/Gk1sYAwHAQQQQAABBBBAAAEEEDjdAkNNMO2RO4fI7ebRUv2H8K0PL5SZ8/PcdTZP93g4X2CBHXtKZPbCXXaH6Mg2osGL2took+HsBF31sfyXP9oqf35tvQnauo6jWdBaS7VDcpT7UFqa4uapPdxBV52cRye72bbrSMCgq57HCbru3Fssjz6/Rn7zz29k+QbXI8caxLmsMptOTxRvsgu17TET+pjkzWptd2GpXRcZHiZt2lSVwtCAs06+pe3pNzdKRYWfznZr8/qmweiPzb2/zfx+PvnSOnfQVa+STPWG32sNaO/dXyp/fHmd3PXoYvnym73m57Jl/Gw5eieMgX4Q4rSY6LbOYqO8anBbazlr0wz16y7sLrde3tP9N+XVj7favweNcjIO8q0KkPH6rfJzcgQQQAABBBBAAAEEEGiKAlojsv9tg2WDeUz19VnbzFeuXDY+QyaZybk0+EVrGgKvmJm+x5msZK1rev6oTvK+efQ/v+BowMFdM7mr3aZBlV/8dZls3emql/qpyZYtMOUGvmtqK2qgVetEPv3WJrvvmSY7tX28K7g5b9lueezFdXb9jE+2yc++398+hmxXeHy7ypSr0KaBmwf+vMydibtqU5G88ODZdrznmFIHWltYW6Kp66it+FhVoMeuqPymQWKnaZBZaz5qdtylpvSBtkWrC+SbDQecXZrta9nxCpm1YJfoBEX7Te1bf02D57SGCTiTP+lR8kyN1D+YDw5mpLeT75p6yvrYfUto+vuVUFmyQK9Xy5EEagN6JMlBU/rAX9O/Nfohnr76tn++sUn+/LNECW/bWiae2dG9Ocd8qPP2Z95Z9+6NLIScAIHXkLtlDBgBBBBAAAEEEEAAAQROl0CvzDj55U0DzaPeh23w9Y1Pt5tJUTrLBWbWaQ2A0b5dgYOHj5vaitvkexdk2YCp1kf87bP+J8HRx/K1nqK2JWsL3UFX5wre/2KnTDOP6WsQpFOa69F/3dbZY/ltjzqQ5Sa7VM/1wv+Ncddk1P01cNu5snTAtvzDNiM12WOupx17jpg6sfFmfYSpodlK9DhhlTOtBwoZxkS5gv2a6elktd40Ndtm4eojyc+Yx5abcyspLZeZX+XJu8b/4JGyGi+1Nc/11uhTl43+goTb8ovl4WdWSY8usSYrvLsM6umqK1yX44XSPvo72dP83b/ZZJ86QXzNWt/lM0mX5zUNMSVH9CtQW2vqRms2u2/Tda+busyaZe80tf+LycI/ccJZw2uoC/B/CqF+Bxk/AggggAACCCCAAAIInHKB7p1i5f4f9BedSVsndLn1oYU2+Hrx2AyJieafVaf8BtRwgnc+22mzXTUrdeSAFNFJsPy1DiaDzWmbd1SfcEfrre49cNQETdvZiYWcfXXyLqf51l/VIEl5hXeERGdBdx5317qsT9x3htPd61XrRrYzPzsaPD5SctwG8ttF+X+c2cl41RqzGmgd1jdJhvdxZR6+MSfXPhbudfBm9KZtVKyd9V0zkuvSCswj8nf/frENmmngrLWJxOr90ICsvrqW9b0uu9a5ll3rPJedfe2ruV9hJv6t980exwToWtt1zrFbVx5T99NtYt9XP54zDtf+ut13bF7ndcbYylyHOa45pQ3Y237mjb42dvPMePU9ttY5/dVTK0zN4QS51jwe3xxap5Roeemhs62tZs/rPXbaATOJ359fXe+3BIizT22vNZVpmGUmz/MMvObuLpYtOxqnlmxt42L76RHg/xBOjzNnQQABBBBAAAEEEEAAgWYgoBmT917bV/ILS2TGJyYAa2pMTh6ZLlPO6SLxlY+LN4PLDKlL0ECkToTzk2v62HFr1muZyQz1bZEmoOK0suPVH/vVbe4sZo/NUZGufhpk9ZcJ6BzTedXMWs+mtWD9tX0moKMlA7QdLimXVJMwF9fO/z/RU0wwV5sGYDXrddLIqseSh/ZOkn5Z8Xa7ftN6kdpGmzqzacmRssKUINBM7VBtx48elsfvHW4ym7fLB6aUhN7vmlpKUqT85Ht97b3SAKJz3zSDsMJ8c9bpq8bMne3e67Wf2WZ20O12m/mZ0GxjXdZ7UHrM7GPqntp1ZpvrOK7j6zqzm9e5vM/juU3P4epffQweY3TOZQ7sjEkDelp6VQO3rgCvE2R2BYc9g7ruILGJKTqBYxtEtkFip59r224/2Zm+5mu2FtkyGtlDLpVdW+b7bg65987vjefANdP6LhPEPxygjICzr9aI1oxsf01/FrRebqD2XTOBmWfr1jFG+nSPl3UmS5bWPAT8/1VvHtfGVSCAAAIIIIAAAggggAACp0QgPTla7ry6j1xtsvA0qHX7I4vMZEppcumEDHc90FNyYg7qV+Czr3fLJeMypKsJWvQ1mXj+WmFRVfAj3WPyLGdfDVLpDObaijweZy865AqO6vbkxAgpPOBdW7QqN851JM24dNoHZmZ4p1ass87fq3M+zdrV2pKejyVr8l3PjFjbraDyGiI86gz3yqwKunoeW4PIA7OTTDat/9qTnvs29eXYdm3lhouzbJmP6Z9sN3Ve82yJBn/j1hrMGrxqKU2Dr66gcmWA2CMwq4FmZ5vu5wSObVDYBodd6+w2j35a8zi/sPqj8b6mmoFbduyIlB+v+pn33ScU3mvA+xMTPNUyIwOyE90T1unv0PXmg5y/vrahxsvILyipVrqkxg6VGzU7f7KpG+7bbp3WS+75w2J773y38T70BAi8ht49Y8QIIIAAAggggAACCCDQRAT0MfRbp/WUKydlyttmwp+fPPq1jBmSamasz5C0yizFJjLUZj0Mzfp79t3N8ptbBwe8zv0Hy2ymoj6uP8Zkgz733haTtVg1adXYoanubNEd5nFfp3k+4j56UKq84zHpjdb7jfOYgEf76IRa+qUZdKMHp9jzaIZkTW3Fhv0yrHd7u8vYoSmmnEVVhupZA1Pc59CZ0LVp5udGM/Gbv3blxK52tWZlz1u+Vzb5Kavgr18orEuMi5Cbp/awE929Zia9m7Mkv1pwSrM5W1JzZa2aTFUTBG2sttpMAldT09+hiSbreqr5OzdkzBM17RoS2zTD9+/TN7rHOmpQivz0un42i1gnvfpi2R7RifEas+n9uv3K3u6yBu99scOWb+jeOVYyO7STi8d2Nn9rdjbmKTnWtyTg/QzEtzQITosAAggggAACCCCAAAIIhLJAkgkI/fCSbPnbA2dKjAm43ff4UvnTK+tkl8mEop0egRUbD8jS9fsCnkyDs58t3W23x0S3lQd/PNhkx8ZLekqUTDJZZ7dd0ctu05qt78+remx44apC8zi36Wza9y7oLuOGpdnJt350WQ9zz3vY9b7fPq88T0JshPzqloHStVOMDYxpPeAzByTLfdf1lYtMYMVpX36z132Oqyd3N/WDO9pznG2C+M64dN+5JrNX25LV++TlmTl+vzToq2315iK7Xfdtbk0/8Ljjqt7y1/vPlLFD02xtTucaW1jc1bnsRn3VDFB/TTOtLxvfRZ7+5UgbAE9OqKp/7G//UF0333zA8aFH6QAtX9LYTYPWXUyAVdu+g6Xykvl9/tfbm9yn0b8DiXHh7vcshK4AGa+he+8YOQIIIIAAAggggAACCDQxgThT51UnnLlsQhd5/4udcv+flpnZvxNl2nmZkpnech5//rZuy3PvbpHBZrb1QFmPr36cI2eZCbg08JqdEScP3zG02lBfn73N61F/fexfM97GDetgH0W+x9QPra29Ys6jNVbjTTZs/6xEedLPBFsVHpNyaTau1jC9/NxMO/ZbLncFgT3P8/z7m2V3HR7/9uzT3Je15IfWXNbfr5dnbhUNkofpjFm0Bgn4Bl41e/uiszvbDwtize9OS2ivzcqRc0eki062pX8rhvdrL1+vaZwPMdLNZF5XTOzmZnz6rc02+36tqes6f+VeGTUw1Z73xsuy5Q//Wevej4XQFOAvUmjeN0aNAAIIIIAAAggggAACTVhAAxVXTe4q//jvs2y9SZ0F/JF/r5ItO5mtuiG3rdzUpXSaZ+DSWaclAl78YIud1EjX7dnnXXtyX1GZ3PnoYlm8ptBrkiadrGjn3mJ55NlV8vqsXOdw7tc/vrJePjZ1RXVyK6dpltoz72yygRJd5xms0sl49Dzzlu+RY8er+tj9zDWsNRMTzV7kyl51jvfCB1tFg6t791fV1tRxbcs/In+bvsEEZnc4u9b46rho5m5LaZo5eP8PBshjZhKuIb3MLGW0Bgnoz502/eDgOvNB0tO/PEuuMZNAtZSgq167/g57Tph1zeSqQKlub0j78ZU9JdyUa9CmWfoLV7pKiOh7/fDIKU0yZlCaDOzpv2a17ksLDQEyXkPjPjFKBBBAAAEEEEAAAQQQCEEBzZaaarIY9bHyWQt2yUPPrJKuJvP1iomZ0qeb/0mRQvAyT9uQ9fH5qx/4wj6Wf6zMf2DxLVNr953Pd9j6jOXlVYFaZ5AHDpXJw+Y+6KRVHcwkW3qP8vaWSKDjaT8NRGkNyKdmbJSMtHYmmHrCnRWrE2hFRayXklLvAOuhI8flsRfW2vPoo/GaDa376ORbTmDFGZPzqsFV/dJ9tY9O2uN7XGffQK8//M18iQhvXe9+gY4XSuuzTH1M/aI1TCAhNlxuNKVTJo/qaLK8XRPONeyIodlb667q324NkurP1bC+SbJ07f5qFzNueLr9fa22oXLFxu2HZe4S1wctE0Z0kAEmC15bmfk78g/zN8Wz7TV/H/S8Uydk2tW3TO0ld/1+sZ0YzXM/lkNHgMBr6NwrRooAAggggAACCCCAAAIhKqDBi4vGZphARiczIdBueeKltXbyLZ2US2fRptVdwHNCrEC9dCZ3J2sv0D5atjW/oCq7NNB+nuu1z3aPibd0m56r+Kh30NW3jwZT9KuuTYO2+hVM06zg8hrGE8wx6dOyBK6c1LVlXXCAq9UPaeaaCdwmn9XJ7qFZr/4CrzoZln4FailJ+2zgVT9Q+eGUbPdur8/O8ft3YfrsXJlwRgfRGtGdUqPtZHIzPtnu7sdCaAlQaiC07hejRQABBBBAAAEEEEAAgRAW0NnAJ5uJnP7+wEjRzCfNovz5n5bK0nWNUzswhGkYOgIIINBggWNlVR+ClHks+x5Ys84rKkuXePbx3U8z0J0yIlrrNTkxwu5SGiDj3re/vj9W5prwTifm0/rS2rS0iWbn+2ta0uRFM9mW0843H9jRQleglZmd0XxmR0MAAQQQQAABBBBAAAEEEDjdApqV+dWKvTLjk1xpE9ZKpk3sKiP7J5vH081z8KegZfS/xB512KS7T8HROSQCjSuwdNaT9oA7Vr/TuAfmaI0mwN+URqNscgfi969xbgmlBhrHkaMggAACCCCAAAIIIIAAAvUWaN26lZw9JE3GDE61Ez7pI6avmEwnrQE7elCqrVNa74PSAQEEEEAAAQSahAClBprEbWAQCCCAAAIIIIAAAggg0JIFNMP1zP4p8od7hsv3p2TJh1/mye2/WySfLs53Pw5bm49O1PLcu5tr243tCCCAAAIIIHCaBMh4PU3QnAYBBBBAAAEEEEAAAQQQqIvA0N7tRb9WbymS12dtk1c/3iZTz+0i541IF60RG6jNXpQvb3+2Q9LaR8kFo6kJGMiJ9QgggAACCJwuAQKvp0ua8yCAAAIIIIAAAggggAAC9RDon5Ug/W8bLBtyD9kA7Ouzcu3s1pPM5FyR4WFeRyqvOCFvzcm16/719ibJzoiVHl3ivPbhDQIIIIAAAgicXoHAH5ee3nFwNgQQQAABBBBAAAEEEEAAAT8CvTLj5Jc3DTRfA2Tt1oNyy4ML5Y1Pc6Wk1DVTtnaZ+/UeKSw6ZnvrTN2P/meNHC457udorEIAAQQQQACB0yVA4PV0SXMeBBBAAAEEEEAAAQQQQKABAt07xcr9P+gvD/54sOTmF8utDy2UVz7KkUNHjsuMT1zZrs7hCw6UyhMvrpWTJ086q3hFAAEEEEAAgdMsQKmB0wzO6RBAAAEEEEAAAQQQQACBhghkdGgn917bV/ILS2zA9aYHF8ixsopqh1y2fr9Mn50rV07qWm0bKxBAAIHGFFg668nGPBzHQqDZCJDx2mxuJReCAAIIIIAAAggggAACLUkgPTla7riqt6QkRAS87Fc+zpEVG/cH3M4GBBBAAAEEEDh1AmS8njpbjowAAggggAACCCCAAAIInFKB+SsLZOfekoDn0EoDj72wVh6/b7gkJ0QG3K+5b2jVSqR751hTekFk687DIXO5EeGtpYvJcC4tOyE7dheHzLgZaMsR2LH6nZZzsVwpAkEIkPEaBBpdEEAAAQQQQAABBBBAAIGmIDDDlBKorR0qPm4m21or5RUnatu12W4/Z3gHeeye4fL4vcMlJTFwhnBTAxjeN1l+f/dw+dP/O0NSk1pu4Lyp3RfGgwACCNRVgIzXukqxHwIIIIAAAggggAACCCDQhASWrCmUnF1H6jSijbkH5bl3t9Rp3+a405RxGfay9uw/KgUHjvm9xN7d4uXM/snSrVOMdOsYIxHhYXLwSJmdyGyxsf5i6R4pO+4KXk8cmS4Xjc2QEydOyvPvb5Hlpp6ub7vz6t7So0ucHC4pk1/85Rv35gE9EmTimenSp1uCJMSGS0lpuezYUywfz98l85bvde+nC2u3FtkJ0lqZlN3xZ3SQ1z7e5rWdNwgggAACTVuAwGvTvj+MDgEEEEAAAQQQQAABBBDwK/D67G1+1wda+cGXOyU+NUsO7m1ZAVgNqGogVduXPoFNXaeP899wUZZcMLqTaIDTs0UmRUma+RrRL1mumthVfvL7xSZQWiFHj1VIpikBoO3WaT3l9t8ukvJyU8egsp3Rv72cOyLdvtuaV5VpfMXELvK9C7Kc3exrfEy46Ff/rETJMuUQnnuv6v4cOFQma3OKpF/3RDnPHO/1WdtsuQSvA/AGAQQQQKDJChB4bbK3hoEhgAACCCCAAAIIIIAAAv4FNNPyvuv6SVjrVtLaFJBrbQKGrc1C1XIrs01sILG12Uf305bRv+XNPD5mcKobcd433hml6vXIHUNt/VfdSV1XbDogm3cclsPFZdKhfZSMHJgiSXER0j4+QqIj29jAqwZwLx7bWXplxtvA7CUmo/aNT7fb84SFtZIfTsl2n/OZtze7l7t3jrPLxUfLTXbrHik6fFzOHGCybCsDw5qZ+9GCXbK78Ki7j2bBauA1JTFSNFt25cYi9zYWEEAAAQSatgCB16Z9fxgdAggggAACCCCAAAIIIFBNQIOpGhSk1S5w1sBku1OemYRsW553aYaLTbkAnXRLW9HhY/LYi2tl1SbvwObTb22Sc01pgPHD06TCBGad9s83N8kf7h5mg9vTzusqny7Ot4HUi87uJOnJ0Xa3L1fskTVbqo63dN0+2bmnRN6ak2sDuLrT9E+2yWOm9mzX9BgTOG9lyxN4Bl7nryiQmy7raYPnmvVK4NW5A7wigAACTV/AfL5HQwABBBBAAAEEEEAAAQQQQKD5CXRMjTaZqq5Jqb70yXaNj20rV0/uZi9aM11//Y+V1YKuuvGkibV+sjDf1mnVR/+dtsVkxX5igq3aoiLC5LoLsyS2XRu5cqLrmKVlFfLcO1VlA3Q/Pc5LH251B111XUXFSVm0qlAXbYuJ9s6POnTkuK31qhv7ZSW4duI7AggggEBICBB4DYnbxCARQAABBBBAAAEEEEAAAQTqK5Bdmc2q/XaaCaw8W++u8TZgquvmfr1bttVxojLPY7zwgQZRy+2qCWbyq1/fMljaRbkCp298uk0Ki/xP5OV5DF2Oj2nrXnWk+Lh72VnYnu8au5Y8aNPGuw6tsw+vCCCAAAJNT4DAa9O7J4wIAQQQQAABBBBAAAEEEECgEQS6VtZO1UMVHvQOgnbp4CoHoNu03mowTbNRX/k4x3bVibl0cixtu/cdlbfm7rDLtX1rY2rCjjR1Xp22IfeQs+h+3Xew1C7rOXSyLxoCCCCAQGgIeD/DEBpjZpQIIIAAAggggAACCCCAAAII1CqQYMoJOG2fT/Zpl7R2zibR+q9O0wms7v5uH+et+7W07IT8/I9L5UiJK8PV2fDBvDy5cExnr5q7/35nk5SXV9WDdfb19zr13C6SEBthN63eckD27ncFWT33LSyqKnGQ1j7Sa7ye+7GMAAIIINC0BAi8Nq37wWgQQAABBBBAAAEEEEAAAQQaSSAmuirwut8n4zXaY1u5qbPqtNh24e66sM465zUhNrxa4NXZ5vkaFVG3f2pnZcSKTsylrbzihPzzjU122fdbYWXGq65PY1I1Xx7eI4AAAk1WoG7/NWiyw2dgCCCAAAIIIIAAAggggAACCPgXiAh3VdcrKz9hAptVwVXde0/hUXen9JQocSbO+mb9PnnshTUi5rF+baMHpZhSACnufX0XLh7rne2q22+4OEsWriqQYyZLNlBLToiQ/75xgIS3cY3x5ZlbZftu7zq0Tt+S0gpnUXQiMBoCCCCAQGgIUOM1NO4To0QAAQQQQAABBBBAAAEEEKinQOkxV8BSg5tREWFevXd4TLbVr3uCe5sGOect3yvzlu2xX6u3FLm3+S4kxoXLVZO62tU6ydayDfvssk6CdcVE13q7wudbTHQb+eXNgyTR7Kft4wV58uacwDVhEzwm34oM974On0PzFgEEEECgCQkQeG1CN4OhIIAAAggggAACCCCAAAIINJ5A8dGqeqztTYapZ8vZVZVdetl4rbNaVZbAc7+alm+4qLtER7oeJJ0+e5v89bX1cuy4K9h7ybgMv2UBNAD8q1sGSWYHV43Zr9cVylMzNtZ0GkmKrxq75zXV2ImNCCCAAALfugCB12/9FjAABBBAAAEEEEAAAQQQQACBUyHglA/QY+uj/Z5tfc5BWbl5v12lwdOfXt/PZKCGe+5S43LvbvFyzvB0u8+e/UflvS92yj4zCdY7n7kyV9uaLNsbL832Ooau+8WPBkiPjDi7fpWZTOt3z66Rk7VUD/Ac+4HDx7yOyRsEEEAAgaYrQI3XpntvGBkCCCCAAAIIIIAAAggggEADBLbtOuLu3T4h0r3sLPxjxib54/87Q9qEtZb+WYny55+NkPfm7ZSteYeluKRcunaMkfNHdXR2d79q+ddbL+/pfv+f97a4a8i+OWe7TBqZbjJoI2REv2QZ0jtRlq8/YPe965re9jxOx9kL8mVQr0TnrX2tMJNsOfs7G9p7ZLzmemTqOtt5RQABBBBomgIEXpvmfWFUCCCAAAIIIIAAAggggAACDRTYklcVeO2RESufLsr3OmLe3hJ56JmVcsdVvaV9fKTERLeVayZ389rH841TM3bSWR1tUFa3rc0pkvkrCty76T4vzsyRO67sbdf96NKecsfvFtms1jNMINaz3XttX8+3dlknAvv+/3wpnhNq9cqMt9sOF5dJYREZr9XQWIEAAgg0UQFKDTTRG8OwEEAAAQQQQAABBBBAAAEEGiawywRWCw6U2oOMGpgimqnq2zS79M7fLZb3TabrtvwjJnP1hNcuWlN13rLd8l9/XeYOeg7r097uU1FxUp55e7PX/vpGA7xOtm2n1GhJTYqy+xQdLqu2r++K1maMnuNMT4l2B3mXb3CVRvDtw3sEEEAAgaYpQMZr07wvjAoBBBBAAAEEEEAAAQQQQKARBOavLBCd6CouJlz6ZyfIqk1F1Y6q2aX/emuTXd/aRD7TU6Ik3NRjPVxyXAoPVM8w/e2zq0QnyTp2/ISUl1cv0Ko1W+95bImZeCvMliA4VuYK5t760MJq565txZjBVVmy81cW1rY72xFAAAEEmpAAGa9N6GYwFAQQQAABBBBAAAEEEEAAgcYV+GLZHvcBxwxOdS8HWjhx4qTk7SmRHFOmwF/QVfudMHHU4qMVfoOuznE1+Kr7OEFXZ319X0cPTrNdNPN2+fp99e3O/ggggAAC36IAgddvEZ9TI4AAAggggAACCCCAAAIInFqBLTsOy5qtrsmtzhqQIq1D6F/BWqaga3qMBZo5P6/BQdxTK83REUAAAQR8BULoPzm+Q+c9AggggAACCCCAAAIIIIAAArULzPhku5nc6qTEtmsrSfERtXdoIntkdnQFXUvLKuQDU4OWhgACCCAQWgLUeA2t+8VoEUAAAQQQQAABBBBAAAEE6imwfP1+mfazz0Xn1io3E2KFSpv/zV65YnWhVJjaBlregIYAAgggEFoCBF5D634xWgQQQAABBBBAAAEEEEAAgSAEKkIo4Op5ecfLibh6erCMAAIIhJIApQZC6W4xVgQQQAABBBBAAAEEEEAAAQQQQAABBBAICQECryFxmxgkAggggAACCCCAAAIIIIAAAggggAACCISSAIHXULpbjBUBBBBAAAEEEEAAAQQQQAABBBBAAAEEQkKAwGtI3CYGiQACCCCAAAIIIIAAAggggAACCCCAAAKhJEDgNZTuFmNFAAEEEEAAAQQQQAABBBBAAAEEEEAAgZAQIPAaEreJQSKAAAIIIIAAAggggAACCCCAAAIIIIBAKAkQeA2lu8VYEUAAAQQQQAABBBBAAAEEEEAAAQQQQCAkBAi8hsRtYpAIIIAAAggggAACCCCAAAIIIIAAAgggEEoCBF5D6W4xVgQQQAABBBBAAAEEEEAAAQQQQAABBBAICQECryFxmxgkAggggAACCCCAAAIIIIAAAggggAACCISSAIHXULpbjBUBBBBAAAEEEEAAAQQQQAABBBBAAAEEQkKAwGtI3CYGiQACCCCAAAIIIIAAAggggAACCCCAAAKhJEDgNZTuFmNFAAEEEEAAAQQQQAABBBBAAAEEEEAAgZAQIPAaEreJQSKAAAIIIIAAAggggAACCCCAAAIIIIBAKAkQeA2lu8VYEUAAAQQQQAABBBBAAAEEEEAAAQQQQCAkBAi8hsRtYpAIIIAAAggggAACCCCAAAIIIIAAAgggEEoCBF5D6W4xVgQQQAABBBBAAAEEEEAAAQQQQAABBBAICQECryFxmxgkAggggAACCCCAAAIIIIAAAggggAACCISSAIHXULpbjBUBBBBAAAEEEEAAAQQQQAABBBBAAAEEQkKAwGtI3CYGiQACCCCAAAIIIIAAAggggAACCCCAAAKhJEDgNZTuFmNFAAEEEEAAAQQQQAABBBBAAAEEEEAAgZAQIPAaEreJQSKAAAIIIIAAAggggAACCCCAAAIIIIBAKAkQeA2lu8VYEUAAAQQQQAABBBBAAAEEEEAAAQQQQCAkBAi8hsRtYpAIIIAAAggggAACCCCAAAIIIIAAAgggEEoCBF5D6W4xVgQQQAABBBBAAAEEEEAAAQQQQAABBBAICQECryFxmxgkAggggAACCCCAAAIIIIAAAggggAACCISSAIHXULpbjBUBBBBAAAEEEEAAAQQQQAABBBBAAAEEQkKAwGtI3CYGiQACCCCAAAIIIIAAAggggAACCCCAAAKhJEDgNZTuFmNFAAEEEEAAAQQQQAABBBBAAAEEEEAAgZAQIPAaEreJQSKAAAIIIIAAAggggAACCCCAAAIIIIBAKAkQeA2lu8VYEUAAAQQQQAABBBBAAAEEEEAAAQQQQCAkBAi8hsRtYpAIIIAAAggggAACCCCAAAIIIIAAAgggEEoCBF5D6W4xVgQQQAABBBBAAAEEEEAAAQQQQAABBBAICQECryFxmxgkAggggAACCCCAAAIIIIAAAggggAACCISSQJtQGixjRQABBBBAAAEEEEAAAQQQaLjA0llPNvwgHAEBBBBAAAEEjNfl4AAACRBJREFUahQg47VGHjYigAACCCCAAAIIIIAAAggggAACCCCAAAL1F2h10rT6d6MHAggggAACCCCAAAIIIIAAAggggAACCCCAQCABMl4DybAeAQQQQAABBBBAAAEEEEAAAQQQQAABBBAIUoDAa5BwdEMAAQQQQAABBBBAAAEEEEAAAQQQQAABBAIJEHgNJMN6BBBAAAEEEEAAAQQQQAABBBBAAAEEEEAgSAECr0HC0Q0BBBBAAAEEEEAAAQQQQAABBBBAAAEEEAgkQOA1kAzrEUAAAQQQQAABBBBAAAEEEEAAAQQQQACBIAUIvAYJRzcEEEAAAQQQQAABBBBAAAEEEEAAAQQQQCCQAIHXQDKsRwABBBBAAAEEEEAAAQQQQAABBBBAAAEEghQg8BokHN0QQAABBBBAAAEEEEAAAQQQQAABBBBAAIFAAgReA8mwHgEEEEAAAQQQQAABBBBAAAEEEEAAAQQQCFKAwGuQcHRDAAEEEEAAAQQQQAABBBBAAAEEEEAAAQQCCRB4DSTDegQQQAABBBBAAAEEEEAAAQQQQAABBBBAIEgBAq9BwtENAQQQQAABBBBAAAEEEEAAAQQQQAABBBAIJEDgNZAM6xFAAAEEEEAAAQQQQAABBBBAAAEEEEAAgSAFCLwGCUc3BBBAAAEEEEAAAQQQQAABBBBAAAEEEEAgkACB10AyrEcAAQQQQAABBBBAAAEEEEAAAQQQQAABBIIUIPAaJBzdEEAAAQQQQAABBBBAAAEEEEAAAQQQQACBQAIEXgPJsB4BBBBAAAEEEEAAAQQQQAABBBBAAAEEEAhSgMBrkHB0QwABBBBAAAEEEEAAAQQQQAABBBBAAAEEAgkQeA0kw3oEEEAAAQQQQAABBBBAAAEEEEAAAQQQQCBIAQKvQcLRDQEEEEAAAQQQQAABBBBAAAEEEEAAAQQQCCRA4DWQDOsRQAABBBBAAAEEEEAAAQQQQAABBBBAAIEgBQi8BglHNwQQQAABBBBAAAEEEEAAAQQQQAABBBBAIJAAgddAMqxHAAEEEEAAAQQQQAABBBBAAAEEEEAAAQSCFCDwGiQc3RBAAAEEEEAAAQQQQAABBBBAAAEEEEAAgUACBF4DybAeAQQQQAABBBBAAAEEEEAAAQQQQAABBBAIUoDAa5BwdEMAAQQQQAABBBBAAAEEEEAAAQQQQAABBAIJEHgNJMN6BBBAAAEEEEAAAQQQQAABBBBAAAEEEEAgSAECr0HC0Q0BBBBAAAEEEEAAAQQQQAABBBBAAAEEEAgkQOA1kAzrEUAAAQQQQAABBBBAAAEEEEAAAQQQQACBIAUIvAYJRzcEEEAAAQQQQAABBBBAAAEEEEAAAQQQQCCQAIHXQDKsRwABBBBAAAEEEEAAAQQQQAABBBBAAAEEghQg8BokHN0QQAABBBBAAAEEEEAAAQQQQAABBBBAAIFAAgReA8mwHgEEEEAAAQQQQAABBBBAAAEEEEAAAQQQCFKAwGuQcHRDAAEEEEAAAQQQQAABBBBAAAEEEEAAAQQCCRB4DSTDegQQQAABBBBAAAEEEEAAAQQQQAABBBBAIEgBAq9BwtENAQQQQAABBBBAAAEEEEAAAQQQQAABBBAIJEDgNZAM6xFAAAEEEEAAAQQQQAABBBBAAAEEEEAAgSAFCLwGCUc3BBBAAAEEEEAAAQQQQAABBBBAAAEEEEAgkACB10AyrEcAAQQQQAABBBBAAAEEEEAAAQQQQAABBIIUIPAaJBzdEEAAAQQQQAABBBBAAAEEEEAAAQQQQACBQAIEXgPJsB4BBBBAAAEEEEAAAQQQQAABBBBAAAEEEAhSgMBrkHB0QwABBBBAAAEEEEAAAQQQQAABBBBAAAEEAgkQeA0kw3oEEEAAAQQQQAABBBBAAAEEEEAAAQQQQCBIAQKvQcLRDQEEEEAAAQQQQAABBBBAAAEEEEAAAQQQCCRA4DWQDOsRQAABBBBAAAEEEEAAAQQQQAABBBBAAIEgBQi8BglHNwQQQAABBBBAAAEEEEAAAQQQQAABBBBAIJAAgddAMqxHAAEEEEAAAQQQQAABBBBAAAEEEEAAAQSCFCDwGiQc3RBAAAEEEEAAAQQQQAABBBBAAAEEEEAAgUACBF4DybAeAQQQQAABBBBAAAEEEEAAAQQQQAABBBAIUoDAa5BwdEMAAQQQQAABBBBAAAEEEEAAAQQQQAABBAIJEHgNJMN6BBBAAAEEEEAAAQQQQAABBBBAAAEEEEAgSAECr0HC0Q0BBBBAAAEEEEAAAQQQQAABBBBAAAEEEAgkQOA1kAzrEUAAAQQQQAABBBBAAAEEEEAAAQQQQACBIAUIvAYJRzcEEEAAAQQQQAABBBBAAAEEEEAAAQQQQCCQAIHXQDKsRwABBBBAAAEEEEAAAQQQQAABBBBAAAEEghQg8BokHN0QQAABBBBAAAEEEEAAAQQQQAABBBBAAIFAAgReA8mwHgEEEEAAAQQQQAABBBBAAAEEEEAAAQQQCFKAwGuQcHRDAAEEEEAAAQQQQAABBBBAAAEEEEAAAQQCCRB4DSTDegQQQAABBBBAAAEEEEAAAQQQQAABBBBAIEgBAq9BwtENAQQQQAABBBBAAAEEEEAAAQQQQAABBBAIJEDgNZAM6xFAAAEEEEAAAQQQQAABBBBAAAEEEEAAgSAFCLwGCUc3BBBAAAEEEEAAAQQQQAABBBBAAAEEEEAgkACB10AyrEcAAQQQQAABBBBAAAEEEEAAAQQQQAABBIIUIPAaJBzdEEAAAQQQQAABBBBAAAEEEEAAAQQQQACBQAIEXgPJsB4BBBBAAAEEEEAAAQQQQAABBBBAAAEEEAhSgMBrkHB0QwABBBBAAAEEEEAAAQQQQAABBBBAAAEEAgkQeA0kw3oEEEAAAQQQQAABBBBAAAEEEEAAAQQQQCBIAQKvQcLRDQEEEEAAAQQQQAABBBBAAAEEEEAAAQQQCCRA4DWQDOsRQAABBBBAAAEEEEAAAQQQQAABBBBAAIEgBQi8BglHNwQQQAABBBBAAAEEEEAAAQQQQAABBBBAIJAAgddAMqxHAAEEEEAAAQQQQAABBBBAAAEEEEAAAQSCFPj/IPG63mo1N6IAAAAASUVORK5CYII=;" vertex="1" parent="1">
          <mxGeometry x="-140" y="250" width="1148.91" height="490" as="geometry" />
        </mxCell>
        <mxCell id="sqtcqI0O-p82qgy-uQC5-2" value="" style="rounded=1;whiteSpace=wrap;html=1;fillOpacity=60;strokeOpacity=60;" vertex="1" parent="1">
          <mxGeometry x="350" y="430" width="120" height="130" as="geometry" />
        </mxCell>
        <mxCell id="sqtcqI0O-p82qgy-uQC5-3" value="" style="rounded=1;whiteSpace=wrap;html=1;fillOpacity=60;strokeOpacity=60;" vertex="1" parent="1">
          <mxGeometry x="110" y="440" width="130" height="110" as="geometry" />
        </mxCell>
        <mxCell id="sqtcqI0O-p82qgy-uQC5-4" value="" style="rounded=1;whiteSpace=wrap;html=1;fillOpacity=60;strokeOpacity=60;" vertex="1" parent="1">
          <mxGeometry x="620" y="320" width="130" height="110" as="geometry" />
        </mxCell>
        <mxCell id="sqtcqI0O-p82qgy-uQC5-5" value="" style="rounded=1;whiteSpace=wrap;html=1;fillOpacity=60;strokeOpacity=60;" vertex="1" parent="1">
          <mxGeometry x="620" y="560" width="130" height="110" as="geometry" />
        </mxCell>
        <mxCell id="sqtcqI0O-p82qgy-uQC5-6" value="&lt;h2&gt;Node02&lt;/h2&gt;" style="text;html=1;whiteSpace=wrap;strokeColor=none;fillColor=none;align=center;verticalAlign=middle;rounded=0;" vertex="1" parent="1">
          <mxGeometry x="630" y="360" width="60" height="30" as="geometry" />
        </mxCell>
        <mxCell id="sqtcqI0O-p82qgy-uQC5-7" value="&lt;h2&gt;Node03&lt;/h2&gt;" style="text;html=1;whiteSpace=wrap;strokeColor=none;fillColor=none;align=center;verticalAlign=middle;rounded=0;" vertex="1" parent="1">
          <mxGeometry x="630" y="600" width="60" height="30" as="geometry" />
        </mxCell>
        <mxCell id="sqtcqI0O-p82qgy-uQC5-8" value="&lt;h2&gt;Node01&lt;/h2&gt;" style="text;html=1;whiteSpace=wrap;strokeColor=none;fillColor=none;align=center;verticalAlign=middle;rounded=0;" vertex="1" parent="1">
          <mxGeometry x="120" y="480" width="60" height="30" as="geometry" />
        </mxCell>
        <mxCell id="sqtcqI0O-p82qgy-uQC5-9" value="&lt;h2&gt;Node04&lt;/h2&gt;" style="text;html=1;whiteSpace=wrap;strokeColor=none;fillColor=none;align=center;verticalAlign=middle;rounded=0;" vertex="1" parent="1">
          <mxGeometry x="370" y="480" width="60" height="30" as="geometry" />
        </mxCell>
      </root>
    </mxGraphModel>
  </diagram>
</mxfile>
